<mxfile host="app.diagrams.net" modified="2022-08-01T18:15:19.886Z" agent="5.0 (Windows NT 10.0; Win64; x64) AppleWebKit/537.36 (KHTML, like Gecko) Chrome/103.0.0.0 Safari/537.36" etag="2TcwzwGund9oA1Qw1lEa" version="20.2.2" type="github" pages="4">
  <diagram id="Gnu-nJ8GH0qcafx3-Hsz" name="Общая схема">
    <mxGraphModel dx="1038" dy="1716" grid="1" gridSize="10" guides="1" tooltips="1" connect="1" arrows="1" fold="1" page="1" pageScale="1" pageWidth="827" pageHeight="1169" math="0" shadow="0">
      <root>
        <mxCell id="0" />
        <mxCell id="1" parent="0" />
        <mxCell id="oSrQM-q-5C8ZIn2dSp9f-2" value="" style="shape=datastore;whiteSpace=wrap;html=1;" parent="1" vertex="1">
          <mxGeometry x="349.73" y="97.83" width="60" height="60" as="geometry" />
        </mxCell>
        <mxCell id="oSrQM-q-5C8ZIn2dSp9f-6" value="" style="shape=singleArrow;direction=west;whiteSpace=wrap;html=1;rotation=0;" parent="1" vertex="1">
          <mxGeometry x="325" y="250" width="100" height="20" as="geometry" />
        </mxCell>
        <mxCell id="oSrQM-q-5C8ZIn2dSp9f-8" value="База данных" style="text;html=1;strokeColor=none;fillColor=none;align=center;verticalAlign=middle;whiteSpace=wrap;rounded=0;fontStyle=1" parent="1" vertex="1">
          <mxGeometry x="329.73" y="77.83" width="100" height="20" as="geometry" />
        </mxCell>
        <mxCell id="oSrQM-q-5C8ZIn2dSp9f-9" value="" style="shape=singleArrow;direction=east;whiteSpace=wrap;html=1;rotation=0;" parent="1" vertex="1">
          <mxGeometry x="330" y="270" width="100" height="20" as="geometry" />
        </mxCell>
        <mxCell id="oSrQM-q-5C8ZIn2dSp9f-12" value="" style="shape=singleArrow;direction=north;whiteSpace=wrap;html=1;rotation=60;" parent="1" vertex="1">
          <mxGeometry x="259.44" y="113" width="20" height="100" as="geometry" />
        </mxCell>
        <mxCell id="oSrQM-q-5C8ZIn2dSp9f-16" value="" style="shape=singleArrow;direction=north;whiteSpace=wrap;html=1;rotation=-60;" parent="1" vertex="1">
          <mxGeometry x="477" y="110" width="19.56" height="100" as="geometry" />
        </mxCell>
        <mxCell id="oSrQM-q-5C8ZIn2dSp9f-17" value="" style="shape=singleArrow;direction=south;whiteSpace=wrap;html=1;rotation=-60;" parent="1" vertex="1">
          <mxGeometry x="467" y="127.83" width="20.44" height="100" as="geometry" />
        </mxCell>
        <mxCell id="oSrQM-q-5C8ZIn2dSp9f-22" value="Данные для принятия решений" style="text;html=1;strokeColor=none;fillColor=none;align=center;verticalAlign=middle;whiteSpace=wrap;rounded=0;rotation=-30;fontSize=10;" parent="1" vertex="1">
          <mxGeometry x="174.99999999999997" y="110" width="150" height="30" as="geometry" />
        </mxCell>
        <mxCell id="oSrQM-q-5C8ZIn2dSp9f-23" value="Адаптивное управление" style="text;html=1;strokeColor=none;fillColor=none;align=center;verticalAlign=middle;whiteSpace=wrap;rounded=0;rotation=0;direction=west;fontSize=10;" parent="1" vertex="1">
          <mxGeometry x="340" y="230" width="80" height="20" as="geometry" />
        </mxCell>
        <mxCell id="oSrQM-q-5C8ZIn2dSp9f-24" value="Оптимизация режима работы оборудования" style="text;html=1;strokeColor=none;fillColor=none;align=center;verticalAlign=middle;whiteSpace=wrap;rounded=0;rotation=0;direction=west;fontSize=10;" parent="1" vertex="1">
          <mxGeometry x="340" y="300" width="80" height="20" as="geometry" />
        </mxCell>
        <mxCell id="oSrQM-q-5C8ZIn2dSp9f-25" value="Данные, полученные на модели" style="text;html=1;strokeColor=none;fillColor=none;align=center;verticalAlign=middle;whiteSpace=wrap;rounded=0;rotation=30;flipV=1;flipH=1;fontSize=10;" parent="1" vertex="1">
          <mxGeometry x="437" y="127.83" width="150" height="30" as="geometry" />
        </mxCell>
        <mxCell id="oSrQM-q-5C8ZIn2dSp9f-30" value="" style="shape=image;verticalLabelPosition=bottom;labelBackgroundColor=default;verticalAlign=top;aspect=fixed;imageAspect=0;image=https://static.turbosquid.com/Preview/2019/01/23__01_16_02/complex3dmodelwithshearerloader1.jpg61E9D42A-FA9E-46B9-BD13-3F04E4DED708Default.jpg;" parent="1" vertex="1">
          <mxGeometry x="445.99" y="220" width="146.67" height="110" as="geometry" />
        </mxCell>
        <mxCell id="oSrQM-q-5C8ZIn2dSp9f-31" value="Цифровая модель" style="text;html=1;strokeColor=none;fillColor=none;align=center;verticalAlign=middle;whiteSpace=wrap;rounded=0;rotation=0;direction=west;fontStyle=1" parent="1" vertex="1">
          <mxGeometry x="440.34" y="320" width="146.66" height="20" as="geometry" />
        </mxCell>
        <mxCell id="oSrQM-q-5C8ZIn2dSp9f-33" value="" style="shape=image;verticalLabelPosition=bottom;labelBackgroundColor=default;verticalAlign=top;aspect=fixed;imageAspect=0;image=https://www.e-mj.com/wp-content/uploads/2020/03/1-Eickhoff-SL-900-shearer-loader.jpg;" parent="1" vertex="1">
          <mxGeometry x="173" y="227.83" width="138.12" height="92.17" as="geometry" />
        </mxCell>
        <mxCell id="oSrQM-q-5C8ZIn2dSp9f-34" value="Физический объект" style="text;html=1;strokeColor=none;fillColor=none;align=center;verticalAlign=middle;whiteSpace=wrap;rounded=0;rotation=0;direction=west;fontStyle=1" parent="1" vertex="1">
          <mxGeometry x="175.73" y="320" width="146.66" height="20" as="geometry" />
        </mxCell>
        <mxCell id="oSrQM-q-5C8ZIn2dSp9f-35" value="" style="shape=datastore;whiteSpace=wrap;html=1;" parent="1" vertex="1">
          <mxGeometry x="349.73" y="97.83" width="60" height="60" as="geometry" />
        </mxCell>
        <mxCell id="oSrQM-q-5C8ZIn2dSp9f-38" value="" style="shape=singleArrow;direction=south;whiteSpace=wrap;html=1;rotation=60;" parent="1" vertex="1">
          <mxGeometry x="252.02" y="92.66" width="20" height="100" as="geometry" />
        </mxCell>
        <mxCell id="oSrQM-q-5C8ZIn2dSp9f-43" value="Данные с датчиков&lt;br style=&quot;font-size: 10px;&quot;&gt;" style="text;html=1;strokeColor=none;fillColor=none;align=center;verticalAlign=middle;whiteSpace=wrap;rounded=0;rotation=-30;fontSize=10;" parent="1" vertex="1">
          <mxGeometry x="210" y="162.83" width="150" height="30" as="geometry" />
        </mxCell>
        <mxCell id="oSrQM-q-5C8ZIn2dSp9f-48" value="Фактические данные" style="text;html=1;strokeColor=none;fillColor=none;align=center;verticalAlign=middle;whiteSpace=wrap;rounded=0;rotation=30;flipV=1;flipH=1;fontSize=10;" parent="1" vertex="1">
          <mxGeometry x="409.73" y="183" width="100" height="30" as="geometry" />
        </mxCell>
        <mxCell id="Mp3Z87jBennnfs2vOTWj-1" value="" style="shape=image;verticalLabelPosition=bottom;labelBackgroundColor=default;verticalAlign=top;aspect=fixed;imageAspect=0;image=data:image/png,iVBORw0KGgoAAAANSUhEUgAAA40AAALSCAIAAAD2maP4AAAABmJLR0QA/wD/AP+gvaeTAAAgAElEQVR4nOzdeUBMex8G8DPTNFNpIVt4k8gWyVbiWlLWskWhFKksyb5LSSTX7rqUrUULCkVEZIsoKVkjStFNkSgtZmqW9w+uS0Jp+Z2ZeT5/aebM9MxkZp75no0hEokoAAAAAACaYZIOAAAAAABQCfRUAAAAAKAj9FQAAAAAoCP0VAAAAACgI/RUAAAAAKAj9FQAAAAAoCP0VAAAAACgI/RUAAAAAKAj9FQAAAAAoCP0VAAAAACgI/RUAAAAAKAj9FQAAAAAoCP0VAAAAACgI/RUAAAAAKAj9FQAAAAAoCP0VAAAAACgI/RUAAAAAKAj9FQAAAAAoCP0VAAAAACgI/RUAAAAAKAj9FQAAAAAoCP0VAAAAACgI/RUAAAAAKAj9FQAAAAAoCP0VAAAAACgI/RUAAAAAKAj9FQAAAAAoCP0VAAAAACgI/RUAAAAAKAj9FQAAAAAoCP0VAAAAACgI/RUAAAAAKAj9FQAAAAAoCP0VAAAAACgI/RUAAAAAKAj9FQAAAAAoCP0VAAAAACgI/RUAAAAAKAj9FQAAAAAoCP0VAAAAACgI/RUAAAAAKAj9FQAAAAAoCP0VAAAAACgI/RUAAAAAKAj9FQAAAAAoCMW6QAAQFNcLresrIx0Cqg2BoOhqKjIYDBIBwEAqCn0VACoxMOHD5csWYKeKqYGDx68Zs0a0ikAAGoKPRUAKvHq1auysjJZWdnBgweTzgLVc+HChfT0dNIpAABqAXoqAPzQypUrjYyMSKeA6rl37x7pCAAAtQP7UQEAAAAAHaGnAgAAAAAdoacCAAAAAB2hpwIAAAAAHaGnAgAAAAAdoacCAAAAAB2hpwIAAAAAHaGnAgAAAAAdoacCAAAAAB2hpwIAAAAAHaGnAgAAAAAdoacCAAAAAB2hpwIAAAAAHaGnAgAAAAAdoacCAAAAAB2hpwIAAAAAHaGnAgAAAAAdoacCAAAAAB2hpwIAAAAAHaGnAgAAAAAdoacCAAAAAB2hpwIAAAAAHaGnAgAAAAAdoacCAAAAAB2hpwIAAAAAHaGnAgAAAAAdoacCAAAAAB2hpwIAAAAAHaGnAgAAAAAdoacCAAAAAB2hpwIAAAAAHaGnAgAAAAAdoacCAAAAAB2hpwJAPRDmRLhOnrjs2AtB7d6tQCCs4T3kRLhaTl5x/GXtBvvZb6xxZgAAaYGeCgC1QZAa6DR6iLGRkZGx8dCRYyfaL9sRfj//S/kT5t05GxYemZhbi3WQF+3UTl5O3S6ipAZ3Isy7c/bEidO3cyoLxn/sP8vU2Njoa8Yj5odkV7FoCkrf5xeV/TTz94sAAMC/0FMBoDaUp5w/evbKnWweJRKVvU+/GbJjyQS9HhP2Pqq7DsZQbqGpqdlOvRGrrn4D/8nF41FX72Tzvr5QJBJVraYKs/aMUmuuu+TKVzevkLmyRQAA4F919v4OANJHptN03+iVHWUoSvj+1iZzU5fTq1YGjjll37JOvhGz+7hcTnWpi3v+xn8PqroEAgFF8flfT2orZq5kEQAA+BfmqQBQB5iN+ixaNr4l48ONy3FfT1QFr6/tdhrVp2tnnX5jF/okvhdSFEXxH4euXea878b7r+eUBXEHVi//83QGRVEUL/PcJgeTPl07dtLtZ+qwMSpLQFEUJcy/5rVq5V+XX3+5GT/76u4F4wf16Nypq/4Qq5W+t/I+XVX05PSOxVNG9NXt1LFT9z9Gz9gc9aLmY15hfszulS6B93jvEg4sGNtX59uH9OjwmiUepzMEosL4fcsWLly0dGvUK+E3mStb5NdPBQCANEFPBYC6wWzYUJEhEgmEXyqXKD9qXv/hrhc/ttHtJP8iatdME1u/TAFFMZgZ0X//uXR9SM6XRYWvwzyX/ul9NZtNUYXRS4aPc40q6jJ6ivWo7py7+/dfKKQoihJmX/bZtm3f+Uz+p5tkhdgNHD5/b1zx/3r20WlaEPPXzAnOFyiK4kYuMhq/JixDQXvQKNNB7XgJh1aajVkbV9NV7cLsK37bN3ttdTQcsjyquHW3bx6S4PWDKxdjU9+LRB+zki5dvHjxUnxaoeibzJUt8qunAgBAumC9PwDUCd6jc5efC9h6vXpw/r1IkPe0ZKrP7X1WWhyK/2Srce/lUb6hGbbLtdpPmvzHurjroSdezpzfhklRlPB1xImYYiWjSWYtKG5USFg6e6TPKd9pqhRFURuEQmEl37BLojesPPyi6QS/G0dtNGQoiip5cir0eQeKotg9ZwbGew7q1ezT+12J1cKeQ/YcC0nw7DugKg9E+Oqq97qPKp9+YLA7jl1o1aPBv1eW3zp+87uHlG6/vIPRxuv3Zu0Y3HFZhsX+O95D/n0O+P/dL6fSRYQ/eyoAAKQM5qkAUHtK/rl3MzY25vzxPUtGj/vzjqitzXLbtl+27JTRtPfystLiUBRFsdqPHqnDEmQ+fcanKGZrcysjZW7c8RMZn9bo50acuFbScOiksc2ZFEOOw6F4TxNuv/k8YmQyK3nj4sWfispitLdcPEnj8+9r0GnsdJO2FEUxW+gb/1tSKYpq0KtHJ5bgTU5OFR+TMPvK/q1fbAu4mf/VOvlKH1Ja1Z+w7/z0qQAAkDJ44wOAWlP+YM+kgQMGGI6wmPdXgpzxssNn/x7T9L93GQanQYMvdZHRUEWJIeLyuCKKopgtxlkNa1R263joMwFFCbNPnoj92GTkZFNViqI4/WfNN2z4zHuMbp/Jzj7XsipfX1/4LD1HKNtRp2ula8eFBQ9P/e06x3q86fAhxqO3xpdTQkFV911i6bknfyj5rPhdlFPrr943K31INdqi4GdPBQCAlEFPBYBaI9tlZsCFixcvX7/9+FVu6tlN5h3kfrwwg8GgKEr0+afGo6xGNRcknQhN4Qv/OXXiBldt1OThn1a2s7stirx1ZpNNx7eRm2YYdu42+cCj75qgsPQjl6Jk2ZxKdsvnP/Wb1KPX+BV+iR8atGzXqXOn/ykzauHB/vIh/a6fPBUAANIFPRUAao+Spr6RsfHg/r07NvtJQ638psOmjP2f8P6J0OTn4WFxZf8bY2mk+OVKjuaIZQevPnsWu2tC84xjy1YFv65wCFNmw0YqLIr79vX7745tWnp+s0v4P5qOEQ/iIwIPeO3evW1KV3pvmf/TpwIAQIqgpwIAPSgMnDKhnSjl2E6P0LhyTTPLAQoVl2Cp9Z290rKzTOnLzJyKdVSxR4+OrPI75yP/O1dU2YuExCxKWJiZ+VbYQHdgv0af3u+E+e8K6+fEpbIsGUpUWlz0kwFr5Yv8+qkAAJAK6KkAQBMcAysLbcbTIwFx/A7jJ/f5vIs8/8GWCaYLvM49ePU+/8XtI94nU4VNu/dqV3EiyupqYztQuei8i/WK4OsPHidHH1g4rN/wTTcopqp2p1bM4tgjhx4UCfl5ib4zx6yNrc6qeVFOrM+mjV/8udn3esVpbuWYjVqrq1AFV4P94x4lXYxOyv/+VhUX+flTAQAgbei99gsAxAVDTkFeRlZe4QeVisGWl2PJMOQ5X74bM1ny8nIy8vJy/20ryuo+xUp/x6qb5Trmlr3+3R+K2UyraabHPNNdTiKKohiyzQzm718/Wum7+5TRmnPQN93S0Xub9cCtFMVgKncYt2bDcIriDFqxdeYN+/1OuqoLWCJZdRPnXauUZnkpyP0g2FeYqs2byAqeRm5ZHfnfhax28/tYD2jO/slD+vyzwpBZjnoRHmGO/U5Qsjqrb97p1bjijSosUna/10+eCgAAacMQiWq6zT8ASJ4LFy5s3LjR1dXVyMioHn9tYZhNR4uQ1u7JcS5dvtojSlCUeSfh/ssCqmHbXgY9WjX48R1QJVnJ8ckZxZxWOga926p8uQ/Buyc3b6bkc9r2Gdi9RX2OJ8vePIiNSy1ga+gN0lOvfPV95Yv84KmogsmTJ3M4nEOHDtUsOQAAeZinAgBdCPNOB0fmsXotNO/0bTOTUWqjZ9xGryr30UC9h7F6j+8ullHtNGBUp9qJWS3sZjpGY3WqvcgPnwoAAGmC7VMBgCaEOWHB0QWyeuPN20t7N8NTAQBAUeipAEAb3JT0Iq1+U+dM1JT6boanAgCAorDeHwBoQ2Ho5tihpEPQA54KAACKwjwVAAAAAOgJPRUAAAAA6Ag9FQAAAADoCD0VAAAAAOgIPRUAAAAA6Ag9FQAAAADoCD0VAAAAAOgIPRUAAAAA6Ag9FQAAAADoCD0VAAAAAOgIPRUAAAAA6Ag9FQAAAADoCD0VAAAAAOgIPRUAAAAA6Ag9FQAAAADoCD0VAAAAAOgIPRUAAAAA6Ag9FQAAAADoCD0VAAAAAOgIPRUAAAAA6Ag9FQAAAADoCD0VAAAAAOgIPRUAAAAA6Ag9FQAAAADoCD0VAAAAAOgIPRUAAAAA6Ag9FQAAAADoCD0VAAAAAOgIPRUAAAAA6Ag9FQAAAADoiEU6AADQ18OHD5s1a0Y6BVTP69evW7duTToFAEAtQE8FgEqkp6dTFBUeHh4eHk46C1SbrKws6QgAALUAPRUAKjF9+vRnz5717NmTyfz11kF8Pj82NjYtLU0kEs2YMaMe4tVQaGhoYWHhmDFjmjdvTjrLDx04cICiKA0NDUNDQzabXa3b6uvr100oAIB6xRCJRKQzAIAYe/HixapVq/Lz88vKyhQUFCIjI0kn+oWEhAQ3Nzcul9ulS5fdu3eTjvND5ubm+fn5srKyioqKHh4e2trapBMBANQ37EcFAL/vzJkzs2bNysnJKSsroyiKwWCQTvRrXl5eXC6Xoqj09PSHDx+SjvNDMjIyFEWVl5e/f/9+8eLFAQEBQqGQdCgAgHqFngoAv6O0tNTFxWXPnj08Hu/LhfTvqfHx8W/evPn0by6X6+XlRTbPT3y9xQWPxzty5IiTk9Pbt28JRgIAqGfoqQBQbampqTY2NgkJCZ8Gk1/Qv6d6e3t//Pjxy48ZGRkPHjwgmOcnKmwZzOVynz17Nm3atLi4OFKRAADqGXoqAFSDSCQ6cuTIggUL3r17V15eXuFamvfUuLi4vLy8ry+h80j103r/rwkEgtLSUnd39y1btnza0AIAQLKhpwJAVRUWFi5atCggIODrdf1fo3lP3bt379fD1E8yMzPv3btHJM/Pfd9TP+HxeBcvXrS1tX3x4kU9RwIAqGfoqQBQJXfv3rWxsXn48GGFdf1fo3NP/X6Y+gltR6o/OSJYWVlZTk7OrFmzTp06VZ+RAADqGXoqAPyCQCDYv3//ypUri4qKBALBT5akc0+tsGXq116+fHn37t16zvNLP5qnfsHj8fbu3bt8+fKioqL6iQQAUM/QUwHgZ/Ly8hwdHcPCwn60rv9rVTkpABE3b96sdJj6CZfL3bNnT33mqYpf9lSKorhcbnJysrW19f379+shEgBAPaPphwoA0MGNGzdsbW3T09OrUlLpzNvb+yebK1AU9c8//9y5c6fe8lRFVXoqRVF8Pv/Dhw/Lly/fv3//z6fdAABiBz0VACpRXl6+bdu29evXl5aWVv3w8vScp964ceOXhx2l4VaqVeypn/B4vLCwMAcHhy9HhwUAkAB0/FABAOISEhLOnDlT3TEqDbdPFYlEvxymfpKdnZ2UlFQPkaqouqW/vLw8MzOTVg8BAKCG0FMBoBJ//PGHt7e3jo4Oh8Op+q1o2FNv3Ljx7t27qixJt61UWSxWFZdkMBgcDkdfX//QoUMjR46s01QAAPWpqu+DACBtOnXqtGvXrpSUFC8vr/T09KqMJOnWUz8NU3+0m//3cnJybt++raenV6epqqiK6/05HI62traTk1O7du3qOhIAQD3DPBUAfkZbW3v37t1btmzp1KmTnJzczxemW0+NjY19//591Zen1Vaqv+ypcnJyXbp02blz5/bt21FSAUAiYZ4KAL/WtWtXb2/v+/fv79mzJz09/Uf7ldOqp1Z3mPpJbm5uQkKCvr5+HaWqup+s95eRkdHQ0FiwYEG3bt3qMxIAQD3DPBUAqqpbt2729vZNmzZt165dpbNVWu3vf/369YKCgureij4j1Up7qpycnIaGRs+ePfv164eSCgASD/NUAKgGX19fR0fHgQMHJiUleXl5vXr16uvtVmk1T3Vzc2MwGPLy8t9fJRQKhULhjwaWL168SEpK6tWrVx0H/IUK6/3l5eUbNWrk5OTUr1+/169fz5w5c8KECQ0bNiQVDwCgHqCnAkBV3bhxQyAQDBgwgKKoXr16+fj43L5928vLKzc391NbpVVPdXJy+lGNS09Pv3XrlpWVVaXXMhiMzp0712W0KvlSo+Xk5JSUlObMmTNo0KBPz3Dz5s2NjY2DgoLmzp1LNCMAQN1CTwWAKhGJRH5+fvb29l+XUT09PT8/v1u3bnl5eb18+fLly5cEE1Zgbm7+o6uUlZXT0tKGDBlSn3mq69OJXhs1ajRr1qyhQ4dW2KbC2tra1tZ20qRJTZs2JRQQAKDOoacCQJXExMSw2ey+fft+f1WfPn369Olz4cKFy5cv138wSdWtW7dWrVrNmzev0h3/VVVVR40adejQoaVLl9Z/NgCA+oGeCgC/JhQK/f39nZycfrLMsGHDhg0bVm+RJJ6Njc3PF7C0tLS2tra0tGzVqlX9RAIAqGc02jkXAGjr0qVLSkpKNDkAPnyipKRkbm7u5+dHOggAQF1BTwWAXxAIBIcOHbK3tycdBCoyNze/c+fO8+fPSQcBAKgT6KkA8AsXLlxo1qxZ9+7dSQeBiuTl5S0tLX19fUkHAQCoE+ipAPAzfD4/ICDAzs6OdBCo3NixY58+ffr48WPSQQAAah96KgD8zNmzZ9XV1bt27Uo6CFSOzWbb2NgcPHiQdBAAgNqHngoAP1RWVhYUFIRhKs2ZmJjk5uYmJyeTDgIAUMvQUwHgh86cOdO+fftOnTqRDgI/IyMjY2tri5EqAEge9FQAqByPxzt8+PD06dNJB4FfMzY2Li0tjYuLIx0EAKA2oacCQOVOnjzZpUsXLS0t0kHg15hMpr29vY+Pj0gkIp0FAKDWoKcCQCU+fvwYEhKCYaoY6d+/v6ys7JUrV0gHAQCoNeipAFCJsLCwnj17tmnThnQQqAZ7e3t/f3+BQEA6CABA7UBPBYCKSkpKjh07Nm3aNNJBoHp69+6tqqp6/vx50kEAAGoHeioAVHTs2DEDAwN1dXXSQaDaHBwcAgICysvLSQcBAKgF6KkA8I2ioqLw8HAMU8VU165dNTU1T58+TToIAEAtQE8FgG+EhIQMHDiwRYsWpIPAb7K3tw8ODuZyuaSDAADUFHoqAPynsLDw9OnTNjY2pIPA79PS0urWrVtYWBjpIAAANYWeCgD/OXz4sJGRUbNmzUgHgRqZPn16aGhocXEx6SAAADWCngoAn7179y4qKsra2pp0EKip1q1b9+3bNyQkhHQQAIAaQU8FgM+Cg4OHDx/euHFj0kGgFkybNi0iIqKgoIB0EACA34eeCgAURVF5eXkXL160srIiHQRqh5qampGRUXBwMOkgAAC/Dz0VACiKogIDA01NTRs2bEg6CNQaGxub8+fP5+XlkQ4CAPCb0FMBgMrNzY2JiZk8eTLpIFCbVFVVR40aFRAQQDoIAMBvQk8FACogIGDcuHHKysqkg0Ats7S0vHbtWnZ2NukgAAC/Az0VQNplZ2ffvHnTwsKCdBCofUpKShMmTPD39ycdBADgd6CnAkg7f39/c3NzRUVF0kGgTlhYWCQlJWVkZJAOAgBQbeipAFItMzMzKSlpwoQJpINAXZGXl588ebKPjw/pIAAA1YaeCiDV/P39J02aJC8vTzoI1KFx48alpqY+efKEdBAAgOpBTwWQXmlpaQ8fPhw3bhzpIFC32Gy2jY3NwYMHSQcBAKge9FQA6eXv729pacnhcEgHgTpnamqak5Nz9+5d0kEAAKoBPRVASqWmpj59+nT06NGkg0B9kJGRsbW1xUgVAMQLeiqAlPL19bW2tmaz2aSDQD0xNjYuKSmJi4sjHQQAoKrQUwGk0aNHj168eGFiYkI6CNQfJpNpZ2fn4+MjEolIZwEAqBL0VABp5OvrO3XqVBaLRToI1KsBAwawWKyrV6+SDgIAUCXoqQBS5+7du7m5ucOHDycdBAhwcHDw8/MTCASkgwAA/Bp6KoDU8fX1tbW1lZGRIR0ECOjdu7eqquqFCxdIBwEA+DX0VADpkpiYWFhYaGxsTDoIEOPg4HDo0KHy8nLSQQAAfgE9FUC6fBqmMpl47Uuvrl27tmnT5syZM6SDAAD8Aj6rAKRIXFwcj8czNDQkHQQIc3BwCAoK4nK5pIMAAPwMeiqAtBCJRH5+ftOnT2cwGKSzAGFaWlo6OjphYWGkgwAA/Ax6KoC0iI2NZTAY/fv3Jx0EaMHOzi40NLS4uJh0EACAH0JPBZAKX4appIMAXbRu3drAwCA0NJR0EACAH0JPBZAKV65ckZOTMzAwIB0EaMTW1vbUqVMFBQWkgwAAVA49FUDyCQQCf39/e3t70kGAXtTU1IyMjA4fPkw6CABA5dBTASTfpUuXGjVq1KtXL9JBgHZsbGyioqLy8vJIBwEAqAR6KoCEEwgEhw4dsrOzIx0E6EhVVdXU1DQwMJB0EACASqCnAki4qKgoNTU1XV1d0kGApiwtLWNiYrKzs0kHAQCoCD0VQJKVl5cHBgZiy1T4CWVl5fHjx/v7+5MOAgBQEXoqgCQ7e/ZsmzZttLW1SQcBWrOwsEhKSsrIyCAdBADgG+ipABKrrKwsKCgIx0yFX1JQUJg0aZKPjw/pIAAA30BPBZBYERERHTt27NixI+kgIAbMzMxSU1OfPHlCOggAwH/QUwEkE5fLPXLkCHbzhypis9k2NjYHDx4kHQQA4D/oqQCSKTw8XFdXt23btqSDgNgwMTHJycm5e/cu6SAAAJ+hpwJIoNLS0tDQUFtbW9JBQJywWCxbW1tspQoA9IGeCiCBTpw4oaen17p1a9JBQMwYGxsXFxfHx8eTDgIAQFHoqQCSp7i4+Pjx49OmTSMdBMQPk8m0s7Pz8fERiUSkswAAoKcCSJzQ0ND+/fu3atWKdBAQSwMGDGAymTExMaSDAACgpwJIlsLCwlOnTtnY2JAOAmLMwcHB19dXIBCQDgIA0g49FUCihISEGBoaqqmpkQ4CYkxPT09VVTU6Opp0EACQduipAJLj/fv3kZGR1tbWpIOA2LO3t/f39y8vLycdBACkGnoqgOQ4fPjw0KFDmzZtSjoIiD0dHR0NDY0zZ86QDgIAUg09FUBCvH379sKFC1ZWVqSDgIRwcHAIDg7mcrmkgwCA9EJPBZAQwcHBI0eOVFVVJR0EJET79u27dOkSHh5OOggASC/0VABJ8Pr168uXL1taWpIOAhLF3t4+JCSkpKSEdBAAkFLoqQCSIDAwcMyYMSoqKqSDgERp3bq1gYFBSEgI6SAAIKXQUwHE3qtXr65fvz5x4kTSQUAC2dranjp1qrCwkHQQAJBG6KkAYi8gIGD8+PFKSkqkg4AEUlNTMzIyCg4OJh0EAKQReiqAeHv58uWtW7fMzc1JBwGJZWNjExUVlZeXRzoIAEgd9FQA8Xbo0CELC4sGDRqQDgISS1VV1dTUNDAwkHQQAJA66KkAYiwjIyM5OdnMzIx0EJBwlpaWMTExr169Ih0EAKQLeiqAGPP39588ebK8vDzpICDhlJWVx48f7+fnRzoIAEgX9FQAcZWWlpaSkjJ27FjSQUAqWFhYJCUlZWRkkA4CAFIEPRVAXPn6+lpZWXE4HNJBQCooKChMmjTJ19eXdBAAkCLoqQBi6fHjx+np6aampqSDgBQxMzN78uRJamoq6SAAIC3QUwHEkp+fn7W1NZvNJh0EpAibzbaxsTl48CDpIAAgLdBTAcTPgwcPsrKyRo4cSToISB0TE5Ps7Ox79+6RDgIAUgE9FUD8+Pj4TJs2jcVikQ4CUofFYtna2mKkCgD1Az0VQMzcuXMnPz9/6NChpIOAlBoyZEhRUdGtW7dIBwEAyYeeCiBmfH19p02bJiMjQzoISCkmk2lnZ+fj4yMSiUhnAQAJh54KIE4SEhJKSkqMjIxIBwGpNnDgQAaDce3aNdJBAEDCoacCiBNfX19bW1smE69cIMze3t7X11cgEJAOAgCSDJ92AGLjxo0bfD5/4MCBpIMAUPr6+g0bNoyOjiYdBAAkGXoqgHgQiUR+fn52dnYMBoN0FgCKoigHBwd/f//y8nLSQQBAYqGnAoiHa9euycrK9uvXj3QQgM90dHQ0NDTOnDlDOggASCz0VAAxIBQK/fz8pk+fTjoIwDfs7e2Dg4N5PB7pIAAgmdBTAcTA5cuXlZSU9PX1SQcB+EaHDh26dOkSFhZGOggASCb0VAC6EwgEhw4dsrOzIx0EoBJ2dnahoaElJSWkgwCABEJPBaC76OjoJk2a9OjRg3QQgEpoaGj06dMnNDSUdBAAkEDoqQC0xufzMUwFmrO1tT158mRhYSHpIAAgadBTAWjt3Llz6urqOjo6pIMA/JCamtrgwYMPHz5MOggASBr0VAD6KisrCwwMxDAV6M/GxubcuXNv374lHQQAJAp6KgB9RUZGamlpderUiXQQgF9o3LixiYlJQEAA6SAAIFHQUwFoisfjBQcHY5gK4sLS0jImJiYnJ4d0EACQHOipADR16tSpLl26aGlpkQ4CUCUqKipmZmZ+fn6kgwCA5EBPBaCjjx8/Hj161NbWlnQQgGqYOHHi7du3MzMzSQcBAAmBngpAR+Hh4T169NDU1CQdBKAaFBQUJk+e7OvrSzoIAEgI9FQA2ikpKTl27BiGqSCOxo0b9/jx49TUVNJBAEASoKcC0M7x48f79Omjrq5OOghAtXE4HGtrax8fH9JBAEASoKcC0EtRUVFYWNjUqVNJBwH4TaampllZWffu3SMdBADEHnoqAL2EhoYOGDCgZcuWpIMA/CYWi2Vra3vw4EHSQQBA7KGnAtBIYWFhRFGF5J0AACAASURBVESEjY0N6SAANTJ06NCioqJbt26RDgIA4g09FYBGjhw5YmRk1Lx5c9JBAGqEyWROnz7dx8dHJBKRzgIAYgw9FYAu3r17d/bs2SlTppAOAlALBg0axGAwrl27RjoIAIgx9FQAuggODh4+fHiTJk1IBwGoHfb29r6+vkKhkHQQABBX6KkAtJCXlxcdHW1lZUU6CECt0dfXV1FRuXDhAukgACCu0FMBaCEwMHDUqFGNGjUiHQSgNjk4OBw6dIjP55MOAgBiCT0VgLzc3NyYmJhJkyaRDgJQy7p166aurn7mzBnSQQBALKGnApAXEBAwduxYFRUV0kEAap+Dg0NQUBCPxyMdBADED3oqAGHZ2dk3b96cOHEi6SAAdaJDhw5dunQJDw8nHQQAxA96KgBh/v7+EyZMUFRUJB0EoK7Y2dmFhISUlJSQDgIAYgY9FYCkFy9eJCUlmZubkw4CUIc0NDT09fWPHTtGOggAiBn0VACS/P39J06cKC8vTzoIQN2ytbUNDw8vLCwkHQQAxAl6KgAx6enp9+/fHzduHOkgAHWuRYsWhoaGhw8fJh0EAMQJeioAMX5+fpaWlnJycqSDANQHGxubc+fOvX37lnQQABAbDJFIRDoDgDRKTU11cXEJDg5ms9mks0imwYMHUxTF4XC+v0ooFAoEAllZ2UpvyOPxtm/f3qNHj7rNJ5W8vb25XO6iRYtIBwEA8YB5KgAZfn5+1tbWKKl1Z8yYMSwWi1eZ8vJyoVBY6VU8Ho/JZLZv3550fMlkZWV19erVnJwc0kEAQDygpwIQkJKSkpmZaWJiQjqIJLOzs5ORkanurdhstpWVFQ4TVkdUVFTMzMz8/f1JBwEA8YCeCkCAj4+PjY3Nj9Y7Q61QUVEZM2ZMdZ9kJpOJE9jWqYkTJyYkJGRmZpIOAgBiAD0VoL7du3cvNzd3xIgRpINIvilTpjCZ1XiXY7PZFhYWGKbWKQUFhUmTJvn5+VW8QsAXkMgDAHSGngpQ33x9fadNm/Ybq6ShulRUVMaOHVv1kSqGqfXDzMzs0aNHGRkZn38uy77m5WSkpT7sr6eoqgDwNfRUgHr18uXLoqKiIUOGkA4iLao+UuVwOJMmTWrQoEFdRwIOh7Nz504NDQ1K8CbBb6lp186D53rf4GpoqpTjADQA8DUclwqgzvFzbwYfDE98y9boPcJi/IDmTC6OmVqf9u7dGxYWVl5e/vPF5OXljx8/rqCgUD+ppF5RyvGtLmt3RaQUMlW7T5jv4rpgvLYK6VAAQDPoqQB1S5h1dNqgqcEZnwZFDE5LA6sFq52dTLUwtqsvHz58mDhxIo/H+8kybDZ7ypQpU6dOrbdUUq0sLWjmGMeAJx9VOo9xcnFbPElXFSv3AKASeGsAqFO8mE3OR99o2x+4ePN6pP86296MZP8Vo7t27O+wPep5Kel00kFZWdnMzOznW6myWCwLC4t6iyTdBBkH5swNSJUbsDryYXKYhyVKKgD8CN4dAOqSMP/R45ymFut2Ohj37W8yzdU3NvVh5JbpvUSJvktMunQcNPvQA9IRpYKVldVPtlLlcDiWlpby8vL1GUmK8eKvxH3gDFx9yH14q4rnuSh6HL5hntvJV0IiyQCAbtBTAeoSU7WNhipThvXfvv0N2o1c6nMj9X7En1N1Bcnxzz4STCc9lJSUxo8f/6Ozf8nIyEyYMKGeI0kxVmuNljIUg8n45tKS9HNb7Pp27D7BZc/OA2dwwioAoCj0VIA6JHi822LY3pfKhdejb1fYNlKxw6gV/vFpWdfX6JPJJn1+NFLlcDhTpkzBMLUesQ3mLBmhHOs53eVESoGQonhZV3c7GnbWMV3un8zUs9t+/u6Jma1IhwQAWkBPBagzvA/lgrzYq6nFab4zLdccvfe+4rpMBRWlygd8UPsUFRUrHanKyMiMHz+eSCSpJdNu5pGLflOVz83T/1/LTtpanY3n77vJ056y4eS9J7EHFw3VxOEwAOAT9FSAOqPQZ1HYg9QbPktHqr2K8LDSa99r0tpjDwuw5R0plpaWFUaqHA7HxsYGhwmrf4o6U1xXTvujjWze02clbce7Hk1KTQh0HtNR7n367StRUZdvZxThhQIA6KkAdYvVvM/0LWcepV7bv3CIavrxdZN6dtCf4hGeUkQ6mDRSVFScMGHC1yNVFotlZmZGMJI0Y8sUvZcbuMw/7lnyMfeJXQRJfsvGdlNr3l7faORI4z5arbQnbLvxDmUVQLrh+KkA9absVazfpvWbfS9mcNstuPxwxwCs9K93xcXFFhYWXC6Xoig5OTlbW1ucKJUGihJ32Vgsj8gsYzfXHW4+foiOavHDiAM+lz703xl7dm4nFul8AEAKeipAHSh8EPrX30evPytgNe2gP9RimpVx2y+H9edlXQs6UzRkpqmGzM/uAuqKr69vSEhIWVmZoqLiiRMnfnQQAKgvwtcnbPUnB71q3H/h7v1u5p0UP10seHHIwsDhen//RyFTmmHVH4CUQk8FqGXCvPNLh5vvTC5hMBkioVBEUQx2qwGzN3tvtNKW1lNycrlcoZAua3BLSkqmTp3K5/OnT58+btw40nH+w+FwZGSk78uL4Onmgd1W3u/hdvmim943Z2njXZ2vPdRf1/dlmE1DUukAgCysTgGoXQVRqx13P/mfzcGgrTY67LyU62EB+/b4nP17quGDf86eXt5b+k6XumfPnuPHj5NOUYkDBw4cOHCAdIr/NG/efOfOnWpqaqSD1C/+87QXfLmBDnP1Kr42GAwGg+K+ef1OQDWUvv4OABSFngpQu4S5x/Yc/UdzxgUv+14NKIpq1X3UvO6j7GcGzTGbGeg2e+uwRLfupDPWqxMnThw/frxJkya6urqks/xHKBSWlZXRajf/goKCpKQkZ2fn3bt3KyhI0+Cd1Ubzf0xBceEHAdX46zZaluq7NSRD1Nyoa0uUVACphfX+ALWJFz27vcnxQaH/BJp924F4Cc76/bcKl5U92EAoGgEJCQmrVq1q1qyZt7d3w4ZYdfsLfn5+AQEBBgYGGzZs+MlZXiWOIG3n0J7LX1qExh4Yp8akKIoSFqWEec5fuO1yjsrQv65HYkcqAOklPW+FAPWBIa8gTxWlPkzjV7iC082gRyNRwVsiqYjIzMx0d3fncDienp4oqVVha2traGgYHx+/d+9e0lnqk4zW7E3Le7/1t+pjaD1v8YLZVkadW+tO/PPyu/+N/vPUkTkoqQDSDD0VoDaxe44ZoSlM2j5jzeU33+w3VPY48d572Q5dSQWrZ4WFhc7Ozlwud82aNZqamqTjiAcGg7Fy5cqOHTseO3YsMjKSdJx6JKfnfPLUn2NUHx/bs2PXvqOxb5r8YbMuJCH51LJ+qkyKoooeh2+Y53byFV12xQOAeoP1/gA1IMw9v8njagv7lbY9VP69KO/cQiPz3Y8ErQwdli11mjqic0MmP/eS2wTzzc+HBdwNsWxONHF9KC8vX7JkyYMHD5ycnMzNzUnHETP5+fmzZ89+//791q1bu3eXrq2Z+YWvMnM/Nmip0ULp8xC1JP2cl4f7jsMJOeVKJntTIme2IpsQAOoZeirA7xOkbR6ovTKhTYWD9gtfx2xxnLnh1LMiEYOt1FRNRZiX/ZbfepLflaApbaRgl5BNmzZFRUWNGjVqyZIlpLOIpadPn86fP5/NZnt7e7dqJaXNjPfyyn5P9y0B17K47Fb9rJe4rXYcqkmjHd8AoF7IrF27lnQGAHHFbNihq0ZjHUvHCW3/2TFUb9aptyodu2urKSi16T9pprVxW0VRWWlxMY/ZvPvYBbv8No1vI0s6cd07evRoSEhI9+7dXV1dpWlnoNrUuHFjDQ2N8+fP3759e+jQodJ2JgJ+7k0fFwdLh7VH4rM53SydvY8EbrIb1K4RtlMFkEKYpwLUBu7tv6ymukWkfmA00hk319l1oUW3RlLY0W7cuOHq6tqyZUsvLy9lZWXSccRbUFCQj49Pr169Nm3aJDXH/xe+OjZr6Ay/xx8YDbuOm+eyZpG5TsN/X0jCd49iHsnqD+ggfccgBpBeUvhJClAH5PQWhD1IveGzZHiTzPD1lr3b957sfvxhgVTt95GWlubh4aGgoODp6YmSWnPW1tZDhw5NSkravXs36Sx1jpt6cpPLrqt5VOM26mpapsv9454lH3Of+F9JpSj+vb0zxhkbzQjJkaqXFYCUwzwVoIaKY7evOK+5dK2ZpgxFURQ/96b/Zo/NB8+nFcs06Wkxf7XLArPOSqRD1rl37945Ojq+fft28+bNvXr1Ih1HQpSVlS1evPjRo0fz5883MzMjHafulN1YomO4I6PH+rtxq7V/ODrmJ7n26rtZ3v3ujVWdpWS+DCD1ME8F+C2Ft4L2RjwuogRpB9es9Y9OKfn3Cx9LrZ/D9rMPn8R4zxuslHp0zcSxa4gGrQ9lZWUuLi5v3rxZsGABSmotYrPZ69evb968+e7duxMTE0nHqTvsvot3eK7e4mnT4Sf9syQ1Pvm1QPg2942g/pIBAFmYpwL8BuEr7xHtnS7ym/cy1Hh1JXvYsft+Yxt9vxgv61rQmaIhjqYa9R+xPnl4eFy6dMnMzGz+/Pmks0igjIwMJycnJpPp5eXVunVr0nHqQdG9w3vi1WfNGvD5RSXISwze6r7B++yz0iZDtl08s0BHuvYsA5Bi2N8f4DcwlLoZ/qHGy0yIvvToPcVmycn/r0v39qoVPzxZKho99TpI+KmYAgICwsLC9PT0Vq1ahR3860KjRo3atm17/vz5W7duDR06lMPhkE5UxwT/HFtis+QUc5StYbMPD0I3OllNXXbg8jNB27HL94d4Tesk6Y8fAP6DeSrA7xLmn5imaxndsKvs87v/cDmt/piyxGX1rOGaChRFUaXh03tsbLX/qscgBdI569LVq1fd3d1bt269Z88eRUVF0nEkWWhoqLe3t66u7tatW1ksCT9GU8nVBT2HBTcZb8S9dDI5X9Cg3fCZK9csn2bQ/MvjFvAFMixspAog8TD8APhdovxidsfJHhG3Ux+d22bXm7rtu3hkl06GMzaHXks4v9P7zPNXbz5K9CssNTV148aNysrKGzduREmtaxMnTjQxMbl3796OHTtIZ6ljpc9jE9+w2O9uhhx/ojhgzp4rTx6d3Wb/b0kty77m5WSkpT7sr6fYThVA4mGeClBLStIi92zw2Hn4Vk6ZiKIopnJ/z9grK3QkdfCVl5fn6OhYWFi4bdu2bt26kY4jFfh8/tKlS+/duzd79uxJkyaRjlM3+LfXGgxel1TKbqbW4P1Hg933Ts9s/fnrnuBNQsBm9437o9KKWc31bTb67LXtIqmvLwD4RKKnPQB1puzpEUcDdXWDldEF/17UQMt0uV/c05QL+9zmzZi10uvs8WUSW1K5XO7q1avz8/MXL16MklpvWCzWunXrWrZsuW/fvri4ONJx6gZLx8Rqkp3nyXtPk3ZPbPUm/VkpRVFUUcpxt/G6HfvZb49+pzVx7fHkJ/EHUVIBpADmqQDVV3RlcV+Tv9/1W7n/wOpRbaXtnOMikWjt2rXXrl2bOHGio6Mj6ThS5+XLl3PmzBEKhbt3727bti3pOHWvLC1o5hjHgCcfVTqPcXJxWzxJVxUTFgBpgZ4KUF3CzL+HdV2SNTUy3mtohYNRCaVhHYWPj09QUFDfvn09PDywgz8RiYmJK1asaNq0qbe3d6NGlRwRTYIIMvaM7DHvkuwA56DDrsNb4YBUANIFnzEA1fUx/vptXhsTy0EV+wE30rGr/sKIXEk+rWN0dHRQUFC7du1cXV1RUknp3bv33LlzX79+7erqWlZWRjpOneLFX4n7wBm4+pD79yW16HH4hnluJ19J8isOQMrhYwaguhgsFlP45tmTvIqfjrId26ncP3zilsT2hkePHm3ZsqVRo0YbNmyQl5cnHUeqmZmZjRs37tNfhHSWOsVqrdFShmIwGd9cWpJ+botd347dJ7js2XngTA6hbABQ59BTAapLbtC4Ec2Kolzttsa//6aqCt7k5QtlZdmMH91SrOXm5rq4uFAU5eHh0bx5c9JxgJo7d26vXr0uXrwYFBREOkvdYRvMWTJCOdZzusuJlAIhRfGyru52NOysY7rcP5mpZ7f9/N0TM1uRDgkAdQU9FaC6mE3NN++a1q4weqVRzxGL9se8KKUoiqIKE3eu8U9XNRxhIIGny/n48aOzs3NBQcHy5cu1tbVJxwGKoigZGZm1a9eqq6v7+Phcu3aNdJy6ItNu5pGLflOVz83T/1/LTtpanY3n77vJ056y4eS9J7EHFw3VlLYdGQGkCvajAvgt/OzojXPmbDqdVkKxFNXaajYuz07NLFQ12XPt1KwOEnaaHKFQuHr16vj4eGtra3t7e9Jx4BvZ2dlz5szh8Xi7du3q0KED6Th1pSh+p52De1hKsUrXcfNc1iwy12n475hF8Dou6Ng/PWwtuuFcEwASB/NUgGrg5z+OPXv67LUHufxWQ11PPUi5enC19eAODUrevme1NVnsF31E4koqRVH79u2Lj48fNGiQnZ0d6SxQUatWrdzd3fl8/urVq9++fUs6Tl1hyxS9lxu4zD/uWfIx94n/lVSKoj6mRR9wmzLCcu8Tid0yHEB6YZ4KUEXFyXvsJq88/rRYRFEMWVVt03lb9qwZ2VLSv+tFRkZu3bq1Q4cOu3bt4nAkcJMGySBdfyZhXvx+tzWH3pr5HnHsLENRwneXlhiO9lVZe+PK8q44+D+AJJFZu3Yt6QwAYqDg/MLh004pW3lsXj1jTC/l7Ljoa1nq5rOMW0l0T7179+66desaN268fft2ZWVl0nHghzp06FBaWnr9+vWsrKxBgwYxGJK5Mx9FURQ/PXCakcWf51P/SU0u6Go7TluBwZBv27/zm8N/7kttP32CTgPJfewA0keiP2MBaosw6/C2wPwRW8MPLLGeYG5t2o75UdV0ydzeLIqi+E/OHbmWLYFrHLOzs93c3FgsloeHR5MmTUjHgV+YPXu2gYFBTEyMn58f6Sx1R5BxwGn+kWzNaQcv7jMThG3clfzppafY38a8U2F0+KUSwgEBoFahpwJUQdnd2/fLuw4e0opJUVT+qT93J7ebucqyJZOiKEFW5Ea7KetjeKQz1q7i4mJnZ+cPHz6sWrWqY8eOpOPArzGZTFdXV01NzcDAwEuXLpGOU0feXYyIKem2JGifvbGdy5wuT7w9Q3L+Ozpc6dvX73HQfwBJgp4KUAWMBgpywrS7dwopin9vz59h/DEr5/f+tBFgUULCI5Fm+3aStFWcQCBwd3d/+fKlnZ3doEGDSMeBqlJQUPD09GzYsOGmTZtSUlJIx6kLTAaTIdu6XVs2RbF057lM5ET+uSOeS/GfH9kcmCJs1aVbc3yqAUgSvKIBqoDTZ7yp+psji+x3X/Lf4PWos+OqCZ8+DoUvjvpfKO1hYqIhSbv57969OzExcciQITY2NqSzQPWoqamtX7+eoigXF5fXr1+TjlPrGhoNN5C5EXI0Q0BRVKNRKxboZx1YNnum8QD746+amKxaNFDS9yEDkDLY3x+gSoR5UUuGWvx1v4SiOL2dL0W591OVEb6/tc1y7OoHgwOTgiepScqXvpMnT/7111/a2to7duxgsyueUR3EQnR0tKenZ7t27f7++29JO8NtSZzroGHb8/VsbMd0UXyffGxvwK03AoZCezPPIJ8F+g0piqIEfIEMS5K+OQJIL/RUgKoSvovbPX+229EHBUKGQtPWrZTLX2e+4mrYBF7xm6guIS01MTFxxYoVTZo02bt3b6NGjUjHgd938ODB4ODgP/74Y926dUymhPz//ETw6ryH06KdkU8KykUM2Ybt+0+YvmDp3LGdFCmqLPvaQc+1W8IYC2MuLJDAYxkDSB30VIAf4+feDD4YnviWrdF7hMX4ARoKFMV/k3TC1/949K3U17wGmn0nLlozz6ilhGyb+vLlyzlz5ggEgj179rRt25Z0HKgRkUjk5uZ2/fr1yZMnz5o1i3Sc2sd79yLzDV+5VZsWSjIURQneJARsdt+4PyqtmNVc32ajz17bLhLywgSQZuipAD8gzDo6bdDU4IxyEUVRFIPT0sBqwWpnJ1OtBqST1YkPHz44Ojrm5ORs2LChb9++pONALeByufPnz3/27NmKFStGjBhBOk6dKUo5vtVl7a6IlEKmavcJ811cF4zXViEdCgBqhUStDAKoRbyYTc5H32jbH7h483qk/zrb3oxk/xWju3bs77A96nkp6XS1jM/nr1mz5tWrV7NmzUJJlRhycnIbNmxo3Ljxtm3b7t+/TzpOnShLC7Lt02fi+ojslmOcg28/TTyyBiUVQIJgngpQKeGr3UPbebYOeeY35vP8tCT9nLenx47guFdlnP8NmOax+69pOpKyb/GWLVvOnj07cuTI5cuXk84CtSw1NXX+/PlycnLe3t4tW7YkHadWCTL2jOwx75LsAOegw67DW2GvPwCJg3kqQKWYqm00VJlf7zTcoN3IpT43Uu9H/DlVV5Ac/+yjpJydMTQ09OzZs7q6uosXLyadBWpfx44dV61a9eHDB2dn55ISyTpdEy/+StwHzsDVh9y/L6lFj8M3zHM7+QrH/QcQZ+ipAN8TPN5tMWzvS+XC69G3K5xnSrHDqBX+8WlZ19foS8TwJi4ubu/evS1btnR3d2exJGS/E6FAUNVyUo1FK7lxToSr5eQVx18Kfvsu6oehoaGtre2LFy/c3d0FArqnrQZWa42WMhSD+e13xpL0c1vs+nbsPsFlz84DZ3JQVAHEGHoqwPd4H8oFebFXU4vTfGdarjl677tTMSqoKElCS33+/Pn69es/ncRIRYX+G/XxH/vPMjU2NjIyMjYeMmzkmInTF67bH/Wk4Js/Dy/aqZ28nLpdxK8nh98tKih9n19UVuU8wrw7Z0+cOH07Rwya37Rp04yMjG7fvu3l5UU6S+1hG8xZMkI51nO6y4mUAiFF8bKu7nY07Kxjutw/malnt/383RMzW+FjDkCM4QUM8D2FPovCHqTe8Fk6Uu1VhIeVXvtek9Yee1ggWXOZ9+/fOzs783g8Nzc3DQ0N0nGqgv/k4vGoq3eyeZRIJCz7kH3v7H732SbdOg9cHJ7B/3chhnILTU3NduqNfj0crrCoMGvPKLXmukuu8H5xOzG1YsWKzp07h4WFRUREkM5SW2TazTxy0W+q8rl5+v9r2Ulbq7Px/H03edpTNpy89yT24KKhmnKkEwJAzYgA4MfKc24cWDSyvRKTwZBt2stqfdijD6Qj1Qoej+fk5GRoaBgWFkY6S9V9DJuiypQ12PiE//kC/tvbPjN6qjAZ8jqLLxfU9O4FGdsHsmXUZ0dzq3iD8ntuPWVZnZfH82r6q+tLfn6+hYWFkZFRYmIi6Sy16EPcDvMuDZkMViMd8zUh998Lvr2aX86v/HYAQHuYpwL8DEutn8P2sw+fxHjPG6yUenTNxHFrrld9vTB9bd269dGjR2PHjjUzMyOdpQZkGve223vmgOX/yh56r/Z+LKAoihLmX/NatfKvy6//HX9z0yI8pg/T69Kpq4HpVKeFCxcuXLjIOeBe2TeL8h8dXrPE43SGQFQYv2/ZwoWLlm6NekVRFFX05PSOxVNG9NXt1LFT9z9Gz9gc9UKM/wOoqqp6enqy2ey1a9dmZWWRjlNb2DJF7+UGLvOPe5Z8zH2iTsMvH2xl2de8nIy01If99VQMts0AgO+hpwJ8hZ9785DHsnkLV28Nuv7iv4Okslv2n/XX+ZSUKwd27VjYT+y3TA0ODo6Oju7Zs+e8efNIZ6k5Zguz5Xa6LG7iqVNpAoqihNmXfbZt23c+k09RFCXMPmpnNGFddFn38TbmfVi3A//ete9I5MUrd/8p+2ZRwesHVy7Gpr4XiT5mJV26ePHipfi0QoriRi4yGr8mLENBe9Ao00HteAmHVpqNWRsnzhsGaGlprV69uqSkZNWqVUVFRaTj1AqOnuvFxFN/Tu3d+MvxOQRvEvyWmnbtPHiu9w2uhqZKOY7ACCCeSA90AWhD8PKItabsv3sOMzgt+07fdOZZMelYtSwmJsbQ0NDGxqaoqIh0lur6br3/Z9wLs9RlmKrWYR9FFVbG81M89GVZHeZf/fRn5KfvMFSQ7bzs5qcV9RXW21ey3l/w6tbFxNfl//5YfHVBBxZLa8G1Sm8vTg4fPmxoaLho0SI+X+LWiX94dGyNWZeGMgyGbOMek91PPKrxFiEAQAzmqQCfScMJqJ49e+bp6amkpLRx40ZFRUXScWqLTKMmDZmi0uKS7/Z0K8/IyBKyu+j3/nSyBplWul2aCZ8/fFTVo4gyW+gb92r2ZY+sBr16dGIJ3uTk8H92I3FgaWk5fPjw5OTknTt3ks5Sm3B6KgAJg54K8Ikw/9HjnKYW63Y6GPftbzLN1Tc29WHklum9RIm+S0y6dBw0+9ADcV7bS1FUfn6+s7Mzn89ft25dq1atSMepRcKSolIRQ6FBg+/e0Fjq6i2ZZal373EpiqIo/vNbd3KoZq01FKpx5wUPT/3tOsd6vOnwIcajt8aXU0LJOALpkiVLdHR0zpw5c/z4cdJZaokg48CcuQGpcgNWRz5MDvOw1FXFRxyAmMOLGOATCT8BFY/HW7169du3bxctWtS9e3fScWqVMP9RSrZARrND++8ORcXSNh/Xnfl416ThdivcnGebjl6fIP/HvDmDqnrCW/5Tv0k9eo1f4Zf4oUHLdp06d/qfsjj/L/iGrKzs+vXrW7Ro4e3tfevWLdJxagNOTwUgcdBTASiJPwGVSCT6888/U1NTzc3NTU1NScepZYJnwUdv8lgdho7o9F1P5V7ff+hu0xGzJrR4GRNxNllksOjQ1Yhl3ar6lyw9v9kl/B9Nx4gH8RGBB7x27942pauEnLOLoiiKUlFR8fT0lJOTW7duXUZGBuk4NYbTUwFIHPRUAEriT0Dl7+9/9epV7Rs1EQAAIABJREFUAwMDR0dH0llqmSAn2sV2ww1us1HL5vT+rkIKshMSX1BqvaZtOHoxPvnurQtBHlN0f7y1oixLhhKVFhf9u2u4sDAz862wge7Afo0+vVUK898VSljNadOmjZubG5fLdXZ2LigoIB2nZnB6KgCJg1csACXZJ6C6dOlSQEBAmzZtXF1dmUzxf8mLcmJ9Nm3cuHGDu/M8m6FdtEduSmT1XRG010b9+8cmozHCfGCjexsMmjVuqd5Gq6O2rt5gs1kbTz2tdL84ZqPW6ipUwdVg/7hHSRejk/KZqtqdWjGLY48celAk5Ocl+s4cszZW8o5vpK+v7+jomJub6+rqWl5eTjpOTeD0VACSRvw/tABqCat5n+lbzjxKvbZ/4RDV9OPrJvXsoD/FIzxFrI8wmZKSsmnTJhUVlY0bNyooVGPvIVpiqjZvIit4EblltfPq1W6ef4fcePs/k6V7L9+97Dmk2b9vZgy2vBxLRkGew6QoiuIoq8gxVfUsnWbb2UwcN/KP9sLkoNXmQ+aE5wkrLkpRCkNmOeopvQpz7Ne1t8mS8AyKM2jF1pk6paeddFXlFFoM2vDGfNcqA3k5BTlmJb9KnJmbm48ePfrhw4fbtm0jnaWGFHWmuK6c9kcb2bynz0rajnc9mpSaEOg8pqPEHN0CQLowRCLJmw4AVEPhg9C//j56/VkBq2kH/aEW06yM2zagyl7F+m1av9n3Yga33YLLD3cMEMuV/m/evJk9e3ZxcfG2bdt0dHRIxyGgIGSy1pTo/gcfhNm2/NwlBY839NVd849NxHMf08qGa2VvHsTGpRawNfQG6akrUBRFCd49uXkzJZ/Tts/A7i2qugOW+BEIBMuXL79z586MGTOsrKxIx6kJ3u31po6Jvee7Lpvy1ZH/+e/Tk+8+yxc17qjXS1NJ7L9aAEgLwsdvBSBJ8CZqUQ9FBsVgMj/vesFgtxo4P/hRiUgkEom4L2MOep3JFM/joJeWltrb2xsaGp4/f550FlL4qRsNZGXU7SO/OqPBu7MzNFmyPdbcLf/x7aTVhw8frK2tBw8efP36ddJZapHgbYLv0jE6jT+fw4PBVOo4fmtsvoB0LgCoAsxTQYoVnJ3Zc1wQx/LvoK02Ouy8lOthAfv2+Jx9WtLY0PPs6eWfjw0vjoRC4Zo1a27cuGFlZTVjxgzScYjh39s4aKBLgmxXE7Nhuv9rICzIiI8Mv/pPS/sjV73HqmGk9r2srKw5c+bw+fy///5bS0uLdJyaK0rcZWOxPCKzjN1cd7j5+CE6qsUPIw74XPrQf2fs2bnfHyECAOgFPRWkljD3wOgOTmnTL9z5y/C/Rlr6JGiO2czATO01cfFu3cX1U2zfvn1Hjx7t37//unXrGAyJOeLn7yh8eGLvvmNX7qa/LuKzlJq11R1sPnPWhG6NUFJ/5M6dO8uWLWvcuPHevXtVVVVJx6kJ4esTtvqTg1417r9w9343806ft1EVvDhkYeBwvb//o5ApzfAfAYDW0FNBavGiZ7c3OT4o9J9As2+3U+QlOOv33ypcdvPBht6EstVIVFTUpk2btLS0du3aJS8vTzoOiJ+IiIgdO3Z07tx5586dbLZYbpxNURQleLp5YLeV93u4Xb7opvfN2hHe1fnaQ/11fV+G2TQklQ4AqgJfJUFqMeQV5Kmi1IdpFc/Vzulm0KORqOBtPpFYNZSamrply5YGDRp4enqipMLvGTNmzPjx4x8/frxlyxbSWWqA/zztBV9uoMNcvYqb8DAYDAbFffP6nUScARdAkqGngtRi9xwzQlOYtH3GmstvvjlQatnjxHvvZTt07UwqWU2kpaUJhUJFRcUmTZqQzgJi7I8//qAo6vnz56SD1ACrjeb/mILiwg8V2mhZqu/WkAxRc+2uLWUqvyUA0AV6KkiT4vSYyJj04s8/KQx0+ctRu+zWnya9hszddfZxgZCiKH7uJfe5fz9sPNph4v9IRv1dI0eONDAweP36tZ+fH+ksIK6ys7Pd3d05HM6KFStIZ6kBmfYWk/tz4rw8Tuf++01UWJRyfJWJ8fzIPFXjFYuH4LD/AHSH7VNBWvBSA2aZOQWmq5hsjw536vx5Dynh65gtjjM3nHpWJGKwlZqqqQjzst/yW0/yuxI0pY2YzlpKS0vnzp2bkZHh4uJibGxMOg6ImeLi4jlz5mRlZa1du3bQoEGk49QM97aH0VC3uyp/jB/Tu3F57oMr564/KxDIaY52D/Jb2ObBgb0XmUPmzBjYQkxf6wCSDz0VpILwXdT8fuMOcIdvPOK3sK9qhfUIvKzYwwd8j19IePq2XKXdgImLXBeO0BDbnUcoiqJyc3MdHR1LSkp27typra1NOg6IDYFAsHLlysTERDs7OxsbG9JxaoHwTcy2+Qs3h997WyZiyDZs12/MVKdl8y26qlDFSfvnz3IJfCA/+q/Iw7O7YrYKQEfoqSAN+HfX9jH4P3v3HQj1/wdw/HPbzMpoSKSoVEppUNGiQoNKZkbSzkoomwhpa9mlfEt7Dy0NFZEKJTQUoci6Ozd+f+jn27dkxb3vzuvx15cbn6f48rr3fUYo2+VWWtAEXr92aHu9ePHC2dlZREQkKipKVlYWdQ7gDTt37jxz5syMGTO8vLxQt3QlRvWn4tIG4b4KfUT/c7I5WuGJNUbLElnLLz3cMU0MVR0A4I9g/1TQAzByUs7kEHUd12r+eUilVVfTOJjU/dTU1Nzc3L59++bl5dXQ0IA6p/uxmExW2/cCrThz5syZM2eGDRvm5uaGuqWLEcX6KqsM+mVIxTCMorRod4zT0Lf7N+7I/vXEHwAALsCrpzEHoAPobwvesSXGK7RybnfafS9Nmy+ed49ZK/DPnmozZ8589+7d0aNHAwMDAwIC8Hiuel3KfHd0nUNMbmNL7+jgyGoO0TuW9Gt3MO36atW5B+kWKa9jjDp+GTFGbtxq18SCBjYbh8MTyELickpqE/UXL56lKt7+fzJm/bcqprCUKK/uMPL06dPdu3fLysoGBgby8DlTW0Ire/9NbIDcH97YFxhrbzUhzD3lRLbXKA34kwgAl+Gqv1sAdA+CaC8R9pecrOI/nyyRICUlVJb+6A2/LanY2dlNnjz5wYMHBw8eRN3yq593Ovr+Nv32nSdFtT/d2qHnwvXqo6ioOEheolNzBiPvxskrtzNLaBibzaJ/L8m+dNDPcc7IoVOcTxe18yeC9WGvgZzsKJdbvLkq//79e19fXzKZHBwcLCEhgTqnKzGygnSGGu15+edvJF66jwyFWZT3ms7BLABA+8CLR9ADUDSna0sePrHbJ9ksyUy+xRdnjI8lX1ii4r34ZzG1CQ6H8/T0XLduXXJy8sCBA/X19VEXNSMMtNh31aLpv2m31w2bEUVetOvKtgmdWskjj9+cmr/573pUbWKub1IhYBiGMSufxnuscI7eYT4Pd/FehG47dlxkMpkYxmDw4nnjv3//7uHhUV9fHxQUpKSkhDqni9FfZmTX9TKR/PPVg6lPH2Y3YCJiorBuAwD3gf8vQU8gMX/junGCn06snLc2pbCFBS9W+fmkS+XS47WG8+ErNwEBgaCgIElJyYiIiOfPn6POaS9W5Z29mzYGn3nbPPkx318Kd/fYc/vfqzIw318Kd9+0/34Vxqq8u89j087UMtaPx+7ZtDkxm/b18aH18yaOGDpi0rwN0U+/tXv/VYLUWNv9Fw4t7U9/EeUVlduUUJN3PtLZXH/iKFUVVXUtw+XbrrxrWoBjvEzydgk8X8RkVz864LZhg5Nr+JVPrT6CizAYDG9v70+fPq1YsWLixImoc7oeXlxSnP2xuPhP66m16aEecW9ZvXX0JsER/wBwITYAPQItP3axIhmHI0iom4ecza1i/ntTQ17c4oEkgTHeT2jo+rpbXl7erFmzjIyMSkpKULf8jnprrRKBqOr28KfvQM1pK1k8adSWZ41NHzMKt0+h4HAisw9+/vHNY7zZpkUm9LO/VMduzPYZQyIO3fiIxmazmz4iTbCwGSEqPmTaYrP54/qScXhpo8NFjBY333DKXBJPmrA17783N2b7jCHhfny+4YJdH6KIwsQFtmtdnBwWasiQcAIjPR5Q2Ww29eYmbTWVviJ4HElKcdjw4WrqxrtftfoILrJt2zYdHZ3Q0FDUId2mMmmRFLGfxcky5m830YoveEyVIeDwErrbXzQiaAMAtAXmVNBzNL674DVTnoLDMBxRXHmy8XLXzd5e6y2nDe6Fx/catyWtBnVgN7t165aOjo61tXVNDbd9qS3Nqeyqf0yl8CTNoFcMNpvNZpYdniuCwzCc+MLESjabzWYz3++eJkiQsz5bw25pTsVwAirWR99Q2Ww2uzE3bIowjjwpNL/Fzf9hTmVTr62QJ+AlLU41sNnMT+k3npY1zzK1t9cPIRKV19/98TGzaPsUMkHe8fq/Y+ifHsFFr4aSk5N1dHTWr1/f2MjHUxr1qe84IWJf/a13S5u/wQ3v78V4LBguTsBhePGxzhc//z7EAgC4AbzvD3oO4oC5gZeepZ8MspkizyxKSzkUHugftPPInVK5eQGnz/lqiaAO7GY6OjrLli179+6dv78/k8n9O1KKTTeY2ouZfe3KeyaGYXV3bj6iq03Vkqi9d+V2DYZhrPJrV57QJacZ6rb8jSMo2u3bZ6ZMwTAMIw42nD2CyCx+XdChAoJEb3E8u762joVh+D6a0zVkmvcLEdYYrUpkfvn8+c+P/tMjuOVYvYcPH+7fv79v375+fn5EIh/u8fJ/FA33mPA5+JueusoDR0/V05+hPVJeRmmK7dbTr2j9prkcvX87Yo4c/C0EgDvx8e8mAFqwMSh+9Wqv2557Pmc/Ss8tqcVJKGpoT1TuwOmHeJq1tfX79+9TU1P37du3du1a1DltEJ9pMEXkzI0rV8rWr5R8cONejZKpu93bpQ63L6dRF85uuHn5fr3YTMNpoi0/GkcRFm7+BYcTFxPFsam0jh2Nz6qrqWfjhISFm348WFUvzicmX01/+a78O5Ve9qIRY7Ux7nf8EZxSWFgYEBAgJCQUHBwsJsbvJ7gXUFuZ8kh1j//Ww2fvp2Y3MIkifYfpGs1d6uC4aLwsmQXn3QWAe8GcCnqQR48effv2TUlJCcNwfUZNmz8KdRAK7u7unz9/PnXqlIKCgpGREeqc1uB768+ZJHThwZVrlbaqN++WSWvpTtEbNJ58PvVyOm3y18v3akSnGsxs30mUcDgc1tGTXbEqX74qYRKGDxlMxDDG69ileo6nyqQ1ZuiOGtSXwia9T3tZ39rDO/4ITvn27ZunpyeNRgsJCVFQUECdwxHEfrobDuhuOIAxqPUsshD5xyvT2NjY79+/r1+/Hm0dAOBPesgqEgAYhmGxsbE2NjZNE0uPRSaTAwMDpaWld+7cmZGRgTqnVXjZ2XM1KbVpl69l3bhdKDxh2iRh2VmzNAjvb15Ov3XpVqWQ1ly97jvXJ/PN0eMPaMQhM/VViVj91W2bT39UXHku59G5xEP79uyJMFdr/WV+xx/BGXQ6fcuWLWVlZWvWrBk3bhzqHI4jCjQPqRiGLViwIDU1tbS0FGERAKAVMKeCniItLY3FYk2ePBl1CHqSkpLBwcFkMtnX1/fDhw+oc1qB7zdn7jhS1e3E4Es5BA3dqb0wwgC9GWq4N5e2Rd0oo0ycO1u6m36HMT9f37ws6D5VxsBt1VgixqouLq5gCY+aMunHRc1YlV+r//N2MYlIwNj1tTX/X7Jt+xGIhIeHv3z5ct68eQsWLEDdgp64uLiRkVF8fDzqEABAy2BOBT0Cm82OiYmxtbXt4YupzZSVlb28vOrq6jw8PGpqalDn/BFBYe7s0cTya+cfMdV0dOXwGEYcojddmf3i0pV3pPFzu/LwF/bntOjQrVu3Bvl5rrWcOXzY7NCnxInuR/ZbyuMxDC85TLUfvjbtWHxODYtR/jTGwcg37ee9CPASA+TFsKrbR+Mevsy4cT2jss1HIHH06NHr169raGhw/97JHLNkyZKHDx++f/8edQgAoAUwp4Ie4fbt2wICAnx5GvNO09bWXr58eUlJiY+PD+rD/3ECwoJEgpAg5bffSARlo4XjRfE4QTX9WcoEDMMw8mhDQxUBHF5Me6FB///fH0cWFPj3Cf77EYZhGJ4oKChAEBRs+UzueEnZ3iTmu4thXp5eXj7Bu5PvV/Sf47o/NSs1eIZM03NQprqHO4yoP796lKSAUJ+pQV9MdnlMEBQQan5CoRkrVo4T/XRq5SS1sXNcThf9+RHIfuvevXv38OHD8vLyvr6+BAK/XXqt00RERBYvXhwbG4s6BADQAhybjfwVPgDdi8Vi2djY9NC98doSEhJy9epVAwMDFxcX1C1cj/k178GDV5UUpfFT1PtQfr+d/iUn7WF+FVlh3NRx8kLteQTnvHnzZu3atWQyOSoqql+/fihTuA+VSjU3Nw8NDVVWVkbdAgD4D5hTAf+7fv36uXPndu/ejTqEGzU2Nrq4uOTk5KxevdrExAR1DugWlZWVjo6O3759Cw8PV1dXR53DjU6dOvXkyZOtW7eiDgEA/Ae87w/4HJPJjIuLs7OzQx3CpUgkUkBAQJ8+faKiotLT01HngK5Ho9G8vLwqKiqcnJxgSP0TQ0PDoqKiFy9eoA4BAPwHzKmAz129elVWVhb+PLdCTEwsODhYQEDA39+/qKgIdQ7oSmw2OyQkJD8/38TEZO7cuahzuBeJRLKysjp8+DDqEADAf8CcCvgZg8FISEiwtbVFHcLtBg4c6OPjQ6VSPT09q6qqUOeALhMXF3f79u0JEyasXLkSdQu309PT+/r169OnT1GHAAD+BXMq4GeXLl0aMGCAmpoa6hAeoKmpuXLlytLS0i1btjQ2NqLOAV0gNTU1ISFh4MCBW7ZswePht30bCATCsmXLYEkVAK4Cv7kA36LT6YmJibCY2n4mJiaGhoYvXryIiIhA3QL+1qtXr0JCQsTExLZu3SokJIQ6hzfo6uoyGIy0tDTUIQCAH2BOBXzr/PnzQ4YMUVVVRR3CS9avXz9mzJirV68mJSWhbgGd9+XLl82bN2MYFhgYKCcnhzqHZ+BwODs7u+joaBaLG64dBgCAORXwKRqNlpSUZGNjgzqExxAIBF9f3/79+x86dAhWlXhUQ0ODp6fnt2/fXF1dYaeXjpo4caKQkNDNmzdRhwAAMAzmVMCvzpw5o6amBmft7gRRUdHg4GAREZGgoKCCggLUOaBj2Gx2UFDQ27dvzczMZs2ahTqHJy1fvjwuLg71RdoAABgGcyrgSw0NDcnJybCY2mny8vJ+fn50Ot3T0/PTp090Oh11EWivQ4cO3b9/X1tb297eHnULr1JXV5eTk7t06RLqEAAAzKmAH6WkpGhoaAwcOBB1CA8bM2aMg4NDeXm5ubn5+fPnUeeAttXW1urq6h47dkxOTs7NzQ2Hw6Eu4mH29vaJiYnwCg0A5GBOBfymtrb25MmT1tbWqEN4WGVl5Y4dO2JiYppOZgQ7qvKE5ms0VFdXL1682N/f/+nTp/DmdecMHTp0yJAhZ8+eRR0CQE+HY7PZqBsA6EpxcXFlZWXu7u6oQ3hSaWlpfHx8amoqi8ViMBgYhuFwODabbW1tvWzZMtR14I8+f/7s6OhYW1uLYVjzsepNp6PS0dHR19dXU1ODFdYOKSwsdHV1PXr0qKCgIOoWAHoumFMBX/n+/bulpeWBAwfgXDwd9fHjx5iYmPv37zOZzJ8X4Xr16iUpKVlcXOzt7a2rq4uwEPxJXV3dmjVriouL7ezsjh49SqVSf74Vh8MJCAiQSKRZs2bp6enBwYXtFxgYqKCgYGlpiToEgJ4L5lTAVw4dOlRTU+Ps7Iw6hJcUFRUdOnQoIyODwWD8ftrIsWPHOjs7Ozo6UqnUnTt3wvlouQ2TyfT09Hz8+HHTmreRkVFNTU2L9yQQCCQSSUREZPbs2bNmzerfvz+HU3lOSUnJqlWrjhw5IioqiroFgB4K9k8F/KOqqurChQuw+NF++fn5Li4uK1eufPToEZ1O/31IJRAII0eO7NOnT2BgIIvF8vLyKi8vR5IK/iQqKurx48e6urpNO2bo6Oj86f19JpNJpVIrKiqOHTtmb29vYWFx7Ngx+Ia2ol+/fpMnTz527BjqEAB6LphTAf84duzY9OnTpaWlUYfwgJycnDVr1qxfv/7Zs2c0Gu1P76tQKJQhQ4ZgGDZixAgXF5evX796eno2NDRwNhb80fnz51NSUoYOHbpp06amz0ybNq3N/SkZDAaNRispKYmLizM3N7e3tz9z5kx1dXX39/Iea2vrCxcufP36FXUIAD0UvO8P+ERlZaWtrW1sbKykpCTqFq729OnTgwcPfvjw4Ze9GFtEIpGSk5MlJCSaPjxw4MDx48e1tbX9/f3hoBzkMjMz3dzcpKSk9u/f3/xjz2KxDAwMOvpagkwm0+n0I0eO9OvXrxtKeduePXtYLNa6detQhwDQE8F6KuATR48e1dfXhyG1FQ8ePFi2bNmWLVvevHnTniEVwzAymdw8pGIYtnz5ci0trbS0tMOHD3dbJmiXjx8/+vj4kMnk4ODgn3/s8Xj8pEmTOvpsOBzO2NgYhtQWWVhY3Lx5s6ysDHUIAD0RzKmAH3z58uXmzZtLly5FHcK9dHV1vby83r17184JtYmSktLPH+LxeC8vr0GDBiUlJV27dq2rG0F71dTUeHh41NbWenl5/X78/owZM5rOSNVOFApl4cKFa9as6dJG/iEuLm5kZBQfH486BICeCOZUwA8SExMNDAzExcVRh3CvVatWCQgIdOjNehwON2rUqF8+KSgoGBwcLCEhER4enpOT06WNoF2YTKavr+/Hjx+XL1+ura39+x00NDSazn3bHhQKxczMzMHBoUsb+c2SJUsePHjw4cMH1CEA9DgwpwKe9/nz57t37y5ZsgR1CFdbtGjRwYMH5eTkyGRyOx8iKCiooqLy++dlZGQCAwMxDNuyZUtpaWlXVoJ22LlzZ2Zmpp6enpmZWYt3IJFIY8eObc9TUSgUW1tbKyurLg3kQyIiIosWLYqNjUUdAkCPA3Mq4Hnx8fELFizo1asX6hBuJy8vHxsbq6WlJSAg0J77MxiMwYMHt3jTsGHDNm3aVF1d7eHhUV9f36WZoDUpKSnnz59XU1NzcXFp5W6zZs1q861/CoWycuXKxYsXd2kg3zI2Ns7Ozi4oKEAdAkDPAnMq4G0fPnx49OiRiYkJ6hDeQKFQvL29V69eTaFQ2rwzHo+XlZX9063Tpk2zsrIqLi4OCAj4/cSroDs8fvx43759cnJygYGBJBKplXtqamo2Nja2cgcymbxhw4Z58+Z1dSPfEhAQMDMzi46ORh0CQM8CcyrgbfHx8SYmJiIiIqhDeImBgcGePXukpKRan3UGDhzY+vMsW7ZMR0fn0aNHUVFRXdkHWlJcXOzn5ycgIBAcHCwmJtb6nQUFBYcPH/6nWwkEQr9+/aZNm9bVjXzOyMiosLDw5cuXqEMA6EFgTgU8rKioKDMz09jYGHUI71FWVo6Pj5eXlycSiS3eAYfDjRgxovUnweFwmzZtUlFROXny5MWLF7shE/xQXV3t6elJpVK9vb0VFRXb8xA9Pb0WT/jftKauqKjo7e3d+por+AWJRLKysoKTsgHASTCnAh4WFxe3ZMmSNq++A1pUWlpaWVlpbGzc4j4AgoKCqqqqbT4JhUIJCgrq3bt3ZGRkVlZWN2QCrLGxccuWLZ8/f165cuX48ePb+SgtLa3fx1AKheLv7z9lyhRPT08KheLr69v+MwMADMP09fUrKioyMjJQhwDQU8CcCnhVQUHBixcv5s+fjzqEJ9XW1np7e69bt87R0TEiIqJXr16/LKyyWKymK6a2SUpKKjg4mEgkent7l5SUdE9vj7Z9+/acnBxDQ8MO7YctKir6y6lVKRTK1q1bNTU1MQwjEAje3t44HM7f35/JZHZxMf8iEAg2NjawpAoAx8CcCnhVbGysmZlZe44HAr8LCQkZP3580x6Kw4cPT0hIGDp06M/nAWAyme2/OtHgwYO9vLyaTz7fLcU91fHjx69cuTJ69Oj169d39LH6+vrN/4MICAiEhYWNHj26+VYCgeDj49PY2BgUFASjavvp6uo2NjampaWhDgGgR4A5FfCkvLy8N2/eGBoaog7hSceOHfv27duqVauaPyMmJrZjx45FixY1jzXy8vIduijA5MmT7ezsPnz44OPjA0NPV0lLSzt48GC/fv38/PwIBEJHH66trd10KgZBQcHIyMjfdzgmkUh+fn41NTWhoaFw0oZ2wuFwtra2MTEx8C8GAAfAnAp4UkxMjIWFRftPWQ+aZWVlnTx50tfX95c3+vF4vK2tbVBQkLCwMIZhrRwt/icWFhYzZ87MzMzcvXt3l+X2YAUFBU3fjq1bt4qKinbiGaSkpJp2Ud21a9ef9jYmk8mBgYEVFRXh4eFsNvuvinuMSZMmCQgIpKamog4BgP/BnAp4z4sXL96/fz9nzhzUIbynsrIyMDDQ09NTWlq6xTtoaGjExcX169evaS/GjnJ1dVVTUzt79uzp06f/rrSn+/r1q5eXF51O9/X1lZeX7/TzbN68OTIy8pcdVX9BoVCCg4NLSkoiIyM7vaGeZvny5bGxsfDWAQDdDQcvoAHPcXZ2njFjBsypHcVkMp2cnMaNG2dpadl9W6mqqnJ0dCwvL28+ZAd0FJ1O37BhQ25urpOTk5GREWc22tDQ4ObmNnjw4E7sCNszubi46OrqGhgYoA4BgJ/BeirgMVlZWWVlZXp6eqhDeM+BAweEhYUtLCy6dSvi4uJbt25tOv/Ru3fvunVb/Grbtm25ubkLFy7k2JCKYZigoGBoaGheXt7evXs5tlGeZm9vn5CQQKfTUYcAwM9gTgU8Jjo6etmyZZ04pqSHu3Pnzr179zw9PTt0dFTnKCoqbtmypb6+3tPTs7opkG6/AAAgAElEQVS6urs3x2cSEhJu3rw5bty4nw904wxhYeGwsLDs7OyDBw9yeNO8aOjQoYMHDz537hzqEAD4GcypgJc8efLk+/fv06dPRx3CYz58+LBjxw4/P7/OHY7TCRMnTnR0dPz06ZOPjw+cSb79bt++HRsbq6Cg4OPjg+TFmIiISHh4eHp6ekxMDOe3znPs7OySkpIaGhpQhwDAtwi+vr6oGwBor8DAQHNzcyUlJdQhvIRKpbq6upqbm0+cOJGT2x0+fHh5eXlaWlpFRYWWlhYnN82j8vPzvby8hIWFIyMjpaSkUGVQKJSpU6cePHiwpqZm1KhRqDJ4goSExOvXrz99+gT/UAB0k5Yv7Q0AF3r48GFjY6OOjg7qEB4TERGhoqKC5GgPJyenkpKSy5cv19XVGRsbcz6Ah1RXV0dGRrJYrICAgL59+6KNERcXj4iI2LBhA5FIXLp0KdoYLmdra7tq1ar58+dz7M0KAHoUON4f8AY2m+3g4GBtba2trY26hZecPXv2/Pnze/fuRXXhru/fv8+bNw/JpnmRu7u7vr4+6oofKisr169fP2/evEWLFqFu4WphYWHi4uLLly9HHQIAH4L1VMAb7t27h8fjYUjtkLy8vLi4uD179iC8umyvXr1iY2P379+vrq6OqoFXDBw4cMKECagr/iUlJRUZGbl+/XoikbhgwQLUOdzL2tra3t7e2NhYUlISdQsA/AbWUwEPYLFYdnZ2jo6O48ePR93CM6qrq1esWLFmzRoY7sHfKC0t3bBhg7m5OVymuBV79uxhs9lr165FHQIAv4Hj/QEPuH37tpCQEAyp7cdisYKCgnR1dWFIBX9JTk5u+/btiYmJly9fRt3CvczNzW/cuFFWVoY6BAB+A3Mq4HZMJjMuLs7W1hZ1CC9pOv24vb096hDAD/r27RsRERETE3P9+nXULVxKQkLC0NAwISEBdQgA/AbmVMDtbty4ISkpqaGhgTqEZzx+/PjixYve3t5wNQTQVeTl5cPDww8cOJCamoq6hUuZmpqmpaV9+PABdQgAfAXmVMDVmExmQkICLKa2X1lZWUhIiLe3NxzSAbqWgoJCWFjYnj177t69i7qFG4mIiCxatCg2NhZ1CAB8BeZUwNWuXLnSp0+fkSNHog7hDY2NjT4+PqampiNGjEDdAviQoqLitm3bduzY8eDBA9Qt3MjY2DgrK+vt27eoQwDgHzCnAu7V2NgIi6kdsmfPHllZ2cWLF6MOAXxLWVl569atYWFh6enpqFu4jqCgoJmZ2eHDh1GHAMA/YE4F3OvChQtKSkrDhg1DHcIbrl+//uzZM3d3d9QhgM+pqKgEBQWFhIRkZGSgbuE6RkZGhYWFr169Qh0CAJ+AORVwKTqdnpSUZGNjgzqENxQVFe3du9fPz09ISAh1C+B/w4YN8/f3DwwMzMrKQt3CXchkspWV1aFDh1CHAMAnYE4FXOrs2bOqqqpDhgxBHcID6uvrvb29V69eraioiLoF9BQjRozw8fHx8/PLyclB3cJd9PX1KyoqYLEZgC4BcyrgRg0NDceOHYPF1HYKDQ0dM2bMzJkzUYeAnkVdXX3z5s3e3t7wNvfPCASCjY1NdHQ06hAA+AHMqYAbnT59Wl1dXUlJCXUID/jnn3++fPmyZs0a1CGgJ9LQ0PDw8PDy8srPz0fdwkV0dXVpNNr9+/dRhwDA82BOBVynvr7+xIkTy5YtQx3CA3Jyco4fP+7r60sikVC3gB5KU1Nz48aNHh4eBQUFqFu4BQ6Hs7Ozi46OZrPZqFsA4G0wpwKuc/LkyXHjxg0YMAB1CLf7+vWrv7//pk2bZGVlUbeAHm3ixIlOTk4bN24sLCxE3cItJk2aJCAgAJfvAuAvwZwKuEttbW1KSoq1tTXqEG7HZDL9/f3nzp2rqamJugUAbPLkyWvXrt24ceO7d+9Qt3ALe3v72NhYJpOJOgQAHgZzKuAuycnJ2tra/fr1Qx3C7Q4fPtx0BhzUIQD8oKur6+jo6OrqCte4bzJmzBgZGZkrV66gDgGAh8GcCrhIdXX1uXPnLC0tUYdwu7S0tFu3bnl5eeHx8L8w4CIzZsyws7NzcXEpKSlB3cIV7O3tExIS6HQ66hAAeBX8kQNc5Pjx4zo6OnJycqhDuFpJSUlERISvr6+YmBjqFgB+pa+vb2Vl5eLiUlpairoFvWHDhg0aNOjcuXOoQwDgVTCnAm7x9evXixcvWlhYoA7hajQazcfHZ9myZaqqqqhbAGiZgYGBqampk5PTly9fULegZ2dnl5SU1NDQgDoEAJ4EcyrgFklJSbNmzZKWlkYdwtUiIyOVlJTmzZuHOgSA1syfP9/Y2NjJyamiogJ1C2KDBg1SV1dPSUlBHQIAT4I5FXCF8vLya9eumZmZoQ7hahcuXMjPz3d2dkYdAkDbTExMDA0NnZ2dv379iroFMVtb2xMnTtTW1qIOAYD3wJwKuMLRo0fnzJkjKSmJOoR75efnR0dH+/v7CwgIoG4BoF1MTU1nzZrl7OxcVVWFugWl/v37a2trHz9+HHUIALwH5lSAXllZ2a1bt5YuXYo6hHvV1NT4+vo6OTnJy8ujbgGgAywsLKZOneri4lJdXY26BSVra+tz5859+/YNdQgAPAbmVIBeQkKCkZERHL3+J2w2OygoaMqUKVOmTEHdAkCH2djYTJgwwdXVtaamBnULMjIyMjNnzjxy5AjqEAB4DMypALGSkpK0tLQlS5agDuFeR44cqa+vd3BwQB0CQCctX758zJgxbm5udXV1qFuQsbCwuH79OpwDAYAOgTkVIJaQkGBsbCwiIoI6hEtlZGScPXvWx8eHQCCgbgGg81auXDl8+PCNGzf22DM0SUhIGBkZxcfHow4BgJfAnApQev/+/ePHj01MTFCHcKny8vKgoKDNmzdLSUmhbgHgb61du1ZZWdnd3b3HjqqmpqZpaWkfP35EHQIAz4A5FaAUFxe3aNEiISEh1CHciMFg+Pj4LFq0SF1dHXULAF1jw4YN8vLynp6eNBoNdQsCIiIiixYtiomJQR0CAM+AORUgU1RUlJWVtWDBAtQhXGrv3r2SkpJwGgTAT3A4nIuLi4yMjJeXV8+86r2xsXFWVtbbt29RhwDAG2BOBcjExsYuXbpUUFAQdQg3unnz5uPHjzdt2oQ6BIAuhsfj3d3dxcTEvL29GxsbUedwmqCgoJmZWXR0NOoQAHgDzKkAjTdv3uTm5sL1P1tUXFy8e/duf39/OLwM8CU8Hu/p6UmhUHx9fRkMBuocTjMyMnr79u2rV69QhwDAA2BOBWjExMSYmZmRyWTUIVynoaHB29vb0dFx0KBBqFsA6C4EAmHLli04HC4gIIDJZKLO4SgymWxlZXX48GHUIQDwAJhTAQKvXr0qLCw0MDBAHcKNwsLCRo4cqa+vjzoEgO5FJBJ9fHzodHpQUFBPG1X19fW/fPmSmZmJOgQAbgdzKkAgJibG0tKSRCKhDuE6J0+eLCkpWbduHeoQADiBRCL5+fnV1NSEhoayWCzUOZxDIBBsbGxgSRWANsGcCjjt+fPnnz59mj17NuoQrvPixYukpCQ/Pz/YHQL0HGQyOTAwsKKiIjw8nM1mo87hnGnTptFotAcPHqAOAYCrwZwKOC0mJsbKygqurvSLqqoqf3//jRs3ysnJoW4BgKMoFEpwcHBJSUlkZCTqFs7B4XC2trbR0dE9ajoHoKNgTgUclZGR8fXr15kzZ6IO4S5MJtPf319PT2/ChAmoWwBAQEBAICQkpLCwcNeuXahbOEdLS4tCody6dQt1CADcC+ZUwFExMTHW1tawmPqL2NhYPB5vY2ODOgQAZAQFBUNDQ3Nzc/ft24e6hXPs7OxiYmJ62mFkALQfzKmAc9LT0+vr63V1dVGHcJeHDx9ev359y5YteDz8/wh6NGFh4bCwsKysrIMHD6Ju4RANDQ0ZGZkrV66gDgGAS8HfRcA5MTExy5Ytg2nsZ58/fw4LC/Px8RETE0PdAgB6IiIi4eHh6enpMTExqFs4xN7ePiEhoWdeRRaANsHEADgkLS2NyWROmTIFdQgXodPp3t7elpaWw4YNQ90CALfo1atXRETEvXv3EhMTUbdwwrBhwwYNGnTu3DnUIQBwI5hTASew2ezY2FhbW1scDoe6hYvs3LlzwIABCxYsQB0CAHcRFxePiIi4fv36sWPHULdwgp2dXVJSUkNDA+oQALgOzKmAE+7cuUMmkydNmoQ6hItcunTp5cuXrq6uqEMA4EaSkpLbt2+/ePHiyZMnUbd0u0GDBqmrq6ekpKAOAYDrwJwKuh2LxYqLi4OD2X9WUFBw8OBBf39/QUFB1C0AcKnevXtHRkaeOnXq9OnTqFu6na2t7YkTJ2pra1GHAMBdYE4F3e7mzZuioqKampqoQ7hFbW2tj4/P+vXrBwwYgLoFAK4mLS29ffv25OTk8+fPo27pXv3799fW1j5+/DjqEAC4C8ypoHsxmcz4+HhbW1vUIdyCzWZv3bp14sSJcH4uANpDTk5u+/btiYmJly9fRt3SvaysrM6fP//t2zfUIQBwEZhTQfe6du2atLT06NGjUYdwi2PHjlVXVzs6OqIOAYBn9O3bNyIiIiYm5vr166hbupGsrOyMGTOOHj2KOgQALgJzKuhGDAYjISEBFlObPXv2LCUlxcfHh0gkom4BgJfIy8uHh4cfOHCAv68yam5ufu3atS9fvqAOAYBbwJwKutGlS5fk5eVHjBiBOoQrVFRUBAYGenl5SUtLo24BgPcoKCiEhYXt2bPn7t27qFu6i6SkpKGhYXx8POoQALgFzKmgu9Dp9CNHjsBiahMmk+nn57dgwYIxY8agbgGAVykqKoaGhu7YsePBgweoW7qLqalpWlpaSUkJ6hAAuALMqaC7XLhwQVlZWVVVFXUIV4iKihIVFTU3N0cdAgBvU1ZW3rp1a1hYWHp6OuqWbiEqKmpiYtJzLhsLQOtgTgXdgkajJSUlwWJqk9u3bz948MDT0xMuxwXA31NRUQkKCgoJCcnIyEDd0i1MTEyePXtWWFiIOgQA9GBOBd3izJkzw4cPV1ZWRh2C3vv373fs2OHn5yciIoK6BQA+MWzYMH9//4CAgKysLNQtXU9QUNDMzCw6Ohp1CADowZwKul5DQ0NycvKyZctQh6DX0NDg4+OzfPnywYMHo24BgK+MGDHC19fX19c3JycHdUvXMzIyevPmzatXr1CHAIAYzKmg6506dWrMmDGKioqoQ9CLiIgYOnTo3LlzUYcAwIfU1dW3bNni7e3Nf/McmUy2srKCJVUAYE4FXayuru7EiRPW1taoQ9A7ffp0cXHxhg0bUIcAwLc0NDQ8PDy8vLzy8/NRt3Sx2bNnl5aWZmZmog4BACWYU0EXO3HixIQJE+Tl5VGHIPbq1auEhAR/f38ymYy6BQB+pqmpuXHjRg8Pj4KCAtQtXYlAINjY2Bw+fBh1CAAowZwKulJNTc3p06dhMbW6utrPz8/Nza1v376oWwDgfxMnTnRyctq4cSOfHSM/ffp0KpXKxyeLBaBNMKeCrnT8+PEpU6b06dMHdQhKLBYrICBg+vTpkyZNQt0CQE8xefLktWvXurm5vXv3DnVLl8HhcLa2tjExMWw2G3ULAGjAnAq6TFVV1YULFywtLVGHIBYXF8disezs7FCHANCz6OrqOjo6urq6fvjwAXVLl9HW1iaTybdu3UIdAgAaMKeCLnPs2LFp06bJyMigDkEpPT398uXLW7ZsIRAIqFsA6HFmzpxpZ2fn4uLCT9cdtbOzi42NZTKZqEMAQADmVNA1KisrL1++bGFhgToEpdLS0tDQUB8fHwkJCdQtAPRQ+vr6VlZWLi4upaWlqFu6hoaGRu/eva9cuYI6BAAEYE4FXePo0aP6+vpSUlKoQ5Ch0+k+Pj5mZmZqamqoWwDo0QwMDExNTZ2cnL58+YK6pWvY29snJCQ0NjaiDgGA02BOBV3gy5cvN27cMDMzQx2C0p49e/r06WNiYoI6BACAzZ8/39jY2MnJqaKiAnVLFxg+fLiSktK5c+dQhwDAaTCngi5w5MgRAwMDcXFx1CHIXL16NSsra+PGjahDAAA/mJiYGBoaOjs7f/36FXVLF7Czs0tKSqJSqahDAOAomFPB3/r8+fOdO3dMTU1RhyDz9u3bqKgof39/ISEh1C0AgH+ZmprOnDnT2dm5qqoKdcvfUlZWHjVqVEpKCuoQADgK5lTwtxISEubPn9+rVy/UIWjU1dX5+PisWbNm4MCBqFsAAL+ytLScOnWqi4tLdXU16pa/ZWNjc+LEidraWtQhAHAOzKngr3z8+PHhw4eLFi1CHYJMSEjIuHHjZsyYgToEANAyGxubCRMmuLq61tTUoG75K/Ly8pMmTUpOTkYdAgDnwJwK/kp8fLyxsbGIiAjqEDSOHz9eWVm5atUq1CEAgNYsX758zJgxbm5udXV1qFv+irW19blz5/hgNwYA2gnmVNB5xcXFT58+7bFHuGdnZ//zzz++vr4kEgl1CwCgDStXrhw2bNjGjRsbGhpQt3SerKzs9OnTjxw5gjoEAA6BORV0Xlxc3JIlSwQFBVGHIPD169fAwEBPT88efv0tAHjIunXrBg0a5O7uztNHzVtYWFy7do1vTg0LQOtgTgWdVFBQkJOTM3/+fNQhCDCZTF9fX0NDw7Fjx6JuAQB0gJOTk7y8vIeHB41GQ93SSZKSkgYGBgkJCahDAOAEmFNBJ8XFxS1dulRAQAB1CAIHDx4UEhKytLREHQIA6BgcDufi4iIjI+Pl5UWn01HndNLSpUvv3btXUlKCOgSAbgdzKuiM/Pz8/Px8IyMj1CEI3Lt3786dO56enjgcDnULAKDD8Hi8u7u7mJiYt7c3j16JVFRU1MTEJDY2FnUIAN0O5lTQgvv372dmZrZyh5iYGAsLCzKZzLEkLvHx48eIiAg/P78ee75YAPgAHo/39PSkUCi+vr4MBgN1TmeYmJhkZmYWFhb+6Q51dXX//PNPfX09J6sA6HIwp4IW7Nq1y8XFZcWKFdnZ2b/f+vLly3fv3s2ZM4fzYWhRqVRvb29bW1sVFRXULQCAv0IgELZs2YLD4QICAphMJuqcDhMUFFy6dGlMTMzvNzU0NCQkJCxatCgqKurNmzecbwOgC8GcClogJiaGYdjr1683bdq0cuXKnJycn2+NiYmxtLTsgSdj2r59++DBg3vm3g4A8B8ikejj40On04OCgnhxVJ03b97r169zc3ObP0On05OTk01MTJKSkhoaGoSFhXnx6wLgZzCnghawWKym/6BSqXl5eRs3bly9evWrV68wDMvKyiotLdXX10caiMC5c+fevn3r7OyMOgQA0GVIJJKfn19NTU1oaGjz771WJCcnl5eXcyCsPchksqWl5eHDhzEMa2xsPHXqlLGxcVxcXH19ffPZDGBOBbyOiDoAcCM2m/3zh1Qq9dWrV87OzoMHD25oaLC2tiYQCKjakMjPz4+Njd2zZw+FQkHdAgDoSmQyOTAw0MPDIzw83M3N7U/HR7LZ7JCQkGvXrn3//n358uUcjvyTOXPmHD9+PCoq6urVqzQa7ffzwrZn+AaAm8F6KmjBL3NqExqN9uLFi6KioosXL+bn53O+CpXv37/7+Pg4Ozv369cPdQsAoOtRKJTg4OCSkpLIyMgW78BkMv38/O7cuYNh2M2bNzlb90csFis1NbWmpubUqVPV1dUtXrwA1lMBr4M5FbSglZfgLBYrJydn/fr1zs7OBQUFnKxCgsViBQYGTp06dfLkyahbAADdRUBAICQkpLCwcNeuXb/cxGQyN2/e/OjRo6Y306uqqpCfuJTNZt+5c8fMzGz79u01NTV/OmUBm82GORXwOphTQQtaXE/9+VYajZaVlbVmzRo3N7e3b99yLIzzEhMT6XS6g4MD6hAAQPcSFBQMDQ199erVvn37mj/Z2Njo7u7+7Nmz5j0+WSxW08IqKg8fPrS0tAwJCSkrK2vzArDwvj/gdTCngha0Pqc234dGo2VkZKxevdrd3b2oqIgDYV2otLS0zfs8efLkwoUL3t7ePW1/XAB6JmFh4fDw8KysrIMHD2IYRqPRXFxccnJyfr7IamNj47Vr15DkZWRk2NjY+Pv7l5SUtDmhYrCeCvgCHEcFWtCeObX5njQa7cmTJ48fP54zZ46bm1u3hnUVBoOxdOnSadOmubu7/+lqBWVlZVu3bvX19ZWUlORwHgAAFRERkfDwcCcnJwzDnj17VlhY+PvlVT99+lRRUdG7d29Ohunq6nbiUTCnAl4H66mgBR19q4hCoWhqaq5cubKberpccXExhUJJS0uztbVtcVezxsZGX1/fJUuWjBw5kvN5AACEevXqFRAQkJKSUlBQ8PuQimEYHo+/e/cuh6vMzc3JZHKHLtcM66mAD8CcClrQ/vVUHA5HoVBWr14dGhoqIiLSrVVd6PXr1zgcjk6nf/r0yd7e/ve9zfbu3SstLb1kyRIkeQAAhGpqajw8PFgs1p+OT6LRaFevXuVwlb29fXR0tLy8fPvPjgdzKuADMKeCFrRzTiWTyXJycgcOHDAwMOjupK718uXLpr272Gw2lUrdunVrZGRk89+k69evP3361N3dHWkjAACBqqoqR0fHT58+/WlIbVJUVFRdXc2xqib9+/ePjo6eO3duO0dVmFMBH4A5FbSgPXMqhULR1dWNi4tTUFDgQFLXevny5c8fNq2OrFixory8vKioaO/evf7+/sLCwqjyAABIVFZWrlixoqysrPUhFcMwAoHw4MEDzlT9jEgkrl27NjAwUEREpM3jO2FOBXwA5lTQgtbnVDweLygo6OHhsWnTpj8dhMTNWCzW7/uk0mi04uJia2vrjRs3rlq1SklJCUkbAACVsrKyFStWVFRUtGe2o1KpnH/rv9nYsWMTExPV1NQEBARauRubzYbzUgFeB3MqaEErcyqFQlFQUIiJiZk6dSonk7rQhw8fSCTS759nsVgNDQ1VVVXFxcXwyx2AHuXTp0+Ojo5fv35t///7r169amho6NaqVoiLi+/YscPGxqaVfQBgPRXwAZhTQQv+9JuaQqEYGRkdOnRITk6Ow0ld6M2bN63cymAwTp06tXbt2qqqKo4lAQAQysvLs7a2rq6ubv8hpBiGEYnER48edV9VeyxevHjv3r0yMjItvrUFcyrgAzCngnYhEAgiIiKBgYGrVq3i9ZPet7kKQqPR8vPzrayscnJyOFYFAEAlISGBwWC0/h767xoaGlCd8P9ngwYNSkhI0NHR+X1hFd73B3wA5lTQgl9+tQkICAwdOjQ+Pn7s2LGokrrQixcv2rwPk8msqalxdXU9evQoB5IAAAgFBwdfunTJ1dVVXV2dRCK1f2DNzMxs8QSrHEahUDw8PDw8PAQFBfH4f/+sw3oq4AMwp4IW/PzmF4VCMTMz27VrF99clundu3ftvCedTk9MTHRzc6utre3WJAAAWoKCgtOmTYuMjExJSVmzZo2KigqJRGrzOFEikZiRkcGZwjZNnTo1Pj5eWVn554XVNk9cAACXgzkVtKBpTiWRSOLi4tu3b7e0tOzQRVC42adPnzr0tdBotKysLENDwxYvWwUA4DOioqJz587dv3//8ePH7e3tFRQUyGRyi0deYhhWX19/48YNDhe2QlpaOioqasmSJc2jKqynAl5HRB3Qc9FotIqKisrKysrKyvr6eiaTyT07ElVXV+NwuL59+86ePfv169evX79GGIPH4wkEAplMlpSUlJKS6t27999c+OrNmzcd3b+WSCSKiYnx4hm4AACdJikpuWjRokWLFpWWll6/fv3SpUtVVVWNjY2/TH4PHz6sra29c+dOY2MjqtRfSEhIzJs37/z58w0NDS9evDhz5gzqIm4kKys7ceJE1BWgbbgOHd4I/kZJSUn+/719+xbeSu40CoUyYMAAlf9TUlJq/+h54MCB48ePt39DysrKDg4OI0eO7GwsAIBPFBcXX7169erVq1QqlUqlNv31FBISGjBgQF5eHuo60GFnzpwRExNDXQHaAHNq92IwGM+ePbt///79+/crKiqaPkkmk5WUlGRkZHr37i0lJSUlJSUsLEwkEn/e/x00Y7PZDAaDRqNVVlZWVFR8/fq1vLy8sLCwpqam6Q5CQkKampra2trjx49vc6l19erVr169av0+OByOTCYPHz7cwcFBRUWla74MAAC/yMvLu3Llys2bN5lMZtPJQxQUFFatWoW6C7TL+/fv9+7dO3DgwNjYWNQtoG0wp3aX3Nzcs2fPpqWl1dXVYRgmIyMzfvz4pvU/RUVFXj+1Ezf49OlT0+J0RkZGQUEBhmEEAmHMmDGGhoaTJk3607/wnDlzWjkpFR6PJxKJGhoa9vb2cEkqAEArWCzW8+fPfXx8vn//fuDAgSFDhqAuAu0SEBCQmpq6ffv20aNHo24BbYP9U7sYnU5PTU09c+ZMfn4+hmFKSkqTJ0/W0tIaPHgw6jR+07dv3759++rq6mIYVlZW1rRonZGR8eTJE2lpaSMjIwMDA3Fx8Z8fUl5e/qejCggEAoFAmDRpkq2trby8PCe+AAAAL8Pj8WQy+fv371paWjCk8ori4uJbt26NGjUKhlReAXNql2EymZcvX46Li6usrCSRSHp6evPnz1dVVUXd1SPIysouXLhw4cKFZWVl586du3jxYnR0dGJiorGxsZmZWfPOAAUFBUQi8ZfzHTbtcaGrq7ts2TKevs4WAIDDmt44XrZsGeoQ0F4JCQlsNhu+ZTwE5tSukZaWdvDgwQ8fPoiKitrZ2RkaGsLe2UjIysouX77c2tr61q1bR48ePXbs2IULF8zNzRcsWEAmk/Py8qhUavOdSSQSDoebPXu2hYVF7969EWYDAHjOy5cvnz59qq2traysjLoFtEtxcfHt27fV1dXV1dVRt4D2gjn1b5WVlYWFhWVkZJBIJFNTU3Nz80RNQ2MAACAASURBVL85axLoEmQyWU9Pb8aMGRcvXoyPj9+/f/+5c+c2bdr0/PnzppN/kclkHA43b968pUuX/rJvAAAAtEfTYqq1tTXqENBe8fHxsJjKc+A4qr9y8eLFffv21dfXT58+fcWKFdLS0qiLwK+oVGpycvKRI0eYTCabzSYSiSQSycTEZPHixfCKAgDQOTk5OevWrZs8ebK/vz/qFtAuRUVFtra2o0eP3r59O+oW0AGwntpJ1dXVwcHBjx8/lpCQ8PDw0NbWRl0EWiYgIGBtbT1lypStW7e+efNGSEgoKChITU0NdRcAgIfFxcVhsGcqT2n6ltnY2KAOAR0DJ+zsjKKiIkdHx8ePH+vq6sbGxsKQyv0UFRWjoqJsbGxqa2vd3Nzu3LmDuggAwKueP3+emZk5ZcoUOHsdrygsLLx79+6YMWNGjBiBugV0DMypHZaWlrZq1aovX76sWbPG29sbjpfiFQQCwcrKKiIigkwm+/r6xsbGwk4vAIBOgMVUnhMfH4/BYipvgjm1Y06fPr1lyxYikRgaGmpsbIw6B3SYurr6/v37Bw4cmJCQEBwc/KfTqQIAQIuys7OfPXs2depURUVF1C2gXQoKCu7evauhoQF7fPEimFM74NSpU7t27ZKTk4uKiho7dizqHNBJffr02bdv37hx427cuAGjKgCgQ2JjY3E4HBzmz0NgMZWnwZzaXikpKbt37+7Tp8+OHTv69++POgf8FUFBwcDAQE1NzdTU1KCgIBhVAQDtkZWVlZ2draOjA4upvKKgoCAtLW3cuHHDhw9H3QI6A+bUdrl06dKePXv69u27Y8cOWVlZ1DmgC5DJ5ICAgAkTJty6dSssLAx1DgCAB8TFxcFiKm+BnYl5HcypbcvOzt6+fXvv3r0jIyNlZGRQ54AuQyaT/f39x4wZc/Xq1WPHjqHOAQBwtWfPnmVnZ+vq6iooKKBuAe3y5s2b+/fva2pqDhs2DHUL6CSYU9vw+fNnb29vIpEYFBQEQyr/IZFIfn5+/fv3P3To0IMHD1DnAAC4F+yZynNgMZUPwJzaGiqV6unp+f37902bNg0ZMgR1DugWIiIiwcHBQkJCAQEB7969Q50DAOBGGRkZOTk506ZNGzBgAOoW0C75+fkPHjwYP3780KFDUbeAzoM5tTUHDhwoLi62tLTU0dFB3QK6kby8vI+PD5VKhcP/AQAtiouLw+PxVlZWqENAe8FiKn+AOfWPMjMzz5w5o6qqCu/y9ATjxo0zNjZ+/fp1YmIi6hYAAHfJyMh48eIFLKbykLy8vEePHk2YMEFVVRV1C/grMKe2rK6ubtu2bWQy2cPDg0AgoM4BnODg4CAvL5+YmPj69WvULQAALhIbG4vH42HNgofAYirfgDm1ZbGxsWVlZfb29vDquedoelmCYVhYWBhcUhUA0OTJkycvX76cMWMGnDmbV+Tm5qanp0+cOFFFRQV1C/hbMKe2oKSk5MyZM4MGDYIro/Y0Q4cONTIyKigouHHjBuoWAABXaFpMhT1TeQgspvITmFNbcPjwYSaT6eDggMfDv0+PY2VlJSgoGB0dTafTUbcAABB7/Phxbm7uzJkz+/Xrh7oFtMurV68eP36spaUFZ+nhDzCH/SovL+/27dsaGhqampqoWwACEhISpqamZWVlp0+fRt0CAECs6TB/S0tLzm2SxWSy+GEbqMBiKp+BOfVXR44cwTBsxYoVqEMAMosXL5aQkEhOTm5sbETdAgBAJj09PTc3d9asWZxYTGV9e3J43ZxR/UQoJJJAr35q02wj71V2yzBJu756kKCAvO25uu54drRevnz55MkTLS0tZWVl1C2ga8Cc+h+lpaUPHjwYM2bM4MGDUbcAZAQEBObNm/ft27fbt2+jbgEAINO0ZypHFlMZubsX6a3Y95gweZV/eJjPyll9Ss5ExD3qlp2PcL36KCoqDpKXIHbHs6MFi6n8hw9/TP/GmTNn2Gz2ggULUIcAxAwNDY8cOXLq1KmZM2eibgEAIPDw4cP8/PzZs2f37du32zdGfxq7/853ObN/biYslMAwDMO8gqtKKwUEumNj5PGbU/M3d8czI/bixYunT59OnjwZFlP5Cayn/otGo126dElWVnbSpEmoWwBikpKSOjo6eXl5ubm5qFsAAAjExcURCAQO7ZnK+vy5nIUT79tfuPlTBHE5mZ/GVFbV8yRvq1maaqpDR2nPW7Xj5of/r7WyKu/s2bQ5MbsmP9l57thhI6ZsOF3y8piPq+fBB99+3sS3+wc8N4aeL2ayKu/u89i0M7Wsea8CRsntPesXTh09VFVNc4bZppj0clabm+VCsbGxGCym8h2YU//14MGDmpoaIyMjOMwfYBg2f/58DMOuXbuGOgQAwGkPHz58/fq1np5enz59OLE90tDhQ0jM/CPB0Tm1Ld1eddtrxmSr3ZnCE4wtlkzv9/GE2xyd5Sc+sTAMw1glt2K3hx2MWGVkl1w+YJQype57I77o6u4Q1+CU0uZRlFV2MtgtNOpWCQnHKkmNjog4cLWY0XTLh2TbKXrr9j+s7T9m/Ajpqjs7HYw9r7W5WW6Tk5OTmZk5ZcoUJSUl1C2gS7HB//n7++vo6Hz8+BF1COAKLBbLxMTExMSExWKhbgEAcJSDg8P06dM/f/7MqQ0yK687jxLGYTiRQXrr9995T/35RtojDzUSSWXNja8/PlFz13kYiajiep/NZrMbs33GkHA4gsycqLzGH3dgFIRPFsCJ6O8vYf54/k8HZovgxYxiSplNDyAO3fiIxmaz2bVXVgwkEPqZJBQzmu5am3sm5uLbVjdL685/ik5ycnLS0dEpLCxEHQK6GCwc/sBgMNLT0wcOHAgnyQNNcDiclpZWRUVFfn4+6hYAAOfcv3//9evXs2fPlpOT49Q28ZIzwq5d3WkzVvj9tZ0rdYcNn73pZD616Tb6k39S8rBR5o46Ej/uLTLeZI4SVnjvTvPjcWLTvHctV/n/IScERZPFWoL1906dLWlacy09e+pevfjMJUayv/zVpz06e+UDbvBS5yUKP64QLqw6z2aOUqubLeqef4TOe/78+bNnz6ZOnaqoqIi6BXQxOI7qh2fPntXV1cERVOBn2traZ8+eTUtLU1VVRd0CAOAENpvdtGeqhYUFZ7eMl9FaG/PIyvX8/rCtkUevbls6vaAuLdl6IKEuN/cdk9UrefXMW81DZsOHUhabXf7vg/uMHitP+OnJ5I2X6Hjdup1y9uOKNQOwz2dPpzX0nm86V+rXrVa/efuZRZo9Qo386y2tbLYcw7jreqSxsbE4HM7a2hp1COh6MKf+8PTpUwzDtLS0UIcALqKuri4kJPTkyRN7e3vULQCA1lRWVj579mzGjBl/+Tz3798vKCgwNDSUlZXtkrCOwYsNm+cea2BmYKdrmnA2ZN/jpdvGN1BpbDZOtJ/KsMGk5jsOGz5OdMSiVp5Idv6S6RuvXDl15v2qNfgzp9KocktN9cR+vRurvoGKYSQyhfDbLa1sdvjffpldKisrKysrS1dXFxZT+RLMqT/k5uaSyWQ4bSr4GZFIVFVVzc7OptPpZPJvyw1tycrKcnJyunjxopCQUHfkAQCa3bhxY//+/UlJSY6Ojp2+mmDTYiqRSOT4Yup/EeQNHRcqHw1/X1DEwCb2kpIUwOH763nsch7Y/n318NKGS/Qkz549dbrIkHTqAV3eeukMkd/vJS4hRsSoFWXfWJjQf54c37nNIhAXFweLqXyMq3/4OIbJZL5580ZZWZlA+O01JejZVFRUmEzm27dvO/SorKysFStWeHh4YBhWW9vi8bsAgK4kKysrKChYVFTk4+NjY2OTnp7eiSdJS0t7+/btnDlzZGRkurywNbUl78sZP3+ipqi4nEXoI9+fiGGCmhNGURjZ16+WdOxAe4k5pnNkGtNT9u1LeUhXWmA2uaWzsYqMHq1CbMy8evHfJ6e/e/z0Q+c3y1nPnj3Lzs7W0dFRUFBA3QK6BcypGIZh79+/p1KpKirctcMN4AZNPxXtP5SqeUJ9/fo1lUoV6J7zdPcITDqdibrhr/DzJdS5EA6Hw+FwGIZRqdTi4mJfX19ra+uHDx+2/xmaFlNJJBLnF1OpNzw0h41d7HXw/MMX+XlZqXHui11PfxOZ4GA/iYxhBEXzNQv61F7zWuKccL/gS1V1+bvnqUe3ufimfGj9aUVnmhr0aXy0e2caQ2Wh6YQW3xIiqlkum9Kr5upmC/ej93Jyn10/tGHWJL3Q+61ulot+sGExle/BnIphGPb69Wvs/xMJF0HwZ471+dyWpabuJ99zbEDg9r/lTUdQNf2EtO6XCbX582w2uxv7+E9t7klf8ykqvQUpAgKCon3VZtiFXCyktv04tJh13yprf14Pqz9vP0BQUHHlVRqypp6NSqW+f/8+ICDA0tIyLS2tPQ+5e/duYWHhnDlzpKWluzvvF2StZWsm0a5vczSaNEJ16OjpthFPhfU3/5PsMoKIYRiGlzPZezLMWCZ3zzLtwbIS4jIDR82wDrpQTMNjGIbhyIICRIKQIOX3v+fC0yyXDqUwWYKaFmZjmnfz++8DCMqrDsesGYd7GGExZeSwMXqOsaUTNm/Qa3Oz3CAzM/P58+fTpk2DxVQ+BvunYhiGlZWVYRjGqTNS0R9vt9pyU3zp9r3LVH7ZzYBZkLh2/dF6g7DDK4fcWq069yDdIuV1jJFwy0+EYRjGrP9WxRSWEu3wvpMtY5VnXkpJaRjgFGAy4LddIBi5catdEwsafp67cGQ1h+gdS/q15/fW76206798kV385XQBGRkZIpHY9BPyJ1lZWVFRUU2r8hwL40usL9c9DBaHP21UnGbqbKcmg/ual3b2pPeC+xW3nodrcc9Pxa+YbyNmDfWqWHcnJ3zSj0qCeF/FgYqkfuI4tGk9XENDw8ePH4ODgyUkJFasWDF58uSmNdffsdns+Ph4Eolkbm7O4UgMw/DS0zafzXUte5mR9basDieuMHLcaAXRn36t4iUmOP3zYvn7Z4+z331lkCX6KI8crSpNwTAMwwiq7vfr3Vt+YsqUbTl123755K8PIA5cuPOhnuuzR8+Kain9RkwYqyRGaHuz3CA2NhaPx1tZWaEOAd0I5lQMw7CKigoMw3r37s2RrRHlRWseXT5VOmaFRcDo/3wDGLlJOw9febfQqj8Rw/Xqo6ioyJCXaO1bxPqw10DZudjheu5u3e7/1cHIu3Hyym2W8oTR/f7dGJvNbt96aEutv3yRnP1y2geHw0lKSjb9hPwuKytr3759Hz58aGVChfXU9mKVpjjZRGTgtP1vXtg8XrTpk26+gemHovJ6cc0KTouYbDaGMRsb//0MZbL/vdf+6IrATxoaGhoaGkJCQvbv3+/g4DB16tTfp9W7d+8WFRXNnz+f84upzQRkh2vptXIoPV5kgMa0ARrds3Fh+dHT5UdzfLN/ISMj48WLFzNmzBgwYADqFtCNuPuXP6c0TSFSUr+dWa5b4GXnLZkmxnx1+p/M/14omfHq5NnnTJk5pnMkMIw8fnNq/uu7fpNbHdiYTCaGMRgc3I2PoGoTcz212c2ru03l2/dT1ELrr18k57+c9pCSkqqsrPzlk1lZWQ4ODh4eHm/evIFl1C7BeHVo28lPhNEbdm/6/5CKYRiGlxq/YrP1iB+v12penvC3mzNhhMpglZET59oHnsr99yg11pdbuzZtOZpDK7+/d+WcsapDho03XHf46TdWO2/HMAxjfcs6stl8uobq4CFqEw0ct994/5//SRkfbkauMpqkNmSwqsY0U7fDj76wGDlHNrtsu/KexapM2+e6Yf16p/ArpRjG+nJ7z6ZNe25/+ffZ/6YdtOlPC6XNGhoaPn/+vG3btqVLl6amprJY//7jNu+ZimQxFXROXFwcLKb2BDCnYhiGVVZW9urVi0QitX3XroCXMVwyS4KVf/rE05//BjJepJzNYfWZu2SmKIZhrMq7+zw27Uwta7qYSOWdPZs2J2bX5Cc7zx07bMSUDadLcpK8XQLPFzHZ1Y8OuG3Y4OQafgXDMNbnGzvcN+27W/nTn8dHhzw3brvwrvnjvPORzub6E0epqqiqaxku33bl3X8H5s74fyHt6+ND6+dNHDF0xKR5G6J//J1lvPy99RPrP19kS3fBGLn/+Lp5Hrj/n7/WVQ8PeW0MOc+5C6L07t27rq6ueRiFCbV7MF+fOZdNJ45dbD78D+8hsL6mbtLVMvU7+UZQddLkcfK0jETvRZMNt2X8+CawSlJjtm/bt81hqr73PZbK+BG9Sq7tWTHXJv4dq43bmzdw0336FJt9LyV1zO2sZg8sTXGfq+tw8vOPHz/m+ySrKbNdYjKZgydOGfc/9s47ronsCeBvd9PoVRApgiAqdhFFsYIdRREVECucBXuv9/PsZ++enu0Ue0UUsYDYKGIXbKhUpSlVakg2+/sjhQChJiRR5/uHH0k2u/Nm582bnfd2nnFB2H7fMavuctOj79199DGXooqSn4WG3rv/6EXSD4R4KXeP7NhxKCSZJ6XsDaTu35bi4uKMjIxt27Z5eHiEhITwo9X79+8nJiYOGzZMXrNqgLQ8e/bszZs3Tk5OpqamipYFaFhg3h8hhAoKCrS0KtU/bkB0nD2GNLp09uqFx+u79xLkErkxlwPe8kynjHVUQwghXkro0e3bi3muvo6GDMRLufffjq2qqUnrr4RqDehllV/4ozjjw72QsPgcimJ/eX435D1Ob2mJEOIm3D64Y7cqy3NqLz3+Uwj5Pcxv247EyU5LhjZFCJXcmO848jzDrr9T76Fa7ISHV08sC3mSG/pkYzepptp5Kff+27GFkZK6NcCfbTegc8uE+0F7pkYmoCdXfMzJjJhKsvpQqAlV1khtCYcgzCIheO+m6BizoUHTBUtgeRlXNi7adL/b/rnLpBG3LvBtIz8//8OHDzXO8gP1hf32zWcuYdi2o0kVxeHYkRtn7nhJd9oeenVeW1WEEJkWMK3X6GPrlh91vzWzKY4QwhAqjbz8zNvv2cFRFjTEfb+lb+dlN49dSpywsBlRzfdo8kKEEPvxptm735jOuvNgZx8thBCaN6yxXb99q3b5umzuykD5t9cuu/ClseeZxyfHNMERQkWxgVeSrVn9+4e/mra1d6vlqe5Hnu8TrljhIgwhJFzzIYXsfNmAGqkxnyoOfyXAjh07/v333z/++OPs2bN0On3s2LENJx4gW2Bl6u8DxKkIIcTlcutRxV0aNAa4DzU6c/zahfBNvRxZCCHEfXUp4B1lOcuzR5WFjDjhZ+4M3vcwYLpwD+dHr6ft7NticcLoQy8O9KttlMnoNPXk4429bQ34JykcO69Tv/0Xzz/Z2K1nbX7OS71/YG2xIKjHGC2GzxvbUfSeFyfqUsSEo0//HWvFRNwP25w6L7l17EKczxJrx78lyir2fjRT4iE8dw+HtZGPLlxOnjrHHEcI8TKuXX5QoOHo7mpUy/ZKD41GQwgtXbo0LS2trhEqRVEZGRkURfFXqYrWqor/Wf2H/P9L/FD8q7qeVuHXqvBh27ZGObnFFG6iq11lmHruyifKas6qGW0FuyYQRkOXT+1ycmnYjTuZvlMMcIQhhGhWU//ZN8qChhBCNOuhA1v/GZn4KY6LmhGo6u8RQgiVRp2/8gnZrp3eU/jMqm7vNth8376wB19QV0t2RMCtVLzVknkjmwimoVRbDB0nqBGCYQghComvRBYPmqqXfeYUg+ple/LkCX/DPFlpW/wm/jKmlZeXx+WWK0FaI6J1qwghNzc3eS39AqTlyZMn7969GzhwoImJiaJlARociFMRQojH48m7wr+ak6eL6fFD1y882OI4UBUh7ovLAe+pFos8ulQdL2Najqv2TGkh5T3Djbo4icV4arYdW9LI+2lptfw5L+XeoW2PBGMwxuzZaLxHRzXh8hHCwueff8ZaMRFCiNZ82OC2K8ITP35GyLrewpqNGuv4v/shly4nzFxoSSBe+rXLDwu1B7kPN5TfkhX+4JeQUJ+VBlwud/369fxIV1TfkQ///+L/Sv+h+FUkXqv2H8pHKtGHRkYDaTSEUaXsUslLMnnZb9+n8JjOnTqI9RDCpK1NIzwqKS6BiwwYCGEYwphqamX1d7S1NTAqqaSYEl5R8vcIIYRy3334wuXln5nePxhDiB88FSal8yha5neELLI/ff7OY3Zp3UpSB8QwrNIbc5gooVqD7AgZVC+bioqKvr6+TO41ku9traVUMhE1Ojr69OnTqI6wWCySJCmKgmTqTwR/Zer48eMVLQggDyBORQghHMdJUs4v77B6eI5odnhv4MV7hQOd1UqfXw6Ixdqu8OhUTVoXN+rY2VQW4TQv9831k+dvR71N+v6jpDTjDQfxat18mt2al2HLKhbUElBhnNXSwKgStlT1I3GjEWMHLA0KuHTh07zlLbGUq5fDivVHeDjrSnPSOsJ/hnF0dAwLC+PxeHXK2dDp9N27dzdp0qTBpPtlYCca6eNkWkJ8EZJUgYoqLi6hEJ3FKv+AwmIxBe/flR0pXjcNw1C5LGfV3/NKSkoRwjSMW9o0p/EjJwzD2nVw0Gw/uhVCVFExm0I0FrMKn4mVP7HwWjKRvW3btm3btpV8XUBIXl5enab+WSyWiYlJ165dT58+PWrUKF1deToVoP5ERUW9f/9+4MCB8iolCSgYiFMRQohGo3HES8rIBWZXj5HW+7YGXQwpcB4ccyngE95xtXubhr8h3I//eQ6cfiWjkW2/vu0tmzApenLY26KGuBImmAyVDr2hY4caXjlz+cK7xX9qBVwOL2ns4TFQnouJEd82fH19Z8yY4efnd+vWrbpGq0AtoNs62KofDYy4FZI7fpR2pa8J3UZ6DFSU+uU7DzUVxXslqSmZPLyjsTENIYQwJDFMEeU5q/weIYRwXQM9FoabDl6+Z66ZhGy9rr4OHRV/y8jhIaOKXwsyguUCVQxhiOJ/VIPsNcsGyBR+hOrr69uhQ4dJkyYxmUxPT09FCwXUFnjN/3cD3vdHCCEtLa3c3Fx5X5Vh6zGqDZFx8+Lt708vXYujdR3jUUWask4QBIEQh1tV2F10e8uf/l8tfK/FPL528vA/+/Zt95JDcCwNGgO8hpvwoi9feBnvfyWy1MTF01FdrgLwbUNLS0tPT2/+/Plnz54dOnQog8GoZYEIqJ9aO3CDEd6uTbBvVzZsfFi+MxbGhj6KIzXsurSmc55duxIvSkDy0gP9wwporXv3LdtootxCR+GzktgnEr9HCCGk0rVbeyb35e1bkncz1+jUqQWN8zwosOxrdkJkVDJCCCE6nUBUYUG+hFvNQwhVL3stZANkA4vFsrKy2rBhw+HDhzt16nT37t0vX764uLhAMvVn4fHjxx8+fBg4cCBMUv0+QJyKUKXCQ/KC1tZ9VEda5q3Tm/+7Fs/oPnqURZ3DVDqNQFSR+PBI6OvpYGRKbOwPwQc5jw6deyXK/fHyEhMzeWrte3XXEbw/n5WdJ58ajZVlreUhqr283Cypdxd3rb8QybFw9eyp2sCSViAzM1O8bJmuru7cuXPPnz/v4uJSY7Rap4nI3x3tYeu3ezYlX28f7jhh45m7T2Pevg4POLB0ROeuw3dEFBEtx/s6Nyp+uHrUH7uvRUZHP7l5YNaIOVeym4xeOl1QXVWwrBSVGXT5daNVfo8QEu1mfnv5mHnHHr5P/Z6VFvf89omNc1dd/MJDgm3QNX7cXum1+MS9lzFPgg7M6td9yLYIhBDCdcxMtVDuvZNHHr2Ouhn09HvZxSiEEJJGdtnr+bekQoSKECJJ8uTJk8qYTFX2zaQVyfHjxwmCgJWpvxXKnUmTF/zXPLOysuS83oVo4T6qy7ql1/ec4Kn0X+xWy3r5YvCHx4f3Tx+PtLYrTEX9+tsSpr17WhMRgevmHjRe3I0X9e+y5RfS1JnCaAnXtWlpjN8PO3siZvC0ViUv/JZPWR1GodqXpKLSwo5u/ltHeD6MMHSYOKlnLd5qqihrRyfbii/XSmgOQgghpv3Y0TZ7N571Q0SrJR5d5b1VVVZWVuWqitra2rNmzRo/fvzp06evXbvG4/Hkv3TklwM3dj8awjSdvWT/mT+9Tq5ECCGM0LRy8vl3/UgNhGtM+PdCGm/K337zhx+nEEIYXa/jhH+O7nUXzMNjDFUVGoGzGCJrxOlq6qoMNTUVrPrvBX81HrX/UgrXe+0/f/Tey48PMbp2i/EH+DtMElYzjhyL8/Q9sHOS4w6EMEK7ldtfWwchhBBS7TfN1+7a+quze/kjeruVkUPsdAUX42+hjpvVW/YG0fSvSFXPhKJZfn54KiI0NPTLly9jxozR0dGRi4A1wct5euyvv/ZefvgurQhTN7LuPNBnzda5PfXqnU1Svm2opSQyMjI2NnbIkCFGRvKr9wIoHgqgqFOnTvXp0+fly5dyvzKZeNBZl4bRm3iezSDLfcN9v6m7CtP2r5ecyn+JURC+qqs2jiGEEL3tSv45vwUvs9ej8UdmlWbDtz24ONWUaTX3vuCSyZd9O2gTGEaj0wnVZsPWn1zVU1V//BUJV60A+/4Ca2bFoYBmOec+W/Ivs44P16Qb/xEkWdanHAk/ktAcvlzvNjmoYhi946pXkiRrQEiSdHR0XLx4cTXH5OXlHThwYODAgQMGDOhTnsGDB3/9+lVu0v4qFKZGP7p1zf9q0MPolMIK35E/Ep+FBl4NuPkwOrW4IS5OFiS/un/jqv+1m/effs5iV5It5dW9wIDAu8+S8st3WXZGzL3rVwKCX6aWVHnqhpb9dyYsLGzIkCHivW/QoEF//PHH8+fPKx/M5XK9vLwGDRqUk5Mjf1ElwXm3y0kHJ/Q6ui/euH3b+iWT+lnrGHsH1t9MyOTdfRmExazQKs3xp2Pq1KlOTk5paWmKFgSQKxgF80oIhYaGrlu3bsGCBcOGDVO0LHWn9FtMWGRsLqOpXW87U8GUOJn7+XFETCbDywtRegAAIABJREFUokvPDkaV849k9oeIiHdZzGZde0n6Wr6y1uqQvCvjW4w+b7bmZeSfreVaQSw5OXnixInDhw+fN29e9Ufm5+efO3fuypUrPB6vtFSww5eKisqhQ4egyB8ANDQREREbN24sLCxEVedQRdy+fXvTpk0eHh7Tpk2Tr5hVUPp4SfueO354XnjjN1KQ3iVz07NYjQ2qLKhdA7zEnX1bLE7wvvWp9tW1lZmIiIiVK1c6OzsvWrRI0bIAcgXm/RFCqEWLFgih2NjYnzJOZRi0dRxeoWgNoW3lMMSqyp8Qui17Dm3ZwHJJQpKstTiE9/366RvfabbzRrWUb5lbhGJjYxFC1tY1l4DV0NCYMmWKp6fnhQsXLl68KB6tAgAgBwoLC2uMUBFCJEn6+fmxWCwPDw95ilcdvLS07zzMsIlJ2UIPQruxAUKI+/7C+mOvjEYsnuKgI1oCkBt5eKt/lr3v4mEWBDvx5q71e688jssj9Czths3+a8kgow9n1h4JDRNuQx1I0EwGbls0CCGEeLnR53ZsO37rRXI+oW/tMGrO8hlOpvyVAbysB/9sDdby/N+gwiOr1v/3MIFn2NXjz78XORpxEgI3/7nt8otM1eZOU9as9e4o14orfPgrU8eNGyf/SwOKBd6jQgghY2NjDQ2NDx8+KFoQQCK8tCung3PpdiNHNZd3mCqIU1u2rG1Ur66u7u3tfenSJU9PTxUVleLiYpiyAAA50KRJE1NTU/E3paoiODg4NTXV1dVVvttlVwu9VWtrOhl7auPRmILy32B4QvDeTYvWnU8TvVzF3z36wP0UBobyghcOHPG/W/mth3mNG9qB+erQoTt5iL9TdWwORRV/eX43JCTk7uPPCCGEcu+v7Ndzwt4XavZu49ydjL9eXDykz5SLqfwz8ze//mfrNMfBf4VRzds0KXh2cvlIr82Xto/oMfZoom7rlqrJt/dOHTr9XLq83/MKCwv79OnTkCFDGjduLOdLA4pH0QsPlIVFixY5Ojqy2ZVWowGKp/DOYoeODlNOJ3Llf+2ZM2cOHDiQy63PpQsLC+/cuVNaWipzqQAAqB9cLnfs2LGDBg3Kzc1VtCzikFnBC9qrYQhTtxw49+CD5LJVpWTCHkdVTLXv7gTBgmgy9dAQDVzL5Vg6SRXf8DEi1F2OZ4mOJoVHJezoxSBMpweXnYn9eHkbOr3FrJBswQf5DxfY0GktFoWzKYqiOK//6kRHGKul9/l4DkVRZPqZMYY4hhP6vdc8yiIpimJHr+vCxFQHHpTrClEej+fj49OvX7/09HR5XhdQEiCfKqBVq1Y8Hu/du3eKFgSojGr/LWEvwg6NbSrvbGpJScnHjx+tra3rt62uqqpq//79a1lmFQAAOXDnzp3U1NSRI0cqUTIVIYRw3X5b79zePbmzWvKd3b59bVoPXnYptgQhwe7RmiWRly4nkAgh4e7R/d2HG+IIYzGZiP3xydNvghQnjlc5qpc+vXD5A2rvNb2PsMCBetdRQ5qh+EcPyjaFJix89u8fY0FDCOGGgwfZMRHNYcWJP3vo4gghRosBjlZEaeLn+IZRgmTCwsLi4uIGDx5saGgoz+sCSgLEqQK6du2KEAoLC1O0IIAS8eTJEw6HY29vr2hBAACQAfyaqSoqKu7u7oqWpTK4gcPsY49jX/lvmminlnx7i6fTuBOJpGD3aJ3SqEsXPpEI8fi7Rw/m7x7N7DFtTh/tTwdc2nf1WHH04ZfqtqkufP8+ieQlnZ/Z31HIoAVX03lUzvfvooMwppqaKC5gaGgwEaaqri78hNBQV8MoDlt+K+8pijpx4gSNRoOVqb8tEKcKsLGx0dHRgTgVEIdvDz179lS0IAAAyIBbt26lpaWNHDlSU1NT0bJUAa5lM3zpf+FPz05ohlIDNv3zpBQJdo8mn1++8I7L+xpwObyk8VDh7tGMdvNvRAVuHt8i88bmKX1atfM4/LaKWJVXXMKmKEzDuIVNGbYDx89ctHB0a/k1sI48evQoLi7O2dnZwMBA0bIAigHe9xeAYZiDg0NgYOCnT5+aN2+uaHEAxUOS5OPHj01NTU1NTRUtCwAA0sLlck+dOqWqqjpmzBhFy1IThOmw6SOtTm9L/pzARd0Y/N2jTx29fOHlWP0rkaUmk8R3j2ZaDFp8ZND89ZEHZ49bcHHx8gFTrnlLOCeuqafLwnCTgcv3LDD/OVJUFEUdP36cTqd7eXkpWhZAYfwcxiof+Gmze/fuKVoQQCl49uxZfn4+JFMB4Nfg9u3b6enpSppMLUhJ/s4V/yA/IfE7jzAyNeEnk2rePZrWuNv0ZZ6tiKLkRP4HlbahVuli357JfR18O+Vn2Zb14cOHCQkJzs7OjRo1UrQsgMKAOLUMW1tbAwODGzduQNlLACF05coVhNDgwYMVLQgAANLC5XJPnjyppqamnMnUkpDlXWw6j1l56Hrkm9gPr0KPLx2zyD9H3X7qH90Fu54y7ceOtsE+nvWL5FqPFO0ezY3Z6uY895+bMak5WUlPzx64Gstr1IG/3TR/G+rc+6ePR759HhL8HCHCwmuWq1HBnZXuC/zCP3/LzfueFB16esvC1Ze/KGPgKkqmjh07VtGyAIoE4tQyCIIYPnz4jx8/7t69q2hZAAXz9evXJ0+edOnSBbaSAoBfgJs3b2ZkZLi5uWloaChaFgkwHCbN6s4O3jLdpXvblq06Onlvf6Y26M8L5xe2Fa3No3XwGttFBSFa21GetoLgFeEGVo0Sj892bmesq2/eZaLf905z/lkn2K1Gtd80XzuN1Cu+3dt0HrLQHyGENx61/9JWN4P3+yb1aG6oo21g3r7fxA2BiWx+IIAxVFg0QlWFKYoLcJaqCo2lolJW7oShqkInWKr13SSrLjx48CAxMXHo0KGQTP3NgX1Ty5GXlzd69OimTZsePnxY0bIAimTfvn2XL1/etGkTvxAEAAA/L1wu18vLq7Cw8Ny5c+rq6jX/QEGUZLx9/iouoxDTbtrOrmNTjQp5pCp2jybzE188iU7ORdrNbO07GquJ/0TiNtS8guSXT14nZXMZOkZW7Tq2bKSE26rya6ampKScPXtWT09P0eIAigTeoyqHlpZWv379bt68yc+lKVocQDHk5OQEBQU1adIEbAAAfgGCgoK+ffs2ceJEZQ5SEUIsw9YOA6t69b7K3aMJDXM7J3M7iT+SuFM1rm5m62hmK728Dcj9+/cTExPd3NwgSAVg3r8iXl5eBEEcOnSIx1PGJTuAHDhx4kRxcfGkSZMwDFO0LAAASAWHwzl16pSamtqoUaMULYsUKHL3aHnD4/FOnDhBp9M9PT0VLQugeCBOrYixsbGLi0tcXNydO3cULQugAL58+XL9+nVLS8t+/fopWhYAAKQlKCjo+/fvo0ePVvJkag2UvIvLt+o+YcYYi18+TEX37t1LTk52cXGBZCqAIE6VyMSJE1VVVY8dO8ZmV7e5B/BLcvjwYR6P5+vrC8lUAPjZ4SdT1dXVf+5kKlLg7tHyhsfj+fn5MRgMeM0f4ANxqgS0tLS8vLy+f/8Ob1P9bjx69OjRo0d2dna2tsq9egsAgFpw48aNzMzM0aNHq6mp1Xw0oASEhoYmJycPHz5cV1dX0bIASgHEqZJxd3dv3rz55cuXX716pWhZADmRm5u7Y8cOVVXVBQsWKFoWAACkpbS09PTp0+rq6m5uboqWBagVJEn6+fkxmUwPDw9FywIoCxCnSoYgiOXLl9Pp9M2bNxcXFytaHEAe7Ny5Mzc3d8aMGY0bN1a0LAAASAs/mTpmzBhIpv4shIaGfvnyBZKpgDgQp1aJhYXF5MmT09PTd+zYoWhZgAYnMDDw4cOH9vb2zs7OipYFAABp4SdTNTU1IZn6swDJVEAiEKdWh7u7u62tbUhIyJkzZxQtC9CAvH79eteuXfr6+osXL1a0LAAAyIDr169nZWWNGTNGVVW15qMBJeDu3btfv34dMWKEjo6OomUBlAiIU6sDx/HVq1ebmJgcOXIkPDxc0eIADUJaWtqqVatoNNqGDRtgsgkAfgFKS0vPnDmjqak5cuRIRcsC1Ap+MpXFYkEyFagAxKk1oK6uvnHjRlVV1fXr18fGxipaHEDG5OXlrVix4sePH8uWLbO2tla0OAAAyIBr165lZ2e7u7urqKgoWhagVgQHB6ekpIwYMUJbW1vRsgDKBcSpNWNqarpmzRqSJBcuXPjhwwdFiwPIjLy8vAULFiQmJnp7e/fp00fR4gAAIAPYbDY/merq6qpoWYBaQZLkyZMnIZkKSATi1Fpha2u7du3a0tLSRYsWvX//XtHiADIgNzd3/vz58fHxEyZMGD9+vKLFAQBANly7di0nJ8fDwwOSqT8Ld+7cSU1NdXV11dLSUrQsgNIBcWptsbe3X7duXWlp6eLFi1+8eKFocQCpSE9Pnz9/fkJCwsSJEydPnqxocQAAkA1sNvvs2bNaWlojRoxQtCxAreAnU1VUVNzd3RUtC6CMQJxaB7p27bp+/XqSJBcvXuzv769ocYB68vr16+nTp/On+ydNmqRocQAAkBkBAQGQTP25uH37dlpa2siRIyGZCkgEoyhK0TL8ZMTFxa1cuTIjI8PZ2XnevHk0Gk3REgF14Nq1a3v27KHRaEuXLu3bt6+ixQEAQGaUlJR4enoihM6ePctisRQtDlAzXC53/PjxeXl5586d09TUVLQ4gDIC+dQ6Y2lpefDgwXbt2t24cWPGjBnx8fGKlgioFXl5eWvWrNm5c6euru7evXshSAWAX4yAgIDc3FwPDw8IUn8Wbt++nZ6e7ubmBkEqUBWQT60nXC738OHDFy9eJAhiwoQJY8eOJQhC0UIBVRIWFrZjx46cnJwuXbosXboU6qQCwC9GcXGxp6cnjuNnzpyBOPWngMvljhs3Lj8//9y5cxoaGooWB1BSYM66ntBoNF9f3x49emzevPnYsWNhYWEzZ85s166douUCKpKamnr48OH79++rqqouXrx4yJAhipYIAADZc/Xq1by8vBkzZkCQ+rNw8+bNjIyM8ePHQ5AKVAPkU6WlpKTkyJEj/v7+PB7P3t5+6tSpFhYWihYKQAih3NzcEydOXL9+nSRJOzu7RYsWGRgYKFooAABkjyiZevbsWSaTqWhxgJrhJ1MLCgrOnTunrq6uaHEA5QXyqdLCYrFmzZrl4uJy6NCh8PDwqKgoR0fHkSNH2tjYKFq035f09PSAgICAgIDi4mJLS8upU6d26dJF0UIBANBQ+Pv75+XlzZw5E4LUn4WgoKCMjIwJEyZAkApUD+RTZcmbN28OHToUExODELK2tnZ1dXV0dGQwGIqW63eBoqjnz59fuXLl8ePHFEUZGRlNnjy5X79+GIYpWjQAABqK4uJiDw8PGo129uxZ8Lc/BRwOx8vLq6ioCJKpQI1AnCp7YmNj/f39Q0NDORyOioqKnZ1djx497O3tYQlOA1FaWvry5cvw8PCIiIisrCyEkK2traura7du3XAcKloAwC/O6dOnjxw5MmvWLDc3N0XLAtSKgICAXbt2TZw4ESpYAzUCcWpDkZeXFxQUdP/+/Y8fPyKEcBy3sbFp2bJlixYtWrRoYWJiAkk+acjOzv7w4cOHDx8+fvwYHR1dXFyMEDI0NOzVq9fQoUPNzMwULSAAAHKCX2NOU1MTkqk/C5mZmWpqapBMBWoDxKkNzvfv3yMiIsLDw6Ojo9lsNv9DFRWVRo0a6evr6+np6evrq6qq5uXlpaWlQcWAylAUxeVy2Wx2VlZWZmYm/9+8vDz+tziOW1lZOTg4ODg4WFpaKlZUAADkDz9Ohe7/E0EQxNixY3v37q1oQYCfAIhT5QdJksnJybGxsbGxsXFxcd+/f8/KyuJwOIqW62cCx3FdXV09Pb2mTZvyM9NWVlbw5gQAAAAA/JJAnKpgfvz4kZWVVVxcXFpamp2dDfXnK4PjOEEQTCZTV1dXW1sblpwCAAAAwG8CxKkAAAAAAACAMgKpKQAAAAAAAEAZgTgVAAAAAAAAUEYgTgUAAAAAAACUEYhTAQAAAAAAAGUE4lQAAAAAAABAGYE4FQAAAAAAAFBGIE4FAAAAAAAAlBGIUwEAAAAAAABlBOJUAAAAAAAAQBmBOBUAAAAAAABQRiBOBQAAAAAAAJQRiFMBAAAAAAAAZQTiVAAAAAAAAEAZgTgVAAAAAAAAUEYgTgUAAAAAAACUEYhTAQAAAAAAAGUE4lQAAAAAAABAGYE4FQAAAAAAAFBGIE4FAAAAAAAAlBGIUwEAAAAAAABlBOJUAAAAAAAAQBmBOBUAAAAAAABQRiBOBQAAAAAAAJQRYvXq1bI8X/7bK/t2H7vxKt+wtY0BS5ZnBn4qfktDKPh8+/D2PYFZzXu11pXwBPhb6kSm/D4aLEq877drl99HPUdbY0LRwgC/JGBjEqnBi0uHsuq8NP3VrUtnz5676H89OPx1Qh7DyMJYk6ZoqURgT58+recvVYxatjZWE/+IfL+rf/eF93J5COHafbaGBy+wUZ6WKju87Oirfmeuh0a+ScrILcLUdA3NbOz7Oo/2crU1aEiD5uUmxMRlcaj6n6GyJfx2hlCUeP/U/j37jwfGZHIIyzl33+3uxahwyG+nE5nzW2iQl/fhlt+/h46cDor5zkHqbqczLnmqKloo4JcCbEwytfDi9UZ5dU6mPdi7ctmWM1FpbLEgAGMZ9/pjw+71E9trKU40MTQJrH4/pFnOuc+mypF1eDBT9D1jwIEMCqgVuS/+ndRRjybhTmCEdpvRm+9nkA12bXbYJrf+fbu1M5WhJfw+hlDyNey/FWNsGzMwcXU8YFc+8vfRSUPxa2uQzI6+tHlqf2ttMTeAqbudKVS0YMAvA9iYZGrvxeuOcus89/G2ISYMlpXrxoDXKVmZCREnF/RsJAoEcO1uq8PzFS0jRVEULfHV6f9Nmn7g+Q8eXzTC0GnOYmfTCvluisdhF+RlfHn/8uG9iM+5XAohXlFhAa/8UZpde3ZSvxVZQCGEqbbvYa9b61DnN4aXcWuJs8fO53k8Sd9SZO6bi8sGv379T8CxSS2Zkg6REobD0kt3liLEy3lzXlaW8NsYQkHIrrX+mVadHVon+L/MlngHhfw2Omkwfm0NUvmxbzLMhi9Y0fTIxmPPcqu1JQCoD2BjEqmDF687Sqxz7sdD44YvvZllveD+qeUOqggh1G3c9htNGb0HbX5ZRCHEy328dc3JP276Giv8PSaKoopvTTUVzSzTrBeEVfccQWY+3u3WjIkhTNvjQqVnAm5GxOEVUydPWXbwURq34aLrXwdu3KGhBjhCCMNVjW0HeU1fsGz54tneI7qZa5RLb2Ismzl3shouq8pHdpbwmxkCmbTXSVVwv6p8Ev/NdNIA/BYaLLk7w1zQCZUn7wL8UoCNSaJWXrzeKJvOufH/DNTGEaJZLwwv39KS6K19tPmRKUa3W/9WCVwtoiiKTNhetg6jpuiEoiiq5NXfPTQwlsvxH/IQ8ReG/Hbe0wjHcJ1O3vvD0sqpnZP6cOdoaxWxuQJ6ywUPG9i4wRLqCztiUQtaQ3k44HeCTNrZh6FE4xlQH9gvDiz99xVH0WJUAdiYRBrUiyuZzksezbemIYQQw2lfasUEGPfr9UU9jZgMwx7L7zTgmsPagyOEcE0NtTotTWS2n/3XOAussLBQmbLYPx9kvN/+q9/0nDbduX90hkPjcmu2aUY9550NPe3dgim4NRTn44k9AdkNKhBYQn0htLQ067m8FwDEwTXUVcCUfnJybuxcf/Z5OqloOaoAbEwiDerFlUvnpY8vXovnIoQwmqaOVsVpfcJ46NaHXwuLUh9t7G+g8Dl/JKifStDq+kK5Wq8Jbs05BYVSvCUOkIlXrz7V89h/cmFnDYkHEMauuw5Ot6YLrJuXExYcUdKgIoEl1BcmU2avhgK/N3Q6XdEiAFJBfji680q6Mj+6g41JpEG9uDLpnEyIfJLMRQghjKnCkhyJ4gShDCEqQqj+df4ZXVYGnZhsokwVwH46foRHfO62eO3IxtXcBPWec6Z1F6ZUedmJ8d+VzfuBJSCEEEYQ9S2XAADlwHEcA1v6eSETji/bFl6oaDGqBWxMEg3rxZVJ55zPn5MEyX46Q3nC5yqpd8CMaxmbN2qI989/G3hFet1XrhrfrPoIjzBz6lNWJpLHU768JVgCQgjhuLK4IOBnByzpJ6bo1XbvRdczlC2dUBGwMUk0rBdXIp2Tudl5glACx5Uma1o1dRORZBcWcRtIkt8O3Nh50azeOjUdRrMwbyLoPRhL30BHOYwKLAEAAKAcJe8OjXP584FSVR8CgEqUlrBJQZyKKU2StxrqtKFLyY3pHc8NeXVmdPUbKfBy34feeo538XSsIVeIEOIVfIl+8TYpPbuQUtFpYtWuo42xusQfkUkPz9+LY5dPJxKNu7oNthHthMTLen4tMDqnvJMgzHqOdbKS3E4y513I7dcq3cb0asq/aEnaywdhH/K12/Tq29agCt2QeYnR0bFf0rMLMXV94+YdOrVs4GyiyJBozdu1U2nQS9WW2lmCBEMgkx6cvxfPlpgVxnXaDXWx1SsLxHnfnl69+aZ8YVnCxMG9v7VEhcvtxnBz4l++eJOQkc9j6Zi0suvSqlHtVzXVonPw8j8/uBlZ2n70wBYssQ8Tnoa/TMghNczadevaQleScZI58S9fv0tIK2QYtbbv1saw1q2vu+a436PvBL/X6j3KoWz3PzIv4VnE87gcnqZZ++72kkUsf5LcuOdPY5K+FSKNJs07dG5npkEghPJibj6h9e7fqirTqot7QdzcxJhXb+LSckswVd0mzdq0b2umVaslKjJpIEKIV5j67lXM55TMfDZiqOk0tmjVrq2Fjrz30Sr9HvvqbXxKenYJXdPQrHXHjs1qLYLCNShlC+pu24WJj25F8mzH9DYXea28+GeRL+NzKA1D87ZdOjVVl5QsKInz/3PitN0R37l870YVfb538r9UYSkiVWtHOzLsoayHMIQUbmPy91dSWKXYKaTw4nzkHglUok5qIL+EXbz7qZhCCKHix6lCGyuOv3fqvwzRrwjDLiOHtFZvYMHrDEVRVO6xoSL9VlONiBO92lbPvXLRVBHFyWEn/prYp5kGgWGsESerrbzATY88stClnQGLptqkTbfePTs316NjCGMadnCZfygivVLJLs7rE0tn+HgMaC2+bROj144EsaoJ3KSAtVO8XBysxPd+YA49llvp6oWJD/5bNb6XuTqO4bpeV4opiiLTQtYMseCXT8MIXfsVdyuWKy1Jurtr2oA2BizxBxCMpmHey3vzjc/F1bVWCrgf/rbnLyChtVryuIELHsnIEqo2BM6Lgz5DbI0rvPiI0Q06ufrM2XQ9udx95yZcXT/LZ6SdEf9NMoxu0H7wxJ1hBRUvJ7cbw/56b8+Mga106eLXoeu1G7XmWtjW3gI3V0VFk1p0jpLUqDPrffpZa9MwxBhwQFAQhPM1dIdPD1NV4ZQUhqs27bfo0qcS8ZN/Dljr1d1UTTRthTGbOMzwe1NJVRWvWGfNFcSHHl7h2d1UDcdwI58b/EPI7GfH5va3FJX8xXBVi4ErA5OrLMvDTb27ZZxdYwaG0dV09fU0mQSGMfSsHUZMnuHd10zNcW+KhGIodXEvVMGnG9unDWytzyhnaRhDz2bAtO0346r+sWwaSFFkZtTRhcM7GLKwiraubd3XZ1twcpVdufDkCJZgAkXq+jW5by6s8uxhpS1usQij67QaPPvfyG/VVpxRuAalbEGdbZub+frKtpnOrfXoGKY55jy/gbkv/pvtaKFe1rEINdMePnsr1O/lvD3g2qzaUil4Y++AJ7IcwihK4TYmf38lhVWWIY0XFzS8XgOOLPt1fdRQHDCxFu/u03tsjVOCgqkVqEOcyn72vw4MbUnRCTcr5uqO2cPaNSrTWrUDCfntwYbBpgwMoxsP+ftBmsBVFX/2n2+vza95z1DTFKKlpa1t0GnZQ4FQnLjDLiJtV+jkQjifDwwRpeXKdXLOt1eXt810bqNfZqO4rteVYjLzzoIO6uU8IcNu3ZuyUxa/OzG5jSZOb2Q7evH245evX7twbOt813ZCj4MRul3m+ic2RLm8H+fG6OAIIYzReW10Q9fjk9ISamsIP6IPjWlWdgsIsylB1ezOlu8/3gBHhJHLoQ+V5ZHbjeEkXJlnr09gGK7ZauSf/wW/jEuKj3l4fvMfPY0ZGEbX1tHEJXq4WuiEzP0QtG/hSFsjltj4NeBABkmRGXf/6mtErzwAYnSLCRf4wRw3KWB+Fx0JC6swmvEov4QqfU7dNMfJeHFx8/TBNmLeXRCE/Hixb5SVhIormFrH5Y8k3Vb2+yNu5gxczWbszuC4fJKiKIqT8yn08HxHE/4bg4zycWqd3Uvmo62u1moYRjfsMmHNieAXn5IS30fdOLzSrbUWX024ps24gy/L1/yVYQMpquDVflcLJoYQrmPrs/v6s89fUxLfPLqwaVx7Uf3spmP84iXfGxmNZ2RayKp+xkyMbtBl0obTd19+Sk5JfPPg1J+DzASPfQxT5+1REgMgJdCgdC2om20XJj449r9xPczEwibNMecLKTL1+uyOmpKGdoxp6X7kbVlAQma9fxQSHBwcHHx5oZ3gtRTcYPjWoGAhIQ/fZgpsWrohTITibEwx/qqeVlme+nrxMuo/4MiqX9dXDeS3tw9CBOZ4dYm90Ez1nDeVmWlw8N2nSQ2VcpOCWsap7LTHh73bqmGYpOiE/XSrh+vkWXMm9zVjijp61QNJ/uM13bVxhDC69ey75fsfmXZxnHBDJAzDCYIgCIJGo6taz7krehz7cdpNWOSsik5OUVlHnYVuUbyTF9/9a+SYKXNmeXVvIupLuK7XpdgTI5uoGNs62jcteyamtVoSKfhZwdNt/Q1puF7PP0NSyz9Gfw2cZ6shfG5Ubb/oXk4Veq43Bde9mxAIIbyR28lBUqsKAAAgAElEQVS0Bq+4K50l1MUQcm9NtxTOBdFaLo6sOlFMJu3uy8I1HXd/ruTC5HZjuInnJlgxMYTRjJ13PyvvAbgp12e2Uy1zu+U9XC10wv1w0Ntl/Iw5PgOsyk7DGHAgLe3Wws5aKkad3eb/feDEmVP/bvB1bFo2NBDm027lcxLOT26hgquadHWb+b9Nu/buXDt3ZHtd0UurhPFE/2xJDaqr5koerR810nv27PEOxmU9x8gnMO3Rml56OK5ibOcyccaiZYumjezcWHQApuqw+X3Fm8Z5s8lBHcO1B+yvNIRy4k6OMaNhFeLUurkXMjN4sa0WjjC65fhzCRWGi8KYg66mghgH1++z8XHZnZRdAyny2zUfSzqGECKMPM6lk+W+CvAWzibjjcddknhvZDGecT75jbNWwTC65Vi/2JJyX+WHzBD2PIww9jxbMXWtBBqUrgV1tO2SR+tHuU6a5jPS1kCUw8Q0x5zLerahhzaOMEJF18TSykxPpXxohTGsp16vlM8lMw4MEGTkCJOpt0ooiUgxhAmvo0AbU4S/qrdVlhO83l5ciFQDjiz6tSzUQFEUlX14MFPURW8oYWBagUpxKsbQMbUqj4WJnqrAkiTGqSLyr3sLlyJVOZAURy5vxx9u6F03VPZQ3E/bevK7J0aznHpDks2W3JwivEqVnbz4yjhdvMpOTlE/rk0WngPXGTh+eNPW0wJSSIrKj/ab6dCYjmGsZqOPxvLNIPvWDGs6RpiOv5Qu6cE3eq2dMM+DMdqtjJLtzHzWeQ8DHCFMtcs6eWxuIiNLqI0hcD9sFdxphNFtV1eZKuZ+2OzAIkx8rlfqdHK7McUvNjho4Qhh9BazgiUFvMWPl7cXJfuqeBKvhU6K780Wxe50Oy+fbq36Lb3wTjzfRKZcmWwpHOTxRi4LpnXQtRiy5kaCuKcpebOrvzAXg2mNOJFZ6UJSaC77zGhhz8L1e4/s21in/YQ9j8T2UuMmnXIXVSmjt//fy/I3tuTe7GYEQvSOq15LuONk2pkxjXGG5Hn/WmiQm/CfqxGBIUQ0/SNQ4qNJ/qOl7YWjBc18wqVKW7FI20CKG7vZQRBQM/r9U1HB7KilwvIdVQUy0o9nufcXt1fBEEZvMSe08lglPv+HMew3lvPCyqBBqVpQf9v+EegjSpJoDl++sKOqjq3PvpDP/JQ/mfshYO2wZmIpRIxm6XurgnC1i1OlHsKUwMYoOforWVilDLy4lAOO9DqXhRoETfnp41SCpaVTDm0tNYZorUm1cSqZsEO47WZVA0n2eY9GfJMkms4IkdCDyMSdfQQ9EFNz2iuhD5cETzetsZP7j9erLk4V2yAUwwn1zqueiN0qdlZycpbQyNhP/9eBgWF02zUxkiMp7tt1nUUFyAiTKTdluCEa9/3WnmoYwphtFj2sZmJcdsjIEmphCBRFZpxy0xPNsswKlXwUO3JJKzq9zbJKvV5uN4b9ekM3NQwhhOu5nqgipU0m7XEUZj+qiFNro5MskfdAmHqHmQESVu+RCTv7CMdKjNDvufKOhJ3ui+9MNxN0EaLZ7HsVuplUmhP/DqM3dd3/qtKaMs6L/7UXHIKpOB/JKnfqz1sc6AghXGfkSYmLC0siFrdUlRyn1qhBMv28ZxMCIYTRO66q8rEu9+Y0C2E4Qph5X6vwLCxlAymq+OoEfYFZM/ruTq7YkPyzowS5NIwled2htONZceSytgwMIUxj4IFKl6fKb2OOaK2WiM1lKIcGpWiBNLZNpu5zEtoXwdK0GrH3RUWny0k4Pda8bFobU3faW36iupZxqrRDmMJtjI98/JVMrFJ6Ly71gCOtzmXSOQX8bHFqpcU3hOWMG+nZ4uTkFhRlfbyzvdxu8xLBtbU0qj+EHRXyKJv/ohmu16iRhFfTcCO7ToKX76mip6GPflR/yXqCq6mJHowJS59tS+zK3lREDF1TU12BsykMOfhfTClFmNp3N2EXSqKkkZmp6FxkRuTDt7Kq18T7fnXjrohCxGoza9+qnnJ/A08KS6jZEBBCuIGrr7tggoqbcO7AVUlbGOTfPnT6I7279x+2FV7GlNeN4aWfX7MzqpBCCNcdMHZ4FXsy4E169mhR/Qu2tdEJS1tLqFl692mrhppWPiXexL6L0A8RFl7rV/VvXLkXsTp0tBHMYfK+paaV371ROs1hWprCZuCNPHadnNFeDVWA1qprZ8EoSnHTU1LLqb2khI0QQrzc62uXXEmufEeYdqPd2qhIrLZdkwa5r//ZdDmNRAgR5n36t6rqdmj1n+1jy098UOSXs1uOxJbTj7QNRDQra8Haa0K/maVeRYOha+toCH7LK2qA/YZ53y5tPfy2lEIYs6uLi7EEe8XNJm7c5GFroq2ubWLv87+pdqKupRwalKIFUtk2rq4q8mv0Tkv9z83qWNHp0szH7ts7oamwx1GFYRcuJylgc1QF25gQufgrWVilDLy4IiMBhJCsOudPSu2qcRLaVv0XnLr4p331BakQg8movlBu4devmUK1VVG3i2ZiaiSQiipO+dJAWySX7WGGadj17lrJkQpgR14PTiMR4sbv76+jLhmDif75olojZEqShMG3XuTdW7fyXCpPo8uyI2t7S95YVf7U0hJqNASEEEKqvadP6sjvUrysG4dOJVS817y0S0f807UHT/GyqODc5HVjyE8n/w3K4iGEMHqHHg5V3gZcV0erhgbXQic4g8WoSW2EQSM9wTFUKbtU8r4Paro6ggJmFKe4iC3+lZSawxlMUT6JYDAkFkGhGRsbCr6gKgyThLGlmSqGEKI4n06M7d5/gd/L7PLDKM1ufVSgr5Ekx1S9Btnhx0/HlFIIIYywbNmi6iIzREu3ER0Fbp4qibpw8YO43UnZQIRoreefOPk/n7Hj5+8+v3FwhX7Cy09MzuQKdcvjyrwGMS8r6GJINg8hRJi1bacv2b9rdJl95tmXnPycL5EHPS1FTVQODUrRAiltGyureM4wsWomucaQzuDF07syRT3wVVhYvsTjGhTF2pgIefgrWVilDLy4IiMBvgCy6Zw/KXUossZoM3lc9z0Pqz2mpr0N6AwGjiFEIYR42ZlZpAQBcBWWuINooP2XiFptPEEmPHmZRiKEaK2mnTg4zqzmqB4j9K1lskVwTsifs/79yGs8bLvfyi41PB7Im1pYQu02uaC19p7af/vzG3kUooojjhx+NnNTVzHtkR9PHrlTYDpp2oiK9TTkdWPIxOvXnvIrHuL65s10a/dYVwW10AmB11gEEGOWRQFVdg6cTqcL+hkiyw1UUmuOqLkVmFgXJsnyXlJ7kJeLUcDJVBIhipNyf+ekLse3DP1j/sK543oY11h8sDoNlr66GZLEbymmqqtX3YMd0axHN3Na1CcuQojivg0Pz+K1LrMwKRuIEFJtOXrNkdHlPuLlx907/9/xk2cCwhPzhRW2G8K5cZ6FPSukEEII05E4YVU1UmkQtTYo+1YqDda/BfLxCoSV23Db/0VGcCiEEFUS/zEOIds6nkN6FGljZTS8v5JFv5aBF1dgJMBHZu7t56QuxYBx3eaW+uE1HFR9+KfSslUzIuAtFyHES/vwLovXp0lFBZIFBUXCHb00rVqY1snV1oHaxKnchISv/Ed9TNvSvkdXGdpdtfDSLs+f+m8svf38k8d8rOVdFLxmamMJtdEvwo09prutuXUshUQUJ/bUwVvLu7poCb9kRx397wnZZsXUvpXS3VLcmNKoVT2G7ftczaMurfWC4Ht/tqchhIqePI7h8K0R09CuKWNaIzX+vuG3BpHapGu1fYnYMVSFwUl3xOYD0157HYguoBBCiOLmvL269Y+A/Wt7ec5atNh3aItqF7hUfe2816/ihfEOjV79ltUMm9ZWNOwTl0IIUZzk+AQuMhApQtoGloeX9yHo2N79h86ExBZqtnQavfxYi+iVi899baAcBy8rLkE4Y0VRdZvwlUqDCJXFqVJpUIoWyMldE2b2nc2IiDguQgjxcjKzG+YytUfONiaGHLYykkG/loEXV1QkIEJm7u3npE5hNs3aZeYIG2laTOvg6tKS/3hFsZ/dvi1hSSLn48cE/qeE4ZBRTgrdGIHMy/3BQwghXvqXr3LbJrT07f5J009+bTL6wOXNTpXWHikF0luCEI0B0yfa8C2CTPU/eD5FZBF5tw+f/cTq7TO5feVAXZobwy3My6mW3LwSjuAyX+KSisoSEw2ampATijFpcXAjl7337x30sRUvd04VJT84usSlfcu+88+8LajHWbnpaZnCHBJVUlRcfYCjZmSkI0rylBQVN8idLYy9utbD1qqdy6JT8Zbee4M/JL+7eXC5e/s67MJUZ6jc3B9CLWR/+16XSEU6DdZZ0qqQogXysm2ahWVZQo3HU+S0qiJsTK7IoF/Lwosr2m0qoXuTK3WKgoimg31Ht5aqBzA6z/nL3YSGIYSovDv7/3nJrnBAwYOrwekkQgjXc1r5p4u2NBeTHkrwqM/Lj37xTi7myfsWtMB96V3U92//Y+ObKau3kYElCGF0+mNKT37ZWurH3cNHBYvPeamXDl9N1xs6Zay5JBuVz40h8/MLRQ4uPyf35+/vijDpyuA6naceiXr76NDcAZbqYitwKHbK/d3jezotvZ0hzbsfFPtbWma1J8DV1VWFZoWraWrIetKG9z18+6hOnUf+deG9xsC1QTHRgdunOzWrahW8LClbGkF+ffcmq55qrLsG63cdiWeufwvkZNu4rramqO6JuqZmg12oWhRnY4qinv1aJl5cGdymUBSFuzf5I/dACG88cvepFYkjN4RnkSUvtk1eYHtzj4uwmByZen3JwhNJJMI1O805ccLXWsEKxjW1NTBUQCHEjb15/e2azhJSezKl8Pl2j4kHk20WXD0/v+Ov7HLEICy8pg/bcP9sBg9RpS+PH3ywaL+TKhnrdzSkwGLKNBddSb+R4sbQmg1fsc0ku5p+jjfqKkiX4EyWqLQ8LysxIYuHKq1T+cmQu0lXCWFo/8eu2xOWRp7avm7Toduf83n8hQC8nCfbvCY2jbgxoy7dHzcw1MNFS9zi3r/nILNq1rviZVsPMSyay/Z5kJdydcagcYfeFCKG9aTTIYfdGmztUmUIXV1t0VsrT0NCcmaM16v2B2RiVBTq0N2cKaUGZSE8Qki6FsjNtkXz3RhhbG7eQBepDkXamFyRQb+WhRdXtNtUIvemEBQw6uK6vdbcDju7qK8xHRXFHBhla++5aOOe/Xv+XuzZ3dbt4DuqSY/p/4be3e5cRfWIcsufavFsRFW/gKw66JbNBP2f4kQf33srp4bjuW9PbjpT7zoQpR+PTxq5MkJ3wjH/vx2Vc76/YdAd5jvWit+XyKQLB/y/8diPjx5/yus4cWoPlsRfSHFjcKNeE+fOr46547oLlp3TjI0bC0skUZzXEZGFtWgNRVE85U28ytekJcAjSfFnBIZRN+9tQTExQRtHt9IQ2jwvK2TzztCSupwW12nXVlQviMx4GhFbXdKDKigQTIZh9Hbdu8kyI0Z+/vcPn8NvCilENPHYvF3eAYRWc0th4R9eXvB/p+OrvXW8rCt/TtwZXoyQ8miw/i2Ql23z8nLzBF2cMO/YSb/OJ5B2CFOwjckTGVilLLy4ot2msnRORaGgaAinitLT2NbjtxzasdyjPZH8LOR26PM0jR4zdl+Oio97dOAPW+0qJcMYTGExDKqkpOa1FyS33uZCWHSzE+V6v5xc/L/b1U1D8VIvrFlxKZZdvwUwyZd8XXwDyCF7rh4Y9Qv7HYmwuk/16cISFKi6eejk6xuHz35Wc/pjok0VT4LyujE6nTpZCUXgZd85HyipxmtFpDC4hkeOJi3xhGkHhnZb86qik2U2HbjsQtS97YONBAMKmRb+oG7lBxmdBjkJG4a4b4ICPlTz86K0dH5GHWPaDh9uKcPuVvr00B5+VSVMpUt/J53qj67/I3RVMDs5dBZWL6UKHu5YX53J5j/asDrIop8jfyBTEg3WvwUytG1e5SoOZXA/fU4WvEJh4jSkYmXnWiDlEKZoG5MrMrBKGXhxBbtNpemcikJQDViuplwUvX9M/ylB5muvHl08Zd6aXUdOXbhy7drVS6cObf+fr6tdkxrK0+A6oiJnvPQvKZJuV9HHd/ElwlXH7JKSei92Y3YbNcxcWIusNPbgOLd1j6qYMi79eGzm4uuNnF2riq2qgUy9NmfopBNZ3db7n5raqrr2874ErF3dgKWlFeTUCOuJ0wbr4AghRBVH7B234nKGwfApY0yrfFiR042htRs2pMzFZV3bvDOqxodxis0uUeKhQU6aqxrO+xsB7yX1Wg3bOUf/dhFUjaGKC+pYn5zVy3t8G8HwT3FenToSXlTVoezXr96VUgghXHvg1AkyXV2U9/q1sAwwj1vDAwtFkqTMLUVnkFs/UeUdMtlvxpRjHyUOaWTypTlT/snoM9bVUHC4cmhQihbIzLYpTlFhxTcnyi77+VFEMhchhNFbe03uUc5d4xgmrElRzd2VcghTuI3JFemtUhZeXOFuU7adk6ryD+UERwghdimnTFRSurrAlIT/icP7fn2e2/zANN1hMyZa1es+0kwtzATrTcjU+7efV5geJNNDVw9z3vBM6GaonCyJi45F4lVb/ITVc+aMHqKnezLzwdqhPTw2304qf9Gi+KC1rv1nXucOmT+tXV0bxUsLnD/E698v7VdcvrTIrrr6BqXJgUtG/3GuqIlRBdMriDk5f1jX9h17uv8VmFhax+uLI0NLqMkQyoMbuvmO4e+dR3GT3sWWWI2dOqS6l+jkcGMQQohhN3VGHy3hvhPs6B2TZp5PlKAWbl5egXBUyc/KrGLKukadUBL/W81BtZk0rPC3lJrjUbUSshpKX/23W/LEGW44wKkDDSGEMJqZpYWEG1adBhmd5qzyEOYcuJ+Prz7wTnJfYD8LvJNMIoSxOs75n2fFLQWkayCO4YIfUSVPbt2qmLlhxwddeSzyR8XFgjeS02NiUkXxhtgsb330qzdyvk8ruuj+pl6bNWD4utvJ5cKuwrjAtSP6jD+R1Nxn0eiy2opKoUFpWiAzr0Amff5UhSNlPzt5/jUXIUQ0Gb1ydqcK2VQGgyEIVKm8jPSyUCL32cXzUcIcnJRDmOJtTMJvG8xfycAqZeHFpTctKXUuo86JEEKIx+GIBvpStjQRg7ygKIr7dr2dqCAX3mhiQL23e8056ixcscwcfKjirs0URVGcF6s6MjCEMLr12IOPEn5U3uu3ZriftjgIL4Op2kw4FJXBoSiKIn98Djkwu4+xmpnrvu3uwgWeGLPzqmeFFEXmZ2WXbRxctjMxxhp8KLO6y5W82tSrwioEjK7bsu/IidPmLpw/c7JbXxt9BoYQbjjscFxd28NNvurbTh3DtbvO3HPCTyLHjx0+sGfr6vnj+jbXxCVt7VsQ7NuMJtKH/caYOsogJo2sLKFmQ6gM59Vfgv3eEMbqvul9japs0BtT7jI9xS6DsSxHbApNEbsHnJTQv13MRUv1Ea7vcjieQ1Hsb+lZYpethU6KL43VEW7b3WdnksRdqMV2uceNfAIl36Hiy166ohPtqnQiKTRHJpZdXm+8v8TLc9+JzIgw8w0R366bv4c6Rm/u458qoXncDxu70hFCuPagg4mVvq9Zg2T6VR8r4ZQqptl9TVTFHdopiv1+T39dHCFcy2H908q7bEvZQPb9OZbC8QmjGQ/ZEvZN0I6CuKDNXh10WerqwkbgjdzPZZElsae9O/Rc81pkUd8ODhT6Jqbz0RxJAtRATvBcG9EOjoIzGbYf4O49c/6C2T6jHVs3YmAIYUybOcEVT694DUrZAilsO/+4iyg5Spj7XMuUYKHsN9v6auMIYfSmXudTKh9QfN1b+F4FrjNwb2wJRVEUO/78pNa2K6JEG8ZLN4QphY1RlPz8lQysUhZeXMoBR3qdy6Bz8hHrfhizhvhHKUAURX3zcxXTPt12TQynxt9JhPN0RRthmENvs/yJhNNkHBgg9gCK4XRVbT1DY1NzS+uWNm07dOrctXuvvv2HDB/l5TN75Ta/u59+SLJ98utx10ZiNocxdEytm5vpqRAYxjB3+/dNcaH/+LIXkTBcpZGZmbFFn3WRQn/IebWqo1BSwmiif2617SJTrs+rZsEsQgjhmp0W3vomsaNWo6/48z42qnUpO4wxu1UK4Divy9qCEGIOOVI3KcSQlSXUwhAkQCYfHKSJIYRw7eH/pdVGlw11YyoJdmV6W3Wx+4QRGuY9Rk1dsGLlkhnuvS216Np2E9za0cW+VzMwMTZuPcEvQXSzaqET7uctDsJDaNYLwtiVD6EodsTiloJBClMddixbosCp//QXjvK05vMeVj5RvTVXfGeacPU0xnTc+1WSZktCZwn3ucVUBx/KEDuGH6cihHCNtt7/vf5Rvv0plydZ0jGMMBi4501lmWtnVYWv9w0zESTjMELfYdGl92VX4WZE7HKzZGII17KdF5gi6eFFygZSJY+XtaGX2QrGaNSyx2CXQd2tdegYs6nzxpBby9qKLAVj6hk3UtWyW/mozAOxwxeKNhmnt1nxtF5dsOTdUXdLZjWuBaObDD/wplJ8qAwalLYF9bZt8TgVYUSjPv+7k1JO+z+iD49tzsIQRjPqvyXqByUBMuXgQJGrwGh6No7DnB0sNRkW3lfFryfdEKYcNiZPfyW9VcrEi0sz4MhG51KrgaIoikw/PkLUCsJ0SlBBvWSRIyju1sahpnSsnKI7eO+7G1dX0cnspzudxSakicaDtz3OrKgqzpttvau/z+JgdAP7WWdjK/sibtIF7xYqFZwYRujazbkcz6YoqljUyTFc3bz3xNV+4V9FT3KFiSHrBzQukxRjWLrtvJdU1bMHn5yofePa6xCS/Camajlia3hWHWOh4nfHPKyq88MSr+S4J6FymumSl3CFGcLorZZE1k0QPmS+rCyhdoYgkdyrk4wJRJj4BEocAyQi8xsjEfLbvQ3DLNUqXwXDtVp77o3KStzZmyG8BY3auczdHfgup+zCtdAJmfv60GjzstL3hOHALRHfKjiz4uS765zK5mkxtXZT/F5llT+IkxF1wN2SIXaifutCv0oYz+uuOU5G+MZ+ZTuuY3Qrr+NvKjxKstMerO0rNsIybaZc+CQyIVGcyv+uSVePRVuPXrgWdOPysb99+5qxMFy7/aTDLyvf/rpYFTs+YHl/M6F7wOj6rXo5jxk/fsyQruaaBIYxm/SYcfy1RAuTvoEURf0I+6u7TsV9mTHV5q5bHmSQFPXDf4JYJRNc23ZuQLKoHWTO020DxTY5xA2c1t1LlRhO1gQn6dryfmYsCbcXYzTpu+xaosSwQik0KH0L6uUVyuJUTLWzq6u1KkbTtnYaN2/Vxi2b163wdetizMIQRje09z31ruqZpty789uUG5owmqHj3xEVUyFSDWFKYGPy91dSWKVQZum8OJ96mZYM+7W0aiiIv7VhiLHYHiuYWlsfv+ic+s84ygFUxT73GE7XaGRs3n9LbTJqmX6eZvrq9MqbqGE0NT0zT79yaWUyM2LnmJYatY9VGdbTAiXMwJDfIv+dM7SjqTaTztJuYt3dbeH+u4nCG1/sP16fodfGedb2qzFic6+cVxv7NNakS2ozhjM0mwzZ/am6u8VJizixZpqLfQsTfQ0mnaXVqGnbvp4Ldt+Mqz7ElUj2saEVnVTNqtAaekTSbCmZeuevYTb66ppNbL32RVWfG65Eyc05bU2NDbSYMrCEOhmCJNiPl9qwWi+LqmYIlYQsb0w1FMTe2DlvdM9WJvrqTIa6vkmrnmMW7r0TX0xRFJm0szdDxbir+4oj9xPKXbUWOikO9G3RSEPiISrahtbTAoopqviyj0UjTYaEm4TRVHSM+/79mkNxXm7oa6KnRpNwDMHSNnE7Wtl4aqs5MuWIW1N9dXplETG6up6xw1+P2VThRe9mRrqqlS+P4QxNww6LKIqiyNR9/Y3sJi1fMWvcsL5d2liZGGir0gkMp6vpmbV39Fp2+GFyJeddP6sq+Bx8cPnEQXbWTbRV6ASNqa5r0qqbs/efB+98qjxZJrsG8sl/c/5P9+7NG6kxGGq6pu36TfzrbLSoX3I+n5nW1ViNpW3aacSyM6LPq7YCgqVt1Hm5xCxTTeS+8d86x82hlam+BoOuom1k3c3Vd9OVt7XyEQrQYGjlkbv+LaizVxCLUzXHnC/IiT7/1wSn9ub6anSCxtI2bNq656jZm86/rPHBl/s1ZJt33xYGagwVfeteE/8OSpAckNRnCBOTVmE2pkB/VWerlHCC+njxCtTFtBqkX9dHDdy32weZN9ZhSQqxMZyp3djYxKRprzVP6iVPA4NRcn/Dm5d1709n9ys2mw9OMMxKScv4lpmVm/fjx4/8guKSkuKSkpLiooIfOVkZKYkJX3NKeBTCmN02vnq0rOUvUF4BAAAAUEYKTgzXn3SNjRDCNMecSzs/RlXREgEAgBSwH1Ve5Ea30Xt5M+/um9ylJjdQkhZ1dtX0uUdfv456WoxaVvcqPAAAAAAAAPBrId86/9zPRye6rQ7X9d6ypMYgFSHEMuo6eef/XPQwafaUAgAAAAAAAH5G5Bmnlsbs8F54PQ0zH+LWvdZ713OKijhEyw4dVBpSMgAAAAAAAEDZkF+cyvvit+Lv8Dweoorzf9S2smzR0917g7Hekye0lvsCBQAAAAAAAECRyC9OLYkKDcvjIYTI1NMLpvz7MremXRF5WRHbxoz8O67Lqp1Tm8E7VAAAAECDQfFEYxKPbLCtqQEAqCPyi1OZ7bp05G87RrE/nfO1b9V1zJI9Fx++Ta+4jTdZ8OXlzaN/TejRznFZhMnCc2fntmFIOiEAAAAAyAReYbFwS3eKU5hfrFhpAAAQIs+6VGSS//xRPv88zyHFL4kRLK1GBvpaagwCIzmFP75nfMsrISkM1247fsuJvVM6aMhLPgAAAOD3hP1ofjvHXVeTv9cAABYlSURBVB+5CCFEazbrTszevlCYCgCUAHnXTy1NfXh47ertZx4m5pNVXBjDNcx7u89asXJGP3OWPGUDAAAAfivIotzsvKykZ4H7/rfq5Osfgtk9TMV61F9/zx9ma9HE0ECbJd+6OAAAiKOAOv8IIV5B/KPr10OjXsa8T8zI/vGjqBRnqmkbGJtbt+3UzdF5SA8rLViQCgAAADQo3Le73NwPxnKr+p7RY/X9Ix668hQJAIByKCZOBQAAAAAAAIDqgfkMAAAAAAAAQBmBOBUAAAAAAABQRiBOBQAAAAAAAJQRiFMBAAAAAAAAZQTiVAAAAAAAAEAZgTgVAAAAAAAAUEYgTgUAAAAAAACUEYhTAQAAAAAAAGUE4lQAAAAAAABAGSFWr16taBkAAFAkBZ9vH96+JzCrea/WuhKeXPPfXtm3+9iNV/mGrW0MWA0piPyuVANFiff9du3y+6jnaGv8c2/hrDQqBQAAqBewbyoA/LYUJd4/tX/P/uOBMZkcwnLO3Xe7ezEqHEK+39W/+8J7uTyEcO0+W8ODF9jQGkYY+V2panh5H275/XvoyOmgmO8cpO52OuOSp6q8hZAdyqBSAAAAqYB5fwD4/WCnhB9f6d7ZsoXjtG3+0Zn/b+++A6I4GjaAz+4VOhwICKKGIKJYwGAX1KhRP7FhRyNFTdRgLESTNxoTY95Eo1EJmqKJHcUWS4SoEZVXUZRgBzUWmkpTejnuuNvd748rIndwJ4Li8fz+wru5ndk5XR9mZ2ZlNf+yWnzhZHwRSwghhC2K//tcQYO16dXVpAVbmHRw9awh7s6dR8z78c+bT2vpkTfIa+1SAID6gJwK0OSUnfrxm8NZtt28O1rrugJY9uzrZU4RQgihTD19etk0WKNeXU1acKV3k3Nbj/5kSXBXkeFcFF9rlwIA1Afc9wdostiHPw1xn3dazBFC+Nrv+xPCPLm4LXx7/FObnoHzP/BxaMDpmq+upppJz8xpP+SXdIYQQr3x9/0bR5cCALwE5FSApqvy4qce/dbclZNacmpjVHlt41eJvb+d6Vnv0y3Zhz8Oahv6v0pSHzm14ZoJANBEGM4tLgB4UTwrK0vqdTfixRX+Ffbtnis5TAMcmrYwN6mvHmnAZgIANBHIqQBNmJHRmzGAWhXz75awQzlsAx1dIBDUz4EatpkAAE0DcipA00XxeLw3bDyVSdv++ZoL5Q12fJqmqXrokoZuJgBA04CcCtCE0fSbFVPF19dOXxSV25CjlPXRIa+gmQAATQJyKgC8GSS3f5s6aunZokYe/96QZgIAvAmwDhWgiZAXpl67mpyWW8oaW7d0797D3U7/uals0Z0zJ67QPSYPdNG5txFb9ujm1VsZOQXlnIl1C1ePdzo4meu/IVINNUlSDi8NmhUe/1Su2KCEEz+IjdiWpSxCmboNHu+t+YhTtjzr9vWkB5l5pVIiNLN2eNvdo/Pb1g141dPZzL6dyi78k6VlaRWvZZ9Jg9sZEfZJ4pHjycXaQy6vRe+JQ9urHn/KpJ6JPJchr7pjC69138BBrtU+pceXJ39682TMHav+VTuRKU67HH8lpZC1bO3Zp1c7G/xnAQCvAwcAhk36OHZ9yFB3G0GVW9qUoJnH+OVHz//QXxlW+W3mnZVqfrbi4fkdy4LedbHgUZSxX0R5bfXIcy5uXjjKw96Yb9qiU+/+fbu1bSagCGXUvMuo0N/ic+S1t7LmmmS3fh3jYlbb/XjaYXp0RdWDMXkJWxaO7tLcuNpcU0ogchswY03MQy2nqlAe4Wes3BrffFxkredbjV7N3HfivyO7NDd6rhQldPAaMS0srozjOE6eeuir6WP7u1o+PyODMnHqOmzyzPBzJc8qlP6zcbb/YHdrPqX6SjuOWBmnV5eqlaWe+X3J5D6tzGiKdpzxl6ITmYLLW+cPbmOhmrtM0aZvD/0i+qHsBXoDAKBeIKcCGDJZ2qEFvWx5FEVbuo9dui3mWkpGatK5fas+6OskpCiByNqS1ppT5flJR9bNHelhJ1THpVpzKvPk7HfDWgkpSuDku/JstjLRVDw4HNpLRBNCKFpoZqliZSUS2Xt9fk6qX01M/p24UzExMTExBxd2V67Gp+1H/3AsRuXUuVt5jLp82fWfx7xtRBFCW3edER51+cHjzPTkuP3fT/VUPmuKErw1cWeq9txc95yqfzNLbvw82km9gI3nHHKqovrBShJXD7JVT8vitw2JKaqh2qIDU+xoQpl6fBz1WNntenx5styrB1bNHtahyi8vypxacvWn8a5a9uaizN5ZHFf6Av0BAFAPkFMBDJY8fW+gqxFFKL7T8PDLJc+/lxk1x8P0WRx5PqdKE3/wHzPt43nTBrRWj/3VklNLLy3vI6IJoQRuc08/H6iY7ANTW6nue1M0j8fj8Xh8vsDUbd5pyQvWxOT+OkQ5/MtrOfOERFtTmCdHZ7QRUIQQnqP/3hzmubf+nO7MUw1tTv2jQNvn655TX6SZTNbOsXbKGMprNeukljKy5JV9VN+PwPuHlBqGo5nczcPNKKHH4kvqY+jRpZK4b8ePnT53boC3kzqo0o4zorPjlvdrRtMmTt1HBYUs+nzRrLHdHNQFKFPvVXd0jIoDANQv5FQAA1Vx9TtvK5oQStDu45hCbQUuLfZUj7jVcN+/NGq6asZijTm14uJiD0UgEvT8TjPIyO+v6asYn6P4bWb+pTUd6leTHgFQfneVtzKcCd/75bmYynGcNOE/Hfi1H+DV5FSOk8R94sZXjZbOP6ulEJOz3U81AGw2aH0ao1mE45icbaNFtOWwTY+1vK1HlxZETrBR5mXatv/YAQ7WnoHr47Kf/U2QZ+ya1FI1Z1Xg+eU13PwHgFcJ6/0BDFLlzXVzVsQXs4S2GbHki4EiLUWMu8+e4WNc+z5Mpp06tdGxCKrwaPjmZClHCOG16NrzbY3SPJfxY3sKKUIIJ0/dvW53uvY1QnrUpAfZnVt3ZcqVRYysstq7wg5dOijHKNm8rCzJS1dXd0a9gqZ4KoYq5akHI85obrVKN/cLGtWcJoQQThy3Y+ctueZR2If7I06VNhsWNN5Jy7Vcjy619PRQLa5i8+OviL6MvbBjro/DsxV2vNaT/jOtk3Iag/ze1Ssl+pwdAEA9QU4FMEBszr7lYQnlHCG0zZApox20/0OnW/T1aVf7Mm5aZGVRe5KVJpyKK1BET7qZnZ2WXEQ7dvd6S/E6J048E6c96eiuSR98VzcXRfrj2bq0aVb9vAUiawvFaxwrLi9/nVtH8TsGvO+t+C2ByToacaxIs4jVeyPfVYyocpU3dm2Nl1YvwNzZveu8xGlM8AgbbVXo0aWUlaWqCG3n/2NEiKeZRkPde3ZTTpXl5DmZWVriMgBAQ0FOBTA8zP2ITcfyWUIIJeji421RUznaxtpKR5ARGglrfxZA+ePHeap9lijtj3Lit2zlqLzUcBWZj2p44r3OmvTB7xi6I+LLGVMCQsP3rRhm+vybbGn6wzz1Pk6s/PUmLp6z/9RBlhQhhLB5x3cf0XwsQP6xQ7GqbVjlqfu3nih+/v3KyxGRV1k3/2kDNcKlgu4upYVG6vmnPKFQ6+gr38mpufIN7jWHewBocpBTAQwOkx51NFHKEUIIbevsYvNS/8xpuvaPC4TqLMQW5OVry6C0ibFRlT9yWoroU5N+TNtPWL559851c3zsVYdjS1NOb14a0N/VqePsw+o4WFMzXhnacWygr2I1FVt8ateBR88nQObO5vAjeS3auigm9zI5f249lFO1iPjcjn13aa/3A7vXuBGu7i7l6e50qsrXxzDaf8kAAGgYyKkABkf8z6Uk5SRNykKka8RUp9o/b9LeXT3DMfvf2/lahtuYsjKxMhXSlq7tWtU4Z7K+H+LKFv8bHTZnWMfW7QeH/HrFdMjirWv9W778JNh6Y+0b6KdoDyc+H7n3XtUMWHYqfOM/vH6LIpcPt1Fm2Zjtu1OfFSk6vv3QI5N+gVPdazsjXV1awxB49ULqH7nXHu8BoElBTgUwNMyjlAxVLiRcQ48b8ruMGdVece+Yk17++++nmkFVdu9emuJVXnPf8YPMG7ZBCuV3j3zj39XVY9SiXaltpm+I+ffh7eMbF0/ybFyPVTIbGDTRlU8IIVzl5T27b6pnIrAZu8L2Pm4+fn6Ql1+wXwtFlpVc3Ln9urIIm3sk4q88qyFBE1vhKg4AhgtXOABDw5SWlqtjamlhUQMHVWG3ecsmteRThBCu+OTPv1yrvtyn7OyRmByGEEI3G/TF0lHath6oV+zTC2vHe3Ubu2z/HYuh3xxLuhm9dvYglxqmcL5mwh6BymX/nOzW/ohLyr6T/vPLhjMVnh8s8BXR5oOnT1JmWdmtyC1nxYQQwmTs3RlT6uAXPNoOF3EAMGC4xAEYGtrIWL2/O5ufnqbtVny91ucwNnzXEu9mPIpwkqtrpn1yNPPZ3WkmK+qzhTsyGEJbes3bseMjtwa+7c5mHgkZOPTTg/fKBW7Bu88eWTq0tZHuT70+/A5Tp3orZqDKU/7YGVtOCGGfHFy37a6F79xZnfmEEGGP4Pe7KDa6ZTIObo4uIER+Z9euC5VtJgQPqXGNHACAIUBOBTA0fCcnB9VTOTnZjfiLmntzauI4jq3zwCtt02/53+f3LBrgJCDipF/Hd+01edGK9T+vX/np5D5dx228zbXwmb3pzOm1w2vYIKveMA82fTDj9+RyjvBa+K9aO67mqbCNBs/ZP0C57J/J/DPieBGR3/49PKrQZeqCCcpdEvgdAgL7KvZ9ZZ8e23bgkeRyxJ7rnMfk4N6NOoMDALw05FQAg2Pt5eWqmobJFpzcF61lzqgGRv5yK7lpTpyTLXULWP3busX+nryHl0/9feZKtoVPSPjBhNSUuF8/6Cpq8MtNZeJv608VsIQQyqTH4EHWtZduJEuCaIcxAapl/3nHdh9JOf7jpqs8n5C5PupttejWk4KGWCt2Ui2N3b5565a994XeAYGdGtVkWwCA+ofLHIDB4XuM9HVdnXxHTgghbP7RVWEJo1b0rn2CJieVSuqe28Q3f/b3DY3vHH5py0euDXZVoSlKtX6dYxhGs7nFN26kKdM2K9eRu7UfoT7obGZ11r5Bfi33//aQIWzxyfDAjAdZ9uPWB7lWGQum7f2mjXY8ui2TIZw04YdPb1SaD/7a37nxjxYDALwcjKcCGB5h95kh71qpttaX3lwXPGdfupZd7eXFxWXKGMWV5ufV8BxRTstPVbFPoxaMC43OthkZEvRyIVVXTUKhUJkAueLcHLH69aLLB/Yl5LOEpmjlJznJPydOVB9GlqYeO3QpT/ViRUUFRwghTE5SUpY603LPRlnrnGJ1NVOD2YDgSW0VS6XE1+OvV3p8sGBEtcFgiyHTJrZRdC5XIZbajQgao9ckCp1fXtVR5cYxwAwA8AxyKoAB4rX5cM1ib5E6qd7bGfzehFWxVZ95Kc+K/X7CqJVXZcoyFRcO/ZEmJ6TyaW5BlZHIygqJ8kMcJ5VoS7LyGz8t25Ei47iC+L0R59NL6zp9QHdNxMjO3loZACUX9kfekxJCSGXa/tDgVTcpC5pYtHNrqQzK7JODi4LXXlBF1fLU46un9uo+Zcc95fkS5uGt5BJWei9y5rA5h/PUCU0slqiSm1xSUVmnM9HVTE3C7oGTPRVLpQgt+r+PZ3lq5H2j3sHKnQEI4TmPm+arx74JuruUfba1LamslGkpQQhh1Zv7c5KKlxh1BwB4YbjvD2CQjDw/3b01fXjgpqQyjhDCSVKOLB58emPvoUN6uNnxix4k/H0iPt9t8ojOmQdvygghhM2Lmt3ZablIYDVoZfTWAOU9ZfmDlAzV+ir2UVqKnGhsQFqQcOlWJUcIkd2LnN13T4jAxNLSwszUxNjE2MjI2NjIyNjU1Mzc0sra1tHZvfvA0X7vumrLanrURIRePTxNt+WUcYSwhSdD+3gd7vO29HZcIjt+f0I3ISGk15QJ7X9dlSzjCOHkmcf+M7Dj1h7d3MyL/01IvC9u4bss+vuS0JHfJ8kIIezT/UFu5y0rypxDo9d5qKqqvH8/XRnKODYj5YGcdHvxi6TOZmriuwdM9V51NVbM8V3eX+DfQksH8TsGBvisvhorJoIO/sH9jHW3Q48urbx3VzVTgivLfJzPEieNquU5OapBaDYvPbWYHWSPAQ4AeFU4ADBUzJPY70a2MdN84hBFW3WcvCEhPz2svzI3UQI7j1Hzw6NvFzLPPl6QGDbc8dkkSJ7DsDWX8uTVKpElr+mv/xIpSmDf6+M9dyXVGqpXTRzHFZ0O7WRS9XwofvOBK+OL1AVKzi/rY139ofaUadsxq8/mMhxXcjiwyu1yWtR1/p8P1dUwhYlrhlbJYLT9oP/GZkk0W6GTzmZqYrK3jBRRlGm/NXe1nLeiSM52PxFNGXuv+remIlUK6+5SWe6FFe/Zqs+XEri+vz25hHnuMNLss98MaPasjFGHD/ffL9NZOwBA/UBOBTBwZXf/Clswoa97S1tzI6G5bUv3vhMXbjiZWsFxHJMR1l9o4tRz0pLN/0srr/qhvJ2TW9uaCzQfqknxzZq1nrwzr2phJi8+bGJ7rTe0tWdVodus6DymDjVxHCd/fGrN9AHt7M2EJrZu/YJWHkurHiRLk/ctndSnrZ2ZUGhm08rjvaBle26qE6LsQeSsnk5mxqJWXn6fR6pfr4j+qJ2dhbZW8IxFjt0Wn5O+YK/rbqaGwgNTHJ2m/pFfS5Giw0EtRMM2PWZqKaNPlzKZm8e9ZWsu0CxBCcybOXkvuyTlyg9Md3G0MeVrlqGFls27LHrBDgEAqAuKayR7swDAG4vNj106fNKhDqs2BjbPz8zOfZKXX1RcUlJSWlYhkVRIJJIKcVlJYX5uZnra40IJyxHKqPeK63Gft8eCdQAAqAXmpwLAyym+uGLchA3snNM/TethqqOsJDthz1ez52+5cSMhsYK0N38lDQQAgDcUpsMDwEuQP9gSNO7rCzbTV3+mM6QSQowde04L+3JUM4rgVg4AAOiCnAoAdVaZtG76wqhsytl3XJ/anyNQhUwslvHad+li0pAtAwAAA4CcCgB1xD7auWTlhWKWcBWlJfpuNSpODN8QQ/WfFtgRs44AAKB2yKkAUEeShDPni1lCCJO1+5MPN10r0vKopeew+fFrJo5dmdLjq7CZLlhDBQAAOiCnAkAdGXn0eMeCIoQQTnp/70e93HtO/Gz9gXO3csqrBVam7NG141uWBfp4DPw8vuXCvXvmd9K+3T0AAEAV2JcKAOqMyTgcOn7GL1cKmarXEYpnbGVnb2tlJuRRjKy85Gnuk2IJw1G0qHPA6h0bPuxi8doaDAAAbxLkVAB4KZVZ537/5uu1kefSS5kariYUbeHcf9LHS74Iec9Zj+d9AgAAEEKQUwGgXrBlqXFRUWcSriXdSc8tKCkRV9JGZiJ7J2e3zl69Bw739XG1woRUAAB4McipAAAAANAYYR0VAAAAADRGyKkAAAAA0BghpwIAAABAY4ScCgAAAACNEXIqAAAAADRGyKkAAAAA0BghpwIAAABAY4ScCgAAAACNEXIqAAAAADRG/w+XrrMcuXhjewAAAABJRU5ErkJggg==;" parent="1" vertex="1">
          <mxGeometry x="840" y="-320" width="489" height="388.4" as="geometry" />
        </mxCell>
        <mxCell id="Mp3Z87jBennnfs2vOTWj-6" style="edgeStyle=orthogonalEdgeStyle;rounded=0;orthogonalLoop=1;jettySize=auto;html=1;entryX=0.5;entryY=0;entryDx=0;entryDy=0;startArrow=classic;startFill=1;" parent="1" source="Mp3Z87jBennnfs2vOTWj-2" target="Mp3Z87jBennnfs2vOTWj-3" edge="1">
          <mxGeometry relative="1" as="geometry" />
        </mxCell>
        <mxCell id="Mp3Z87jBennnfs2vOTWj-13" value="Данные" style="edgeLabel;html=1;align=center;verticalAlign=middle;resizable=0;points=[];" parent="Mp3Z87jBennnfs2vOTWj-6" vertex="1" connectable="0">
          <mxGeometry x="-0.2981" y="1" relative="1" as="geometry">
            <mxPoint as="offset" />
          </mxGeometry>
        </mxCell>
        <mxCell id="Mp3Z87jBennnfs2vOTWj-11" style="edgeStyle=none;rounded=0;orthogonalLoop=1;jettySize=auto;html=1;entryX=0.25;entryY=1;entryDx=0;entryDy=0;startArrow=classic;startFill=1;exitX=1;exitY=0.25;exitDx=0;exitDy=0;" parent="1" source="Mp3Z87jBennnfs2vOTWj-2" target="Mp3Z87jBennnfs2vOTWj-4" edge="1">
          <mxGeometry relative="1" as="geometry">
            <mxPoint x="1060" y="490" as="sourcePoint" />
          </mxGeometry>
        </mxCell>
        <mxCell id="Mp3Z87jBennnfs2vOTWj-14" value="Данные" style="edgeLabel;html=1;align=center;verticalAlign=middle;resizable=0;points=[];" parent="Mp3Z87jBennnfs2vOTWj-11" vertex="1" connectable="0">
          <mxGeometry x="0.2618" y="2" relative="1" as="geometry">
            <mxPoint as="offset" />
          </mxGeometry>
        </mxCell>
        <mxCell id="Mp3Z87jBennnfs2vOTWj-12" style="edgeStyle=none;rounded=0;orthogonalLoop=1;jettySize=auto;html=1;entryX=0.75;entryY=1;entryDx=0;entryDy=0;startArrow=classic;startFill=1;exitX=0;exitY=0.25;exitDx=0;exitDy=0;" parent="1" source="Mp3Z87jBennnfs2vOTWj-2" target="Mp3Z87jBennnfs2vOTWj-5" edge="1">
          <mxGeometry relative="1" as="geometry" />
        </mxCell>
        <mxCell id="Mp3Z87jBennnfs2vOTWj-15" value="Данные" style="edgeLabel;html=1;align=center;verticalAlign=middle;resizable=0;points=[];" parent="Mp3Z87jBennnfs2vOTWj-12" vertex="1" connectable="0">
          <mxGeometry x="0.2705" y="3" relative="1" as="geometry">
            <mxPoint as="offset" />
          </mxGeometry>
        </mxCell>
        <mxCell id="Mp3Z87jBennnfs2vOTWj-2" value="Информационная модель ЦД" style="shape=hexagon;perimeter=hexagonPerimeter2;whiteSpace=wrap;html=1;fixedSize=1;" parent="1" vertex="1">
          <mxGeometry x="960" y="480" width="120" height="80" as="geometry" />
        </mxCell>
        <mxCell id="Mp3Z87jBennnfs2vOTWj-7" style="rounded=0;orthogonalLoop=1;jettySize=auto;html=1;entryX=0.5;entryY=1;entryDx=0;entryDy=0;startArrow=classic;startFill=1;exitX=0.75;exitY=0;exitDx=0;exitDy=0;" parent="1" source="Mp3Z87jBennnfs2vOTWj-3" target="Mp3Z87jBennnfs2vOTWj-4" edge="1">
          <mxGeometry relative="1" as="geometry" />
        </mxCell>
        <mxCell id="Mp3Z87jBennnfs2vOTWj-16" value="Согласованность" style="edgeLabel;html=1;align=center;verticalAlign=middle;resizable=0;points=[];" parent="Mp3Z87jBennnfs2vOTWj-7" vertex="1" connectable="0">
          <mxGeometry x="0.1996" y="2" relative="1" as="geometry">
            <mxPoint x="58" y="1" as="offset" />
          </mxGeometry>
        </mxCell>
        <mxCell id="Mp3Z87jBennnfs2vOTWj-3" value="Физический объект" style="rounded=1;whiteSpace=wrap;html=1;" parent="1" vertex="1">
          <mxGeometry x="960" y="640" width="120" height="60" as="geometry" />
        </mxCell>
        <mxCell id="Mp3Z87jBennnfs2vOTWj-9" value="Согласованность" style="edgeStyle=none;rounded=0;orthogonalLoop=1;jettySize=auto;html=1;entryX=1;entryY=0.5;entryDx=0;entryDy=0;startArrow=classic;startFill=1;" parent="1" source="Mp3Z87jBennnfs2vOTWj-4" target="Mp3Z87jBennnfs2vOTWj-5" edge="1">
          <mxGeometry y="-10" relative="1" as="geometry">
            <mxPoint as="offset" />
          </mxGeometry>
        </mxCell>
        <mxCell id="Mp3Z87jBennnfs2vOTWj-4" value="Программные сервисы" style="rounded=1;whiteSpace=wrap;html=1;" parent="1" vertex="1">
          <mxGeometry x="1080" y="380" width="120" height="60" as="geometry" />
        </mxCell>
        <mxCell id="Mp3Z87jBennnfs2vOTWj-10" style="edgeStyle=none;rounded=0;orthogonalLoop=1;jettySize=auto;html=1;entryX=0.25;entryY=0;entryDx=0;entryDy=0;startArrow=classic;startFill=1;exitX=0.5;exitY=1;exitDx=0;exitDy=0;" parent="1" source="Mp3Z87jBennnfs2vOTWj-5" target="Mp3Z87jBennnfs2vOTWj-3" edge="1">
          <mxGeometry relative="1" as="geometry" />
        </mxCell>
        <mxCell id="Mp3Z87jBennnfs2vOTWj-17" value="Согласованность" style="edgeLabel;html=1;align=center;verticalAlign=middle;resizable=0;points=[];" parent="Mp3Z87jBennnfs2vOTWj-10" vertex="1" connectable="0">
          <mxGeometry x="-0.1703" y="1" relative="1" as="geometry">
            <mxPoint x="-58" y="-2" as="offset" />
          </mxGeometry>
        </mxCell>
        <mxCell id="Mp3Z87jBennnfs2vOTWj-5" value="Математическая модель" style="rounded=1;whiteSpace=wrap;html=1;" parent="1" vertex="1">
          <mxGeometry x="840" y="380" width="120" height="60" as="geometry" />
        </mxCell>
      </root>
    </mxGraphModel>
  </diagram>
  <diagram id="CWX7ThhFXc4PnTD_NaNH" name="Новая схема">
    <mxGraphModel dx="211" dy="547" grid="1" gridSize="10" guides="1" tooltips="1" connect="1" arrows="1" fold="1" page="1" pageScale="1" pageWidth="827" pageHeight="1169" math="0" shadow="0">
      <root>
        <mxCell id="0" />
        <mxCell id="1" parent="0" />
        <mxCell id="pwt5rlTWVk3J2WTvAAZF-1" style="edgeStyle=orthogonalEdgeStyle;rounded=0;orthogonalLoop=1;jettySize=auto;html=1;entryX=0.5;entryY=0;entryDx=0;entryDy=0;startArrow=classic;startFill=1;" parent="1" source="pwt5rlTWVk3J2WTvAAZF-7" target="pwt5rlTWVk3J2WTvAAZF-10" edge="1">
          <mxGeometry relative="1" as="geometry" />
        </mxCell>
        <mxCell id="pwt5rlTWVk3J2WTvAAZF-2" value="Данные" style="edgeLabel;html=1;align=center;verticalAlign=middle;resizable=0;points=[];" parent="pwt5rlTWVk3J2WTvAAZF-1" vertex="1" connectable="0">
          <mxGeometry x="-0.2981" y="1" relative="1" as="geometry">
            <mxPoint as="offset" />
          </mxGeometry>
        </mxCell>
        <mxCell id="pwt5rlTWVk3J2WTvAAZF-3" style="edgeStyle=none;rounded=0;orthogonalLoop=1;jettySize=auto;html=1;entryX=0.25;entryY=1;entryDx=0;entryDy=0;startArrow=classic;startFill=1;exitX=1;exitY=0.25;exitDx=0;exitDy=0;" parent="1" source="pwt5rlTWVk3J2WTvAAZF-7" target="pwt5rlTWVk3J2WTvAAZF-12" edge="1">
          <mxGeometry relative="1" as="geometry">
            <mxPoint x="1060" y="490" as="sourcePoint" />
          </mxGeometry>
        </mxCell>
        <mxCell id="pwt5rlTWVk3J2WTvAAZF-4" value="Данные" style="edgeLabel;html=1;align=center;verticalAlign=middle;resizable=0;points=[];" parent="pwt5rlTWVk3J2WTvAAZF-3" vertex="1" connectable="0">
          <mxGeometry x="0.2618" y="2" relative="1" as="geometry">
            <mxPoint as="offset" />
          </mxGeometry>
        </mxCell>
        <mxCell id="pwt5rlTWVk3J2WTvAAZF-5" style="edgeStyle=none;rounded=0;orthogonalLoop=1;jettySize=auto;html=1;entryX=0.75;entryY=1;entryDx=0;entryDy=0;startArrow=classic;startFill=1;exitX=0;exitY=0.25;exitDx=0;exitDy=0;" parent="1" source="pwt5rlTWVk3J2WTvAAZF-7" target="pwt5rlTWVk3J2WTvAAZF-15" edge="1">
          <mxGeometry relative="1" as="geometry" />
        </mxCell>
        <mxCell id="pwt5rlTWVk3J2WTvAAZF-6" value="Данные" style="edgeLabel;html=1;align=center;verticalAlign=middle;resizable=0;points=[];" parent="pwt5rlTWVk3J2WTvAAZF-5" vertex="1" connectable="0">
          <mxGeometry x="0.2705" y="3" relative="1" as="geometry">
            <mxPoint as="offset" />
          </mxGeometry>
        </mxCell>
        <mxCell id="pwt5rlTWVk3J2WTvAAZF-7" value="Информационная модель ЦД" style="shape=hexagon;perimeter=hexagonPerimeter2;whiteSpace=wrap;html=1;fixedSize=1;" parent="1" vertex="1">
          <mxGeometry x="960" y="480" width="120" height="80" as="geometry" />
        </mxCell>
        <mxCell id="pwt5rlTWVk3J2WTvAAZF-8" style="rounded=0;orthogonalLoop=1;jettySize=auto;html=1;entryX=0.5;entryY=1;entryDx=0;entryDy=0;startArrow=classic;startFill=1;exitX=0.75;exitY=0;exitDx=0;exitDy=0;" parent="1" source="pwt5rlTWVk3J2WTvAAZF-10" target="pwt5rlTWVk3J2WTvAAZF-12" edge="1">
          <mxGeometry relative="1" as="geometry" />
        </mxCell>
        <mxCell id="pwt5rlTWVk3J2WTvAAZF-9" value="Согласованность" style="edgeLabel;html=1;align=center;verticalAlign=middle;resizable=0;points=[];" parent="pwt5rlTWVk3J2WTvAAZF-8" vertex="1" connectable="0">
          <mxGeometry x="0.1996" y="2" relative="1" as="geometry">
            <mxPoint x="58" y="1" as="offset" />
          </mxGeometry>
        </mxCell>
        <mxCell id="pwt5rlTWVk3J2WTvAAZF-10" value="Физический объект" style="rounded=1;whiteSpace=wrap;html=1;" parent="1" vertex="1">
          <mxGeometry x="960" y="640" width="120" height="60" as="geometry" />
        </mxCell>
        <mxCell id="pwt5rlTWVk3J2WTvAAZF-11" value="Согласованность" style="edgeStyle=none;rounded=0;orthogonalLoop=1;jettySize=auto;html=1;entryX=1;entryY=0.5;entryDx=0;entryDy=0;startArrow=classic;startFill=1;" parent="1" source="pwt5rlTWVk3J2WTvAAZF-12" target="pwt5rlTWVk3J2WTvAAZF-15" edge="1">
          <mxGeometry y="-10" relative="1" as="geometry">
            <mxPoint as="offset" />
          </mxGeometry>
        </mxCell>
        <mxCell id="pwt5rlTWVk3J2WTvAAZF-12" value="Программные сервисы" style="rounded=1;whiteSpace=wrap;html=1;" parent="1" vertex="1">
          <mxGeometry x="1080" y="380" width="120" height="60" as="geometry" />
        </mxCell>
        <mxCell id="pwt5rlTWVk3J2WTvAAZF-13" style="edgeStyle=none;rounded=0;orthogonalLoop=1;jettySize=auto;html=1;entryX=0.25;entryY=0;entryDx=0;entryDy=0;startArrow=classic;startFill=1;exitX=0.5;exitY=1;exitDx=0;exitDy=0;" parent="1" source="pwt5rlTWVk3J2WTvAAZF-15" target="pwt5rlTWVk3J2WTvAAZF-10" edge="1">
          <mxGeometry relative="1" as="geometry" />
        </mxCell>
        <mxCell id="pwt5rlTWVk3J2WTvAAZF-14" value="Согласованность" style="edgeLabel;html=1;align=center;verticalAlign=middle;resizable=0;points=[];" parent="pwt5rlTWVk3J2WTvAAZF-13" vertex="1" connectable="0">
          <mxGeometry x="-0.1703" y="1" relative="1" as="geometry">
            <mxPoint x="-58" y="-2" as="offset" />
          </mxGeometry>
        </mxCell>
        <mxCell id="pwt5rlTWVk3J2WTvAAZF-15" value="Математическая модель" style="rounded=1;whiteSpace=wrap;html=1;" parent="1" vertex="1">
          <mxGeometry x="840" y="380" width="120" height="60" as="geometry" />
        </mxCell>
      </root>
    </mxGraphModel>
  </diagram>
  <diagram id="mtR7QRbX21wIe3IfvzJF" name="Структура системы управления на базе ЦД">
    <mxGraphModel dx="1888" dy="547" grid="1" gridSize="10" guides="1" tooltips="1" connect="1" arrows="1" fold="1" page="1" pageScale="1" pageWidth="850" pageHeight="1100" math="0" shadow="0">
      <root>
        <mxCell id="0" />
        <mxCell id="1" parent="0" />
        <mxCell id="DqPXyWJG6k27BeUsXp37-50" value="" style="rounded=0;whiteSpace=wrap;html=1;fontStyle=1;verticalAlign=top;fillColor=none;dashed=1;fontFamily=Times New Roman;" parent="1" vertex="1">
          <mxGeometry x="-40" y="73.5" width="680" height="323.5" as="geometry" />
        </mxCell>
        <mxCell id="DqPXyWJG6k27BeUsXp37-60" style="edgeStyle=orthogonalEdgeStyle;rounded=0;orthogonalLoop=1;jettySize=auto;html=1;entryX=0.5;entryY=1;entryDx=0;entryDy=0;fontSize=10;strokeWidth=2;endSize=4;startSize=4;startArrow=classic;startFill=1;fontFamily=Times New Roman;" parent="1" source="DqPXyWJG6k27BeUsXp37-27" target="DqPXyWJG6k27BeUsXp37-12" edge="1">
          <mxGeometry relative="1" as="geometry" />
        </mxCell>
        <mxCell id="DqPXyWJG6k27BeUsXp37-27" value="" style="rounded=0;whiteSpace=wrap;html=1;fillColor=none;fontFamily=Times New Roman;" parent="1" vertex="1">
          <mxGeometry x="159" y="412" width="472" height="55" as="geometry" />
        </mxCell>
        <mxCell id="DqPXyWJG6k27BeUsXp37-17" value="Базовые программные компоненты" style="rounded=0;whiteSpace=wrap;html=1;verticalAlign=top;fontStyle=1;fillColor=#f5f5f5;fontColor=#333333;strokeColor=#666666;fontFamily=Times New Roman;" parent="1" vertex="1">
          <mxGeometry x="-25.5" y="83.25" width="111" height="303" as="geometry" />
        </mxCell>
        <mxCell id="DqPXyWJG6k27BeUsXp37-8" value="Горно-шахтное оборудование" style="rounded=1;whiteSpace=wrap;html=1;fontSize=10;fontFamily=Times New Roman;" parent="1" vertex="1">
          <mxGeometry x="164" y="419" width="100" height="40" as="geometry" />
        </mxCell>
        <mxCell id="DqPXyWJG6k27BeUsXp37-9" value="Датчики систем безопасности" style="rounded=1;whiteSpace=wrap;html=1;fontSize=10;fontFamily=Times New Roman;" parent="1" vertex="1">
          <mxGeometry x="274" y="419" width="100" height="40" as="geometry" />
        </mxCell>
        <mxCell id="DqPXyWJG6k27BeUsXp37-10" value="Системы видеонаблюдения" style="rounded=1;whiteSpace=wrap;html=1;fontSize=10;fontFamily=Times New Roman;" parent="1" vertex="1">
          <mxGeometry x="402" y="419" width="100" height="40" as="geometry" />
        </mxCell>
        <mxCell id="DqPXyWJG6k27BeUsXp37-11" value="Теги позиционирования" style="rounded=1;whiteSpace=wrap;html=1;fontSize=10;fontFamily=Times New Roman;" parent="1" vertex="1">
          <mxGeometry x="514" y="419" width="100" height="40" as="geometry" />
        </mxCell>
        <mxCell id="DqPXyWJG6k27BeUsXp37-68" style="edgeStyle=orthogonalEdgeStyle;rounded=0;orthogonalLoop=1;jettySize=auto;html=1;entryX=0.998;entryY=0.888;entryDx=0;entryDy=0;entryPerimeter=0;fontSize=10;startArrow=classic;startFill=1;endArrow=classic;endFill=1;startSize=2;endSize=2;strokeWidth=2;fontFamily=Times New Roman;" parent="1" source="DqPXyWJG6k27BeUsXp37-12" target="DqPXyWJG6k27BeUsXp37-65" edge="1">
          <mxGeometry relative="1" as="geometry" />
        </mxCell>
        <mxCell id="DqPXyWJG6k27BeUsXp37-12" value="&lt;b&gt;Подсистема интернета вещей&lt;/b&gt;" style="rounded=0;whiteSpace=wrap;html=1;verticalAlign=top;fontFamily=Times New Roman;spacing=-2;" parent="1" vertex="1">
          <mxGeometry x="160" y="320" width="470" height="65" as="geometry" />
        </mxCell>
        <mxCell id="DqPXyWJG6k27BeUsXp37-13" value="Подсистема цифровых двойников" style="rounded=0;whiteSpace=wrap;html=1;verticalAlign=top;fontStyle=1;spacing=-2;fillColor=#F5F5F5;strokeColor=#666666;fontColor=#333333;fontFamily=Times New Roman;" parent="1" vertex="1">
          <mxGeometry x="160" y="240" width="470" height="65" as="geometry" />
        </mxCell>
        <mxCell id="DqPXyWJG6k27BeUsXp37-14" value="&lt;br&gt;Базы данных" style="strokeWidth=1;html=1;shape=mxgraph.flowchart.database;whiteSpace=wrap;fontFamily=Times New Roman;" parent="1" vertex="1">
          <mxGeometry y="150" width="60" height="60" as="geometry" />
        </mxCell>
        <mxCell id="DqPXyWJG6k27BeUsXp37-69" style="edgeStyle=orthogonalEdgeStyle;rounded=0;orthogonalLoop=1;jettySize=auto;html=1;entryX=1.01;entryY=0.246;entryDx=0;entryDy=0;entryPerimeter=0;fontSize=10;startArrow=classic;startFill=1;endArrow=classic;endFill=1;startSize=2;endSize=2;strokeWidth=2;fontFamily=Times New Roman;" parent="1" source="DqPXyWJG6k27BeUsXp37-15" target="DqPXyWJG6k27BeUsXp37-65" edge="1">
          <mxGeometry relative="1" as="geometry" />
        </mxCell>
        <mxCell id="DqPXyWJG6k27BeUsXp37-15" value="Подсистема интеллектуального управления" style="rounded=0;whiteSpace=wrap;html=1;fontStyle=1;verticalAlign=top;fillColor=#f5f5f5;strokeColor=#666666;fontColor=#333333;fontFamily=Times New Roman;" parent="1" vertex="1">
          <mxGeometry x="158" y="83" width="470" height="150" as="geometry" />
        </mxCell>
        <mxCell id="DqPXyWJG6k27BeUsXp37-57" style="edgeStyle=orthogonalEdgeStyle;rounded=0;orthogonalLoop=1;jettySize=auto;html=1;entryX=0;entryY=0.5;entryDx=0;entryDy=0;fontSize=10;fontFamily=Times New Roman;" parent="1" source="DqPXyWJG6k27BeUsXp37-16" target="DqPXyWJG6k27BeUsXp37-52" edge="1">
          <mxGeometry relative="1" as="geometry">
            <Array as="points">
              <mxPoint x="-64" y="205" />
              <mxPoint x="-64" y="245" />
            </Array>
          </mxGeometry>
        </mxCell>
        <mxCell id="DqPXyWJG6k27BeUsXp37-16" value="BIM-системы" style="shape=module;align=left;spacingLeft=20;align=center;verticalAlign=middle;fontFamily=Times New Roman;fillColor=#F5F5F5;" parent="1" vertex="1">
          <mxGeometry x="-184" y="180" width="100" height="50" as="geometry" />
        </mxCell>
        <mxCell id="DqPXyWJG6k27BeUsXp37-55" style="edgeStyle=orthogonalEdgeStyle;rounded=0;orthogonalLoop=1;jettySize=auto;html=1;entryX=0;entryY=0.25;entryDx=0;entryDy=0;fontSize=10;fontFamily=Times New Roman;" parent="1" source="DqPXyWJG6k27BeUsXp37-18" target="DqPXyWJG6k27BeUsXp37-52" edge="1">
          <mxGeometry relative="1" as="geometry" />
        </mxCell>
        <mxCell id="DqPXyWJG6k27BeUsXp37-18" value="САПР" style="shape=module;align=center;spacingLeft=20;align=center;verticalAlign=middle;fontFamily=Times New Roman;fillColor=#F5F5F5;" parent="1" vertex="1">
          <mxGeometry x="-184" y="120" width="100" height="50" as="geometry" />
        </mxCell>
        <mxCell id="DqPXyWJG6k27BeUsXp37-56" style="edgeStyle=orthogonalEdgeStyle;rounded=0;orthogonalLoop=1;jettySize=auto;html=1;entryX=0;entryY=0.75;entryDx=0;entryDy=0;fontSize=10;fontFamily=Times New Roman;" parent="1" source="DqPXyWJG6k27BeUsXp37-19" target="DqPXyWJG6k27BeUsXp37-52" edge="1">
          <mxGeometry relative="1" as="geometry" />
        </mxCell>
        <mxCell id="DqPXyWJG6k27BeUsXp37-19" value="Прочие &#xa;системы" style="shape=module;align=left;spacingLeft=20;align=center;verticalAlign=middle;fontFamily=Times New Roman;fillColor=#F5F5F5;" parent="1" vertex="1">
          <mxGeometry x="-184" y="245" width="100" height="50" as="geometry" />
        </mxCell>
        <mxCell id="DqPXyWJG6k27BeUsXp37-37" value="&lt;b&gt;Оперативное управление&lt;/b&gt;" style="rounded=0;whiteSpace=wrap;html=1;fontSize=10;fillColor=none;verticalAlign=top;spacing=-3;fontFamily=Times New Roman;" parent="1" vertex="1">
          <mxGeometry x="165" y="110" width="225" height="117" as="geometry" />
        </mxCell>
        <mxCell id="DqPXyWJG6k27BeUsXp37-20" value="Мониторинг состояния ГШО" style="rounded=0;whiteSpace=wrap;html=1;fontSize=10;fontFamily=Times New Roman;" parent="1" vertex="1">
          <mxGeometry x="175" y="130" width="100" height="40" as="geometry" />
        </mxCell>
        <mxCell id="DqPXyWJG6k27BeUsXp37-21" value="Предупреждение аварий" style="rounded=0;whiteSpace=wrap;html=1;fontSize=10;fontFamily=Times New Roman;" parent="1" vertex="1">
          <mxGeometry x="175" y="180" width="100" height="40" as="geometry" />
        </mxCell>
        <mxCell id="DqPXyWJG6k27BeUsXp37-23" value="Полевой &lt;br&gt;уровень" style="text;strokeColor=none;fillColor=none;html=1;fontSize=10;fontStyle=1;verticalAlign=middle;align=center;rotation=0;direction=west;fontFamily=Times New Roman;" parent="1" vertex="1">
          <mxGeometry x="92" y="412.5" width="58" height="58" as="geometry" />
        </mxCell>
        <mxCell id="DqPXyWJG6k27BeUsXp37-29" value="Оптимизация энергопотребления" style="rounded=0;whiteSpace=wrap;html=1;fontSize=10;fontFamily=Times New Roman;" parent="1" vertex="1">
          <mxGeometry x="280" y="180" width="100" height="40" as="geometry" />
        </mxCell>
        <mxCell id="DqPXyWJG6k27BeUsXp37-32" value="Обслуживание по состоянию" style="rounded=0;whiteSpace=wrap;html=1;fontSize=10;fontFamily=Times New Roman;" parent="1" vertex="1">
          <mxGeometry x="280" y="130" width="100" height="40" as="geometry" />
        </mxCell>
        <mxCell id="DqPXyWJG6k27BeUsXp37-38" value="Планирование и анализ производства" style="rounded=0;whiteSpace=wrap;html=1;fontSize=10;fillColor=none;verticalAlign=top;fontStyle=1;spacing=-3;fontFamily=Times New Roman;" parent="1" vertex="1">
          <mxGeometry x="397" y="110.5" width="225" height="117" as="geometry" />
        </mxCell>
        <mxCell id="DqPXyWJG6k27BeUsXp37-33" value="Планирование и оптимизация производства" style="rounded=0;whiteSpace=wrap;html=1;fontSize=10;fontFamily=Times New Roman;" parent="1" vertex="1">
          <mxGeometry x="405" y="130" width="100" height="40" as="geometry" />
        </mxCell>
        <mxCell id="DqPXyWJG6k27BeUsXp37-34" value="Управление персоналом" style="rounded=0;whiteSpace=wrap;html=1;fontSize=10;fontFamily=Times New Roman;" parent="1" vertex="1">
          <mxGeometry x="405" y="180" width="100" height="40" as="geometry" />
        </mxCell>
        <mxCell id="DqPXyWJG6k27BeUsXp37-35" value="Оценка эффективности" style="rounded=0;whiteSpace=wrap;html=1;fontSize=10;fontFamily=Times New Roman;" parent="1" vertex="1">
          <mxGeometry x="515" y="130" width="100" height="40" as="geometry" />
        </mxCell>
        <mxCell id="DqPXyWJG6k27BeUsXp37-36" value="Оценка качества" style="rounded=0;whiteSpace=wrap;html=1;fontSize=10;fontFamily=Times New Roman;" parent="1" vertex="1">
          <mxGeometry x="515" y="180" width="100" height="40" as="geometry" />
        </mxCell>
        <mxCell id="DqPXyWJG6k27BeUsXp37-39" value="Управление информационной моделью" style="rounded=0;whiteSpace=wrap;html=1;fontSize=10;fontFamily=Times New Roman;" parent="1" vertex="1">
          <mxGeometry x="175" y="260" width="100" height="40" as="geometry" />
        </mxCell>
        <mxCell id="DqPXyWJG6k27BeUsXp37-42" value="Обмен данными с внешними системами" style="rounded=0;whiteSpace=wrap;html=1;fontSize=10;fontFamily=Times New Roman;" parent="1" vertex="1">
          <mxGeometry x="280" y="260" width="100" height="40" as="geometry" />
        </mxCell>
        <mxCell id="DqPXyWJG6k27BeUsXp37-43" value="Визуализация данных" style="rounded=0;whiteSpace=wrap;html=1;fontSize=10;fontFamily=Times New Roman;" parent="1" vertex="1">
          <mxGeometry x="405" y="260" width="100" height="40" as="geometry" />
        </mxCell>
        <mxCell id="DqPXyWJG6k27BeUsXp37-45" value="Поиск и фильтрация данных" style="rounded=0;whiteSpace=wrap;html=1;fontSize=10;fontFamily=Times New Roman;" parent="1" vertex="1">
          <mxGeometry x="515" y="260" width="100" height="40" as="geometry" />
        </mxCell>
        <mxCell id="DqPXyWJG6k27BeUsXp37-46" value="Сбор и обработка данных" style="rounded=0;whiteSpace=wrap;html=1;fontSize=10;fontFamily=Times New Roman;" parent="1" vertex="1">
          <mxGeometry x="173" y="341" width="100" height="40" as="geometry" />
        </mxCell>
        <mxCell id="DqPXyWJG6k27BeUsXp37-47" value="Получение и передача команд" style="rounded=0;whiteSpace=wrap;html=1;fontSize=10;fontFamily=Times New Roman;" parent="1" vertex="1">
          <mxGeometry x="278" y="341" width="100" height="40" as="geometry" />
        </mxCell>
        <mxCell id="DqPXyWJG6k27BeUsXp37-48" value="Мониторинг и конфигурирование IoT-устройств" style="rounded=0;whiteSpace=wrap;html=1;fontSize=10;fontFamily=Times New Roman;" parent="1" vertex="1">
          <mxGeometry x="403" y="341" width="100" height="40" as="geometry" />
        </mxCell>
        <mxCell id="DqPXyWJG6k27BeUsXp37-49" value="Преобразование протоколов взаимодействия" style="rounded=0;whiteSpace=wrap;html=1;fontSize=10;fontFamily=Times New Roman;" parent="1" vertex="1">
          <mxGeometry x="513" y="341" width="100" height="40" as="geometry" />
        </mxCell>
        <mxCell id="DqPXyWJG6k27BeUsXp37-51" value="Система управления на базе цифрового двойника" style="text;strokeColor=none;fillColor=none;html=1;fontSize=15;fontStyle=1;verticalAlign=middle;align=center;rotation=0;direction=east;fontFamily=Times New Roman;" parent="1" vertex="1">
          <mxGeometry x="105" y="40" width="440" height="23" as="geometry" />
        </mxCell>
        <mxCell id="DqPXyWJG6k27BeUsXp37-52" value="API" style="rounded=0;whiteSpace=wrap;html=1;fontSize=18;fontStyle=1;fontFamily=Times New Roman;" parent="1" vertex="1">
          <mxGeometry x="-20" y="225" width="100" height="40" as="geometry" />
        </mxCell>
        <mxCell id="DqPXyWJG6k27BeUsXp37-53" value="Управление программными модулями" style="rounded=0;whiteSpace=wrap;html=1;fontSize=10;fontStyle=0;fontFamily=Times New Roman;" parent="1" vertex="1">
          <mxGeometry x="-20" y="280" width="100" height="40" as="geometry" />
        </mxCell>
        <mxCell id="DqPXyWJG6k27BeUsXp37-54" value="Обеспечение единого времени" style="rounded=0;whiteSpace=wrap;html=1;fontSize=10;fontStyle=0;fontFamily=Times New Roman;" parent="1" vertex="1">
          <mxGeometry x="-20" y="332.5" width="100" height="40" as="geometry" />
        </mxCell>
        <mxCell id="DqPXyWJG6k27BeUsXp37-59" style="edgeStyle=orthogonalEdgeStyle;rounded=0;orthogonalLoop=1;jettySize=auto;html=1;entryX=-0.002;entryY=0.935;entryDx=0;entryDy=0;entryPerimeter=0;fontSize=10;fontFamily=Times New Roman;" parent="1" source="DqPXyWJG6k27BeUsXp37-58" target="DqPXyWJG6k27BeUsXp37-52" edge="1">
          <mxGeometry relative="1" as="geometry">
            <Array as="points">
              <mxPoint x="-34" y="335" />
              <mxPoint x="-34" y="262" />
            </Array>
          </mxGeometry>
        </mxCell>
        <mxCell id="DqPXyWJG6k27BeUsXp37-58" value="Интерфейс &#xa;пользователя &#xa;Системы" style="shape=module;align=left;spacingLeft=20;align=center;verticalAlign=middle;fontFamily=Times New Roman;" parent="1" vertex="1">
          <mxGeometry x="-184" y="310" width="100" height="50" as="geometry" />
        </mxCell>
        <mxCell id="DqPXyWJG6k27BeUsXp37-67" style="edgeStyle=orthogonalEdgeStyle;rounded=0;orthogonalLoop=1;jettySize=auto;html=1;fontSize=10;startArrow=classic;startFill=1;endArrow=classic;endFill=1;startSize=2;endSize=2;strokeWidth=2;exitX=1.023;exitY=0.624;exitDx=0;exitDy=0;exitPerimeter=0;fontFamily=Times New Roman;" parent="1" source="DqPXyWJG6k27BeUsXp37-65" target="DqPXyWJG6k27BeUsXp37-13" edge="1">
          <mxGeometry relative="1" as="geometry" />
        </mxCell>
        <mxCell id="DqPXyWJG6k27BeUsXp37-71" style="edgeStyle=orthogonalEdgeStyle;rounded=0;orthogonalLoop=1;jettySize=auto;html=1;entryX=1;entryY=0.5;entryDx=0;entryDy=0;fontSize=10;startArrow=classic;startFill=1;endArrow=classic;endFill=1;startSize=2;endSize=2;strokeWidth=2;fontFamily=Times New Roman;" parent="1" source="DqPXyWJG6k27BeUsXp37-65" target="DqPXyWJG6k27BeUsXp37-17" edge="1">
          <mxGeometry relative="1" as="geometry" />
        </mxCell>
        <mxCell id="DqPXyWJG6k27BeUsXp37-65" value="Шина данных" style="rounded=0;whiteSpace=wrap;html=1;verticalAlign=top;fontStyle=1;direction=south;rotation=270;fontFamily=Times New Roman;fillColor=#F5F5F5;" parent="1" vertex="1">
          <mxGeometry x="-31" y="220" width="303" height="30" as="geometry" />
        </mxCell>
        <mxCell id="DqPXyWJG6k27BeUsXp37-72" value="" style="rounded=0;whiteSpace=wrap;html=1;verticalAlign=top;fontStyle=1;fillColor=#f5f5f5;fontColor=#333333;strokeColor=#666666;fontFamily=Times New Roman;" parent="1" vertex="1">
          <mxGeometry x="-154" y="431.75" width="51.5" height="21" as="geometry" />
        </mxCell>
        <mxCell id="DqPXyWJG6k27BeUsXp37-73" value="компоненты разрабатываются &lt;br&gt;на стадии проектирования" style="text;strokeColor=none;fillColor=none;html=1;fontSize=10;fontStyle=0;verticalAlign=middle;align=left;rotation=0;direction=west;fontFamily=Times New Roman;" parent="1" vertex="1">
          <mxGeometry x="-90.9" y="431" width="100.9" height="21.75" as="geometry" />
        </mxCell>
        <mxCell id="DqPXyWJG6k27BeUsXp37-74" value="" style="rounded=0;whiteSpace=wrap;html=1;fontStyle=1;verticalAlign=top;fillColor=none;dashed=1;fontFamily=Times New Roman;" parent="1" vertex="1">
          <mxGeometry x="-200" y="73.5" width="130" height="323.5" as="geometry" />
        </mxCell>
        <mxCell id="DqPXyWJG6k27BeUsXp37-75" value="Прикладной уровень" style="text;strokeColor=none;fillColor=none;html=1;fontSize=10;fontStyle=1;verticalAlign=middle;align=center;rotation=0;direction=west;fontFamily=Times New Roman;" parent="1" vertex="1">
          <mxGeometry x="-180.9" y="83" width="90" height="16.5" as="geometry" />
        </mxCell>
      </root>
    </mxGraphModel>
  </diagram>
  <diagram id="4qwKNF7YrFAdMdnGINwd" name="Развитие концепции">
    <mxGraphModel dx="770" dy="752" grid="1" gridSize="10" guides="1" tooltips="1" connect="1" arrows="1" fold="1" page="1" pageScale="1" pageWidth="827" pageHeight="1169" math="0" shadow="0">
      <root>
        <mxCell id="0" />
        <mxCell id="1" parent="0" />
        <mxCell id="fYcs5nJ1JPfwbDfYOnap-10" value="а) существующий подход" style="text;html=1;strokeColor=none;fillColor=none;align=center;verticalAlign=middle;whiteSpace=wrap;rounded=0;fontStyle=1;fontSize=16;" parent="1" vertex="1">
          <mxGeometry x="1264" y="705" width="230" height="30" as="geometry" />
        </mxCell>
        <mxCell id="fYcs5nJ1JPfwbDfYOnap-11" value="б) датацентрический подход" style="text;html=1;strokeColor=none;fillColor=none;align=center;verticalAlign=middle;whiteSpace=wrap;rounded=0;fontStyle=1;fontSize=16;" parent="1" vertex="1">
          <mxGeometry x="1887.5" y="705" width="285" height="30" as="geometry" />
        </mxCell>
        <mxCell id="fYcs5nJ1JPfwbDfYOnap-49" style="rounded=0;orthogonalLoop=1;jettySize=auto;html=1;exitX=1;exitY=1;exitDx=0;exitDy=0;entryX=0;entryY=0;entryDx=0;entryDy=0;startArrow=none;startFill=0;endArrow=none;endFill=0;strokeColor=default;fontSize=13;" parent="1" source="fYcs5nJ1JPfwbDfYOnap-13" target="fYcs5nJ1JPfwbDfYOnap-24" edge="1">
          <mxGeometry relative="1" as="geometry" />
        </mxCell>
        <mxCell id="fYcs5nJ1JPfwbDfYOnap-58" style="edgeStyle=none;rounded=0;orthogonalLoop=1;jettySize=auto;html=1;exitX=0.5;exitY=1;exitDx=0;exitDy=0;entryX=0.5;entryY=0;entryDx=0;entryDy=0;startArrow=none;startFill=0;endArrow=none;endFill=0;strokeColor=default;fontSize=13;" parent="1" source="fYcs5nJ1JPfwbDfYOnap-13" target="fYcs5nJ1JPfwbDfYOnap-20" edge="1">
          <mxGeometry relative="1" as="geometry" />
        </mxCell>
        <mxCell id="fYcs5nJ1JPfwbDfYOnap-13" value="Моделирование системы электроснабжения" style="ellipse;whiteSpace=wrap;html=1;aspect=fixed;fontSize=13;" parent="1" vertex="1">
          <mxGeometry x="1134" y="818" width="140" height="70" as="geometry" />
        </mxCell>
        <mxCell id="fYcs5nJ1JPfwbDfYOnap-14" value="Информационная модель ЦД" style="shape=hexagon;perimeter=hexagonPerimeter2;whiteSpace=wrap;html=1;fixedSize=1;fontSize=13;" parent="1" vertex="1">
          <mxGeometry x="1970" y="910.5" width="120" height="80" as="geometry" />
        </mxCell>
        <mxCell id="fYcs5nJ1JPfwbDfYOnap-15" value="Онтология" style="ellipse;whiteSpace=wrap;html=1;fontSize=13;" parent="1" vertex="1">
          <mxGeometry x="1970" y="980.5" width="120" height="30" as="geometry" />
        </mxCell>
        <mxCell id="fYcs5nJ1JPfwbDfYOnap-19" value="" style="html=1;shadow=0;dashed=0;align=center;verticalAlign=middle;shape=mxgraph.arrows2.arrow;dy=0.6;dx=30;notch=0;spacing=1;fontSize=13;" parent="1" vertex="1">
          <mxGeometry x="1680" y="944.5" width="70" height="35" as="geometry" />
        </mxCell>
        <mxCell id="fYcs5nJ1JPfwbDfYOnap-59" style="edgeStyle=none;rounded=0;orthogonalLoop=1;jettySize=auto;html=1;exitX=0.5;exitY=1;exitDx=0;exitDy=0;entryX=0.5;entryY=0;entryDx=0;entryDy=0;startArrow=none;startFill=0;endArrow=none;endFill=0;strokeColor=default;fontSize=13;" parent="1" source="fYcs5nJ1JPfwbDfYOnap-20" target="fYcs5nJ1JPfwbDfYOnap-21" edge="1">
          <mxGeometry relative="1" as="geometry" />
        </mxCell>
        <mxCell id="fYcs5nJ1JPfwbDfYOnap-20" value="Моделирование месторождения&amp;nbsp;" style="ellipse;whiteSpace=wrap;html=1;aspect=fixed;fontSize=13;" parent="1" vertex="1">
          <mxGeometry x="1134" y="925.5" width="140" height="70" as="geometry" />
        </mxCell>
        <mxCell id="fYcs5nJ1JPfwbDfYOnap-60" style="edgeStyle=none;rounded=0;orthogonalLoop=1;jettySize=auto;html=1;exitX=1;exitY=0;exitDx=0;exitDy=0;entryX=0;entryY=1;entryDx=0;entryDy=0;startArrow=none;startFill=0;endArrow=none;endFill=0;strokeColor=default;fontSize=13;" parent="1" source="fYcs5nJ1JPfwbDfYOnap-21" target="fYcs5nJ1JPfwbDfYOnap-24" edge="1">
          <mxGeometry relative="1" as="geometry" />
        </mxCell>
        <mxCell id="fYcs5nJ1JPfwbDfYOnap-21" value="Моделирование горно-шахтного оборудования" style="ellipse;whiteSpace=wrap;html=1;aspect=fixed;fontSize=13;" parent="1" vertex="1">
          <mxGeometry x="1134" y="1031" width="140" height="70" as="geometry" />
        </mxCell>
        <mxCell id="fYcs5nJ1JPfwbDfYOnap-53" style="edgeStyle=none;rounded=0;orthogonalLoop=1;jettySize=auto;html=1;exitX=0.5;exitY=1;exitDx=0;exitDy=0;entryX=0.5;entryY=0;entryDx=0;entryDy=0;startArrow=none;startFill=0;endArrow=none;endFill=0;strokeColor=default;fontSize=13;" parent="1" source="fYcs5nJ1JPfwbDfYOnap-22" target="fYcs5nJ1JPfwbDfYOnap-24" edge="1">
          <mxGeometry relative="1" as="geometry" />
        </mxCell>
        <mxCell id="fYcs5nJ1JPfwbDfYOnap-22" value="Моделирование технологического процесса" style="ellipse;whiteSpace=wrap;html=1;aspect=fixed;fontSize=13;" parent="1" vertex="1">
          <mxGeometry x="1324" y="818" width="140" height="70" as="geometry" />
        </mxCell>
        <mxCell id="fYcs5nJ1JPfwbDfYOnap-23" value="Моделирование системы вентиляции" style="ellipse;whiteSpace=wrap;html=1;aspect=fixed;fontSize=13;" parent="1" vertex="1">
          <mxGeometry x="1324" y="1031" width="140" height="70" as="geometry" />
        </mxCell>
        <mxCell id="fYcs5nJ1JPfwbDfYOnap-55" style="edgeStyle=none;rounded=0;orthogonalLoop=1;jettySize=auto;html=1;exitX=0.5;exitY=1;exitDx=0;exitDy=0;entryX=0.5;entryY=0;entryDx=0;entryDy=0;startArrow=none;startFill=0;endArrow=none;endFill=0;strokeColor=default;fontSize=13;" parent="1" source="fYcs5nJ1JPfwbDfYOnap-24" target="fYcs5nJ1JPfwbDfYOnap-23" edge="1">
          <mxGeometry relative="1" as="geometry" />
        </mxCell>
        <mxCell id="fYcs5nJ1JPfwbDfYOnap-24" value="Обмен данными, рабочей и проектной документацией" style="ellipse;whiteSpace=wrap;html=1;aspect=fixed;fontSize=13;" parent="1" vertex="1">
          <mxGeometry x="1324" y="925.5" width="140" height="70" as="geometry" />
        </mxCell>
        <mxCell id="fYcs5nJ1JPfwbDfYOnap-51" style="edgeStyle=none;rounded=0;orthogonalLoop=1;jettySize=auto;html=1;exitX=0;exitY=1;exitDx=0;exitDy=0;entryX=1;entryY=0;entryDx=0;entryDy=0;startArrow=none;startFill=0;endArrow=none;endFill=0;strokeColor=default;fontSize=13;" parent="1" source="fYcs5nJ1JPfwbDfYOnap-25" target="fYcs5nJ1JPfwbDfYOnap-24" edge="1">
          <mxGeometry relative="1" as="geometry" />
        </mxCell>
        <mxCell id="fYcs5nJ1JPfwbDfYOnap-57" style="edgeStyle=none;rounded=0;orthogonalLoop=1;jettySize=auto;html=1;exitX=0.5;exitY=1;exitDx=0;exitDy=0;entryX=0.5;entryY=0;entryDx=0;entryDy=0;startArrow=none;startFill=0;endArrow=none;endFill=0;strokeColor=default;fontSize=13;" parent="1" source="fYcs5nJ1JPfwbDfYOnap-25" target="fYcs5nJ1JPfwbDfYOnap-26" edge="1">
          <mxGeometry relative="1" as="geometry" />
        </mxCell>
        <mxCell id="fYcs5nJ1JPfwbDfYOnap-25" value="Создание &lt;br style=&quot;font-size: 13px;&quot;&gt;BIM-моделей производственных помещений" style="ellipse;whiteSpace=wrap;html=1;aspect=fixed;fontSize=13;" parent="1" vertex="1">
          <mxGeometry x="1514" y="817" width="140" height="70" as="geometry" />
        </mxCell>
        <mxCell id="fYcs5nJ1JPfwbDfYOnap-29" value="" style="edgeStyle=orthogonalEdgeStyle;rounded=0;orthogonalLoop=1;jettySize=auto;html=1;endArrow=none;endFill=0;startArrow=none;startFill=0;strokeColor=default;fontStyle=1;fontSize=13;" parent="1" source="fYcs5nJ1JPfwbDfYOnap-26" target="fYcs5nJ1JPfwbDfYOnap-24" edge="1">
          <mxGeometry relative="1" as="geometry" />
        </mxCell>
        <mxCell id="fYcs5nJ1JPfwbDfYOnap-33" value="" style="edgeStyle=orthogonalEdgeStyle;rounded=0;orthogonalLoop=1;jettySize=auto;html=1;startArrow=none;startFill=0;endArrow=none;endFill=0;strokeColor=default;fontSize=13;" parent="1" source="fYcs5nJ1JPfwbDfYOnap-26" target="fYcs5nJ1JPfwbDfYOnap-27" edge="1">
          <mxGeometry relative="1" as="geometry" />
        </mxCell>
        <mxCell id="fYcs5nJ1JPfwbDfYOnap-26" value="Моделирование горных выработок" style="ellipse;whiteSpace=wrap;html=1;aspect=fixed;fontSize=13;" parent="1" vertex="1">
          <mxGeometry x="1514" y="925.5" width="140" height="70" as="geometry" />
        </mxCell>
        <mxCell id="fYcs5nJ1JPfwbDfYOnap-61" style="edgeStyle=none;rounded=0;orthogonalLoop=1;jettySize=auto;html=1;exitX=0;exitY=0;exitDx=0;exitDy=0;entryX=1;entryY=1;entryDx=0;entryDy=0;startArrow=none;startFill=0;endArrow=none;endFill=0;strokeColor=default;fontSize=13;" parent="1" source="fYcs5nJ1JPfwbDfYOnap-27" target="fYcs5nJ1JPfwbDfYOnap-24" edge="1">
          <mxGeometry relative="1" as="geometry" />
        </mxCell>
        <mxCell id="fYcs5nJ1JPfwbDfYOnap-27" value="Создание BIM-моделей&amp;nbsp;добычных участков" style="ellipse;whiteSpace=wrap;html=1;aspect=fixed;fontSize=13;" parent="1" vertex="1">
          <mxGeometry x="1514" y="1031" width="140" height="70" as="geometry" />
        </mxCell>
        <mxCell id="fYcs5nJ1JPfwbDfYOnap-30" value="" style="edgeStyle=orthogonalEdgeStyle;rounded=0;orthogonalLoop=1;jettySize=auto;html=1;endArrow=none;endFill=0;startArrow=none;startFill=0;strokeColor=default;fontSize=13;" parent="1" edge="1">
          <mxGeometry relative="1" as="geometry">
            <mxPoint x="1324" y="960.39" as="sourcePoint" />
            <mxPoint x="1274" y="960.39" as="targetPoint" />
          </mxGeometry>
        </mxCell>
        <mxCell id="fYcs5nJ1JPfwbDfYOnap-31" value="" style="endArrow=none;html=1;rounded=0;strokeColor=default;entryX=0;entryY=1;entryDx=0;entryDy=0;exitX=1;exitY=0;exitDx=0;exitDy=0;fontSize=13;" parent="1" source="fYcs5nJ1JPfwbDfYOnap-21" target="fYcs5nJ1JPfwbDfYOnap-26" edge="1">
          <mxGeometry width="50" height="50" relative="1" as="geometry">
            <mxPoint x="1284" y="1070" as="sourcePoint" />
            <mxPoint x="1334" y="1020" as="targetPoint" />
          </mxGeometry>
        </mxCell>
        <mxCell id="fYcs5nJ1JPfwbDfYOnap-34" value="" style="endArrow=none;html=1;rounded=0;strokeColor=default;exitX=1;exitY=0;exitDx=0;exitDy=0;entryX=0;entryY=0;entryDx=0;entryDy=0;edgeStyle=orthogonalEdgeStyle;curved=1;fontSize=13;" parent="1" source="fYcs5nJ1JPfwbDfYOnap-20" target="fYcs5nJ1JPfwbDfYOnap-26" edge="1">
          <mxGeometry width="50" height="50" relative="1" as="geometry">
            <mxPoint x="1235" y="925.5" as="sourcePoint" />
            <mxPoint x="1285" y="875.5" as="targetPoint" />
            <Array as="points">
              <mxPoint x="1254" y="910" />
              <mxPoint x="1535" y="910" />
            </Array>
          </mxGeometry>
        </mxCell>
        <mxCell id="fYcs5nJ1JPfwbDfYOnap-35" value="" style="edgeStyle=orthogonalEdgeStyle;rounded=0;orthogonalLoop=1;jettySize=auto;html=1;endArrow=none;endFill=0;startArrow=none;startFill=0;strokeColor=default;entryX=1;entryY=0.5;entryDx=0;entryDy=0;exitX=0;exitY=0.5;exitDx=0;exitDy=0;fontSize=13;" parent="1" source="fYcs5nJ1JPfwbDfYOnap-23" target="fYcs5nJ1JPfwbDfYOnap-21" edge="1">
          <mxGeometry relative="1" as="geometry">
            <mxPoint x="1334" y="970.3899999999999" as="sourcePoint" />
            <mxPoint x="1284" y="970.3899999999999" as="targetPoint" />
          </mxGeometry>
        </mxCell>
        <mxCell id="fYcs5nJ1JPfwbDfYOnap-36" value="" style="endArrow=none;html=1;rounded=0;strokeColor=default;curved=1;entryX=0;entryY=1;entryDx=0;entryDy=0;exitX=1;exitY=0;exitDx=0;exitDy=0;fontSize=13;" parent="1" source="fYcs5nJ1JPfwbDfYOnap-21" target="fYcs5nJ1JPfwbDfYOnap-22" edge="1">
          <mxGeometry width="50" height="50" relative="1" as="geometry">
            <mxPoint x="1394" y="970" as="sourcePoint" />
            <mxPoint x="1444" y="920" as="targetPoint" />
          </mxGeometry>
        </mxCell>
        <mxCell id="fYcs5nJ1JPfwbDfYOnap-37" value="" style="edgeStyle=orthogonalEdgeStyle;rounded=0;orthogonalLoop=1;jettySize=auto;html=1;endArrow=none;endFill=0;startArrow=none;startFill=0;strokeColor=default;fontStyle=1;fontSize=13;" parent="1" edge="1">
          <mxGeometry relative="1" as="geometry">
            <mxPoint x="1514" y="852.5699999999999" as="sourcePoint" />
            <mxPoint x="1464" y="852.5699999999999" as="targetPoint" />
          </mxGeometry>
        </mxCell>
        <mxCell id="fYcs5nJ1JPfwbDfYOnap-38" value="" style="edgeStyle=orthogonalEdgeStyle;rounded=0;orthogonalLoop=1;jettySize=auto;html=1;endArrow=none;endFill=0;startArrow=none;startFill=0;strokeColor=default;entryX=1;entryY=0.5;entryDx=0;entryDy=0;exitX=0;exitY=0.5;exitDx=0;exitDy=0;fontSize=13;" parent="1" source="fYcs5nJ1JPfwbDfYOnap-22" target="fYcs5nJ1JPfwbDfYOnap-13" edge="1">
          <mxGeometry relative="1" as="geometry">
            <mxPoint x="1334" y="970.3899999999999" as="sourcePoint" />
            <mxPoint x="1284" y="970.3899999999999" as="targetPoint" />
          </mxGeometry>
        </mxCell>
        <mxCell id="fYcs5nJ1JPfwbDfYOnap-40" value="" style="edgeStyle=orthogonalEdgeStyle;rounded=0;orthogonalLoop=1;jettySize=auto;html=1;endArrow=none;endFill=0;startArrow=none;startFill=0;strokeColor=default;entryX=1;entryY=0.5;entryDx=0;entryDy=0;exitX=0;exitY=0.5;exitDx=0;exitDy=0;fontSize=13;" parent="1" edge="1">
          <mxGeometry relative="1" as="geometry">
            <mxPoint x="1514.0000000000002" y="1065.7" as="sourcePoint" />
            <mxPoint x="1463.9999999999998" y="1065.7" as="targetPoint" />
          </mxGeometry>
        </mxCell>
        <mxCell id="fYcs5nJ1JPfwbDfYOnap-41" value="" style="endArrow=none;html=1;rounded=0;strokeColor=default;exitX=1;exitY=0;exitDx=0;exitDy=0;entryX=0;entryY=0;entryDx=0;entryDy=0;edgeStyle=orthogonalEdgeStyle;curved=1;fontSize=13;" parent="1" edge="1">
          <mxGeometry width="50" height="50" relative="1" as="geometry">
            <mxPoint x="1253.7131468717494" y="826.9995706809592" as="sourcePoint" />
            <mxPoint x="1534.2868531282506" y="826.9995706809592" as="targetPoint" />
            <Array as="points">
              <mxPoint x="1254" y="801.14" />
              <mxPoint x="1535" y="801.14" />
            </Array>
          </mxGeometry>
        </mxCell>
        <mxCell id="fYcs5nJ1JPfwbDfYOnap-43" value="" style="endArrow=none;html=1;rounded=0;strokeColor=default;exitX=1;exitY=1;exitDx=0;exitDy=0;fontSize=13;" parent="1" source="fYcs5nJ1JPfwbDfYOnap-20" edge="1">
          <mxGeometry width="50" height="50" relative="1" as="geometry">
            <mxPoint x="1263.4974746830583" y="1051.2512626584708" as="sourcePoint" />
            <mxPoint x="1534" y="1040" as="targetPoint" />
          </mxGeometry>
        </mxCell>
        <mxCell id="fYcs5nJ1JPfwbDfYOnap-44" value="" style="endArrow=none;html=1;rounded=0;strokeColor=default;curved=1;entryX=1;entryY=1;entryDx=0;entryDy=0;exitX=0;exitY=0;exitDx=0;exitDy=0;fontSize=13;" parent="1" source="fYcs5nJ1JPfwbDfYOnap-27" target="fYcs5nJ1JPfwbDfYOnap-22" edge="1">
          <mxGeometry width="50" height="50" relative="1" as="geometry">
            <mxPoint x="1263.4974746830583" y="1051.2512626584708" as="sourcePoint" />
            <mxPoint x="1354.5025253169417" y="887.7487373415292" as="targetPoint" />
          </mxGeometry>
        </mxCell>
        <mxCell id="fYcs5nJ1JPfwbDfYOnap-62" value="Моделирование системы электроснабжения" style="ellipse;whiteSpace=wrap;html=1;aspect=fixed;fontSize=13;" parent="1" vertex="1">
          <mxGeometry x="1790" y="804" width="140" height="70" as="geometry" />
        </mxCell>
        <mxCell id="fYcs5nJ1JPfwbDfYOnap-78" value="" style="edgeStyle=none;rounded=0;orthogonalLoop=1;jettySize=auto;html=1;startArrow=classic;startFill=1;endArrow=classic;endFill=1;strokeColor=default;opacity=70;entryX=0.039;entryY=0.624;entryDx=0;entryDy=0;entryPerimeter=0;fontSize=13;" parent="1" source="fYcs5nJ1JPfwbDfYOnap-63" target="fYcs5nJ1JPfwbDfYOnap-14" edge="1">
          <mxGeometry relative="1" as="geometry" />
        </mxCell>
        <mxCell id="fYcs5nJ1JPfwbDfYOnap-63" value="Моделирование месторождения&amp;nbsp;" style="ellipse;whiteSpace=wrap;html=1;aspect=fixed;fontSize=13;" parent="1" vertex="1">
          <mxGeometry x="1770" y="925.5" width="140" height="70" as="geometry" />
        </mxCell>
        <mxCell id="fYcs5nJ1JPfwbDfYOnap-64" value="Моделирование горно-шахтного оборудования" style="ellipse;whiteSpace=wrap;html=1;aspect=fixed;fontSize=13;" parent="1" vertex="1">
          <mxGeometry x="1810" y="1039" width="140" height="70" as="geometry" />
        </mxCell>
        <mxCell id="fYcs5nJ1JPfwbDfYOnap-65" value="Моделирование технологического процесса" style="ellipse;whiteSpace=wrap;html=1;aspect=fixed;fontSize=13;" parent="1" vertex="1">
          <mxGeometry x="1960" y="744" width="140" height="70" as="geometry" />
        </mxCell>
        <mxCell id="fYcs5nJ1JPfwbDfYOnap-66" value="Моделирование системы вентиляции" style="ellipse;whiteSpace=wrap;html=1;aspect=fixed;fontSize=13;" parent="1" vertex="1">
          <mxGeometry x="1960" y="1084.5" width="140" height="70" as="geometry" />
        </mxCell>
        <mxCell id="fYcs5nJ1JPfwbDfYOnap-68" value="Создание &lt;br style=&quot;font-size: 13px;&quot;&gt;BIM-моделей производственных помещений" style="ellipse;whiteSpace=wrap;html=1;aspect=fixed;fontSize=13;" parent="1" vertex="1">
          <mxGeometry x="2130" y="804" width="140" height="70" as="geometry" />
        </mxCell>
        <mxCell id="fYcs5nJ1JPfwbDfYOnap-69" value="Моделирование горных выработок" style="ellipse;whiteSpace=wrap;html=1;aspect=fixed;fontSize=13;" parent="1" vertex="1">
          <mxGeometry x="2150" y="925.5" width="140" height="70" as="geometry" />
        </mxCell>
        <mxCell id="fYcs5nJ1JPfwbDfYOnap-70" value="Создание BIM-моделей&amp;nbsp;добычных участков" style="ellipse;whiteSpace=wrap;html=1;aspect=fixed;fontSize=13;" parent="1" vertex="1">
          <mxGeometry x="2130" y="1039" width="140" height="70" as="geometry" />
        </mxCell>
        <mxCell id="fYcs5nJ1JPfwbDfYOnap-73" value="" style="endArrow=classic;startArrow=classic;html=1;rounded=0;strokeColor=default;opacity=70;entryX=0.5;entryY=1;entryDx=0;entryDy=0;exitX=0.5;exitY=0;exitDx=0;exitDy=0;fontSize=13;" parent="1" source="fYcs5nJ1JPfwbDfYOnap-14" target="fYcs5nJ1JPfwbDfYOnap-65" edge="1">
          <mxGeometry width="50" height="50" relative="1" as="geometry">
            <mxPoint x="2030" y="909" as="sourcePoint" />
            <mxPoint x="1850" y="959" as="targetPoint" />
          </mxGeometry>
        </mxCell>
        <mxCell id="fYcs5nJ1JPfwbDfYOnap-75" value="" style="endArrow=classic;startArrow=classic;html=1;rounded=0;strokeColor=default;opacity=70;entryX=1;entryY=1;entryDx=0;entryDy=0;fontSize=13;" parent="1" source="fYcs5nJ1JPfwbDfYOnap-14" target="fYcs5nJ1JPfwbDfYOnap-62" edge="1">
          <mxGeometry width="50" height="50" relative="1" as="geometry">
            <mxPoint x="1800" y="1019" as="sourcePoint" />
            <mxPoint x="1850" y="969" as="targetPoint" />
          </mxGeometry>
        </mxCell>
        <mxCell id="fYcs5nJ1JPfwbDfYOnap-79" value="" style="edgeStyle=none;rounded=0;orthogonalLoop=1;jettySize=auto;html=1;startArrow=classic;startFill=1;endArrow=classic;endFill=1;strokeColor=default;opacity=70;entryX=0.039;entryY=0.624;entryDx=0;entryDy=0;entryPerimeter=0;fontSize=13;" parent="1" edge="1">
          <mxGeometry relative="1" as="geometry">
            <mxPoint x="2085.3199999999997" y="959.99" as="sourcePoint" />
            <mxPoint x="2150" y="959.9100000000001" as="targetPoint" />
          </mxGeometry>
        </mxCell>
        <mxCell id="fYcs5nJ1JPfwbDfYOnap-80" value="" style="endArrow=classic;startArrow=classic;html=1;rounded=0;strokeColor=default;opacity=70;entryX=0;entryY=1;entryDx=0;entryDy=0;fontSize=13;" parent="1" source="fYcs5nJ1JPfwbDfYOnap-14" target="fYcs5nJ1JPfwbDfYOnap-68" edge="1">
          <mxGeometry width="50" height="50" relative="1" as="geometry">
            <mxPoint x="1770" y="1059" as="sourcePoint" />
            <mxPoint x="1820" y="1009" as="targetPoint" />
          </mxGeometry>
        </mxCell>
        <mxCell id="fYcs5nJ1JPfwbDfYOnap-81" value="" style="endArrow=classic;startArrow=classic;html=1;rounded=0;strokeColor=default;opacity=70;entryX=0.5;entryY=1;entryDx=0;entryDy=0;fontSize=13;" parent="1" source="fYcs5nJ1JPfwbDfYOnap-66" target="fYcs5nJ1JPfwbDfYOnap-15" edge="1">
          <mxGeometry width="50" height="50" relative="1" as="geometry">
            <mxPoint x="1790" y="999" as="sourcePoint" />
            <mxPoint x="1840" y="949" as="targetPoint" />
          </mxGeometry>
        </mxCell>
        <mxCell id="fYcs5nJ1JPfwbDfYOnap-82" value="" style="endArrow=classic;startArrow=classic;html=1;rounded=0;strokeColor=default;opacity=70;entryX=1;entryY=0;entryDx=0;entryDy=0;exitX=0;exitY=1;exitDx=0;exitDy=0;fontSize=13;" parent="1" source="fYcs5nJ1JPfwbDfYOnap-15" target="fYcs5nJ1JPfwbDfYOnap-64" edge="1">
          <mxGeometry width="50" height="50" relative="1" as="geometry">
            <mxPoint x="1995.8809321084395" y="928.7381357831216" as="sourcePoint" />
            <mxPoint x="1919.4974746830535" y="873.7487373415269" as="targetPoint" />
          </mxGeometry>
        </mxCell>
        <mxCell id="fYcs5nJ1JPfwbDfYOnap-83" value="" style="endArrow=classic;startArrow=classic;html=1;rounded=0;strokeColor=default;opacity=70;exitX=0;exitY=0;exitDx=0;exitDy=0;entryX=1;entryY=1;entryDx=0;entryDy=0;fontSize=13;" parent="1" source="fYcs5nJ1JPfwbDfYOnap-70" target="fYcs5nJ1JPfwbDfYOnap-15" edge="1">
          <mxGeometry width="50" height="50" relative="1" as="geometry">
            <mxPoint x="1820" y="999" as="sourcePoint" />
            <mxPoint x="1870" y="949" as="targetPoint" />
          </mxGeometry>
        </mxCell>
        <mxCell id="fYcs5nJ1JPfwbDfYOnap-84" value="" style="endArrow=none;html=1;rounded=0;strokeColor=default;opacity=70;exitX=1;exitY=1;exitDx=0;exitDy=0;entryX=0;entryY=1;entryDx=0;entryDy=0;edgeStyle=orthogonalEdgeStyle;curved=1;fontSize=13;" parent="1" source="fYcs5nJ1JPfwbDfYOnap-21" target="fYcs5nJ1JPfwbDfYOnap-27" edge="1">
          <mxGeometry width="50" height="50" relative="1" as="geometry">
            <mxPoint x="1554" y="1110" as="sourcePoint" />
            <mxPoint x="1604" y="1060" as="targetPoint" />
            <Array as="points">
              <mxPoint x="1254" y="1120" />
              <mxPoint x="1534" y="1120" />
            </Array>
          </mxGeometry>
        </mxCell>
      </root>
    </mxGraphModel>
  </diagram>
</mxfile>
